<svg width="171" height="48" viewBox="0 0 171 48" fill="none" xmlns="http://www.w3.org/2000/svg">
<path d="M5.72685 24.3133C6.66805 22.839 7.97238 21.6313 9.51468 20.8061C15.7075 17.2337 25.7482 17.2337 31.9461 20.8061C33.4873 21.6327 34.7913 22.8401 35.7339 24.3133H36.5907V27.55C36.4754 29.8047 34.9322 32.0594 31.9561 33.7579C25.7583 37.3353 15.7175 37.3353 9.5247 33.7579C6.54354 32.0393 5.01538 29.8047 4.8801 27.55V24.3133H5.72685Z" fill="#BA68C8"/>
<path opacity="0.25" d="M5.72685 24.3133C6.66805 22.839 7.97238 21.6313 9.51468 20.8061C15.7075 17.2337 25.7482 17.2337 31.9461 20.8061C33.4873 21.6327 34.7913 22.8401 35.7339 24.3133H36.5907V27.55C36.4754 29.8047 34.9322 32.0594 31.9561 33.7579C25.7583 37.3353 15.7175 37.3353 9.5247 33.7579C6.54354 32.0393 5.01538 29.8047 4.8801 27.55V24.3133H5.72685Z" fill="black"/>
<path opacity="0.1" d="M20.7279 18.1155C24.7862 18.1155 28.8446 19.0074 31.946 20.7961C33.4873 21.6227 34.7913 22.8301 35.7339 24.3033H36.5906V27.54C36.4754 29.7947 34.9322 32.0493 31.9561 33.7479C28.8547 35.5366 24.7963 36.4284 20.7379 36.4284L20.7279 18.1155Z" fill="black"/>
<path opacity="0.1" d="M29.3908 19.6186C30.2727 19.948 31.1271 20.3468 31.946 20.8111C33.4873 21.6378 34.7913 22.8452 35.7339 24.3184H36.5906V27.5551C36.4754 29.8097 34.9322 32.0644 31.9561 33.7629C31.1373 34.2289 30.2828 34.6293 29.4008 34.9604L29.3908 19.6186Z" fill="black"/>
<path opacity="0.5" d="M12.0649 19.6186C11.1843 19.9471 10.3314 20.3459 9.51467 20.8111C7.97238 21.6363 6.66805 22.844 5.72684 24.3184H4.87007V27.5551C4.9803 29.8097 6.53351 32.0644 9.51467 33.7629C10.3313 34.2298 11.1841 34.6302 12.0649 34.9604V19.6186Z" fill="#BA68C8"/>
<path d="M31.946 17.84C38.1389 21.4124 38.1389 27.2144 31.946 30.7867C26.5248 33.9182 18.1575 34.294 11.9998 31.9642L11.7543 31.869C10.9822 31.5657 10.2336 31.2056 9.51467 30.7917C4.34899 27.7855 3.50224 23.2762 6.93935 19.7689C7.70533 19.0103 8.56984 18.3581 9.50966 17.8299C15.7075 14.2626 25.7482 14.2626 31.946 17.84Z" fill="#BA68C8"/>
<path opacity="0.2" d="M31.946 17.84C38.1389 21.4124 38.1389 27.2144 31.946 30.7867C26.5248 33.9182 18.1575 34.294 11.9998 31.9642L11.7543 31.869C10.9822 31.5657 10.2336 31.2056 9.51467 30.7917C4.34899 27.7855 3.50224 23.2762 6.93935 19.7689C7.70533 19.0103 8.56984 18.3581 9.50966 17.8299C15.7075 14.2626 25.7482 14.2626 31.946 17.84Z" fill="black"/>
<path opacity="0.5" d="M6.93935 19.784C6.26367 20.5449 5.76389 21.4454 5.47553 22.4213C5.18717 23.3972 5.1173 24.4247 5.2709 25.4307C5.82203 28.5822 10.2261 31.2276 11.7443 31.864C10.9722 31.5607 10.2236 31.2006 9.50465 30.7867C4.34899 27.8056 3.49222 23.2812 6.93935 19.784Z" fill="#F5F5F5"/>
<path opacity="0.5" d="M34.5164 28.8427C35.1907 28.0801 35.6888 27.1785 35.9754 26.2017C36.2621 25.2249 36.3301 24.1971 36.1748 23.191C35.6287 20.0445 31.2195 17.399 29.7014 16.7627C30.4747 17.067 31.2249 17.427 31.946 17.84C37.1067 20.8211 37.9685 25.3455 34.5164 28.8427Z" fill="#F5F5F5"/>
<path d="M20.7329 32.8109C28.8766 32.8109 35.4783 28.9997 35.4783 24.2983C35.4783 19.5969 28.8766 15.7857 20.7329 15.7857C12.5892 15.7857 5.98737 19.5969 5.98737 24.2983C5.98737 28.9997 12.5892 32.8109 20.7329 32.8109Z" fill="#BA68C8"/>
<path opacity="0.4" d="M20.7329 32.8109C28.8766 32.8109 35.4783 28.9997 35.4783 24.2983C35.4783 19.5969 28.8766 15.7857 20.7329 15.7857C12.5892 15.7857 5.98737 19.5969 5.98737 24.2983C5.98737 28.9997 12.5892 32.8109 20.7329 32.8109Z" fill="white"/>
<path opacity="0.2" d="M6.65877 26.8436C5.47633 24.6541 5.86212 22.2391 7.81616 20.1898C8.20149 19.7904 8.62058 19.4249 9.06875 19.0976C9.45592 18.81 9.8609 18.5473 10.2813 18.3109C10.5167 18.1707 10.7572 18.0404 11.0078 17.9151C10.3965 18.9172 10.617 20.0045 14.0891 20.2049C20.8882 20.6007 12.2754 27.0991 12.2754 27.0991C12.2754 27.0991 7.87629 24.9847 6.65877 26.8436Z" fill="white"/>
<path opacity="0.5" d="M7.36021 25.0449C6.35814 24.9296 5.8571 23.8825 6.23288 22.705C6.60866 21.5276 7.77607 20.6608 8.77814 20.776C9.78021 20.8913 10.2813 21.9385 9.90547 23.1159C9.5297 24.2933 8.38232 25.1601 7.36021 25.0449Z" fill="white"/>
<path d="M18.1124 30.4561C18.4431 27.9509 29.4759 20.9364 29.4759 20.9364C29.4759 20.9364 31.921 19.9594 31.1093 18.2458C31.5167 18.4804 31.9114 18.7363 32.2918 19.0124C32.5423 19.1928 32.7928 19.3832 33.0082 19.5786C36.29 22.4194 36.295 26.1572 33.0082 29.0031C32.7807 29.2036 32.5433 29.3925 32.2968 29.5692C31.9452 29.8276 31.5788 30.0651 31.1995 30.2807C30.8287 30.5011 30.4379 30.7066 30.0321 30.897C29.7114 31.0473 29.3757 31.1926 29.03 31.3228C28.6843 31.4531 28.3486 31.5834 27.9929 31.6986C26.9179 32.0465 25.8172 32.3095 24.7011 32.4852L23.9645 32.5955C22.8728 32.7342 21.7733 32.8028 20.6727 32.8009C19.3299 32.7984 17.9895 32.6878 16.6645 32.4702C16.6645 32.4702 18.4281 32.1445 18.1124 30.4561Z" fill="#BA68C8"/>
<path opacity="0.3" d="M18.1124 30.4561C18.4431 27.9509 29.4759 20.9364 29.4759 20.9364C29.4759 20.9364 31.921 19.9594 31.1093 18.2458C31.5167 18.4804 31.9114 18.7363 32.2918 19.0124C32.5423 19.1928 32.7928 19.3832 33.0082 19.5786C36.29 22.4194 36.295 26.1572 33.0082 29.0031C32.7807 29.2036 32.5433 29.3925 32.2968 29.5692C31.9452 29.8276 31.5788 30.0651 31.1995 30.2807C30.8287 30.5011 30.4379 30.7066 30.0321 30.897C29.7114 31.0473 29.3757 31.1926 29.03 31.3228C28.6843 31.4531 28.3486 31.5834 27.9929 31.6986C26.9179 32.0465 25.8172 32.3095 24.7011 32.4852L23.9645 32.5955C22.8728 32.7342 21.7733 32.8028 20.6727 32.8009C19.3299 32.7984 17.9895 32.6878 16.6645 32.4702C16.6645 32.4702 18.4281 32.1445 18.1124 30.4561Z" fill="white"/>
<path d="M28.5089 19.8141C32.6224 22.194 32.7878 25.9818 29.01 28.472C28.8496 28.5772 28.6793 28.6824 28.5089 28.7826C24.2201 31.2627 17.2657 31.2627 12.9768 28.7826C8.68796 26.3025 8.68796 22.2691 12.9768 19.8141C13.1522 19.7139 13.3326 19.6186 13.5179 19.5235C17.8269 17.3439 24.3904 17.4392 28.5089 19.8141Z" fill="#BA68C8"/>
<path opacity="0.2" d="M28.5089 19.8141C32.6224 22.194 32.7878 25.9818 29.01 28.472C28.8496 28.5772 28.6793 28.6824 28.5089 28.7826C24.2201 31.2627 17.2657 31.2627 12.9768 28.7826C8.68796 26.3025 8.68796 22.2691 12.9768 19.8141C13.1522 19.7139 13.3326 19.6186 13.5179 19.5235C17.8269 17.3439 24.3904 17.4392 28.5089 19.8141Z" fill="black"/>
<path d="M20.7329 30.3609C26.5328 30.3609 31.2346 27.6466 31.2346 24.2983C31.2346 20.9501 26.5328 18.2358 20.7329 18.2358C14.9329 18.2358 10.2312 20.9501 10.2312 24.2983C10.2312 27.6466 14.9329 30.3609 20.7329 30.3609Z" fill="#BA68C8"/>
<path opacity="0.5" d="M20.7329 30.3609C26.5328 30.3609 31.2346 27.6466 31.2346 24.2983C31.2346 20.9501 26.5328 18.2358 20.7329 18.2358C14.9329 18.2358 10.2312 20.9501 10.2312 24.2983C10.2312 27.6466 14.9329 30.3609 20.7329 30.3609Z" fill="black"/>
<path d="M28.1582 21.703C24.0598 19.3381 17.411 19.3381 13.3075 21.703C11.6341 22.6699 10.642 23.8875 10.3364 25.1451C10.642 26.4027 11.6341 27.6202 13.3075 28.5872C17.411 30.9521 24.0598 30.9521 28.1582 28.5872C29.8217 27.6352 30.8237 26.4027 31.1294 25.13C30.8237 23.8875 29.8217 22.6699 28.1582 21.703Z" fill="#BA68C8"/>
<path opacity="0.35" d="M28.1582 21.703C24.0598 19.3381 17.411 19.3381 13.3075 21.703C11.6341 22.6699 10.642 23.8875 10.3364 25.1451C10.642 26.4027 11.6341 27.6202 13.3075 28.5872C17.411 30.9521 24.0598 30.9521 28.1582 28.5872C29.8217 27.6352 30.8237 26.4027 31.1294 25.13C30.8237 23.8875 29.8217 22.6699 28.1582 21.703Z" fill="black"/>
<path d="M27.3465 26.1321V24.8795C27.3465 24.3785 26.9908 23.8774 26.2242 23.4165C25.5909 23.0779 24.8961 22.8697 24.181 22.8043C23.4658 22.7389 22.7448 22.8176 22.0606 23.0357C21.5095 23.176 20.9834 23.3564 20.5074 23.5367C19.961 23.7347 19.404 23.9019 18.839 24.0378V24.0378C18.5796 24.0978 18.3134 24.123 18.0473 24.1129C17.8189 24.0997 17.5956 24.04 17.391 23.9376L17.4411 23.9025L17.6064 23.8023C17.7487 23.7198 17.896 23.6462 18.0473 23.5818C18.4138 23.4198 18.8086 23.3315 19.2092 23.3221C19.6099 23.3126 20.0084 23.3821 20.3821 23.5267L21.7299 22.1689V20.9263C20.5422 20.5211 19.2616 20.474 18.0473 20.7911C17.6463 20.8948 17.2542 21.0305 16.8749 21.1969L15.5321 20.4203L13.9238 21.3472V22.5948L14.4749 22.9105C14.3283 23.125 14.2465 23.3772 14.2394 23.6369V24.8795C14.2394 25.3806 14.6102 25.8816 15.3818 26.3375C16.0569 26.7323 16.8198 26.9527 17.6014 26.9789V26.9789C17.7499 26.9864 17.8988 26.9864 18.0473 26.9789C18.8614 26.921 19.6637 26.7524 20.4322 26.4778L20.8932 26.3175L19.5003 27.6352V28.8828C20.3359 29.1979 21.2266 29.3403 22.1188 29.3016C23.0109 29.2628 23.886 29.0437 24.6911 28.6573L26.0188 29.4239L27.6271 28.497V27.2494L27.076 26.9288C27.2428 26.6957 27.3369 26.4185 27.3465 26.1321V26.1321ZM23.9595 26.0219C23.8384 26.0933 23.7129 26.1569 23.5838 26.2123C22.7474 26.5693 21.8039 26.5819 20.9583 26.2474C22.2159 25.8064 23.2681 25.4156 24.16 25.8916C24.0965 25.9384 24.0295 25.9803 23.9595 26.0169V26.0219Z" fill="#BA68C8"/>
<path d="M22.0356 23.0157C21.4844 23.156 20.9583 23.3363 20.4823 23.5167C19.9359 23.7146 19.3789 23.8819 18.8139 24.0177V24.0177C18.5545 24.0777 18.2883 24.103 18.0223 24.0929C17.7535 24.0788 17.4922 23.9997 17.2607 23.8624C16.7596 23.5668 16.6645 23.1309 17.416 22.6349L17.5813 22.5347C17.7237 22.4522 17.8709 22.3786 18.0223 22.3142C18.3884 22.1505 18.7836 22.0618 19.1846 22.0532C19.5856 22.0446 19.9842 22.1163 20.3571 22.2641L21.7049 20.9063C20.5172 20.501 19.2365 20.454 18.0223 20.771C17.6212 20.8748 17.2292 21.0105 16.8498 21.1769L15.5071 20.4003L13.8987 21.3272L15.2315 22.0938C13.8837 23.1209 13.8536 24.1831 15.3718 25.0649C16.0472 25.4583 16.8101 25.677 17.5914 25.7012H18.0373C18.8517 25.6458 19.6544 25.4772 20.4222 25.2002C21.9604 24.6992 23.213 24.0779 24.2501 24.6741C24.9466 25.0799 24.7512 25.581 23.9896 26.0219C23.8685 26.0933 23.743 26.1569 23.6138 26.2123C23.1903 26.3903 22.7355 26.482 22.2761 26.482C21.8166 26.482 21.3618 26.3903 20.9383 26.2123L19.5003 27.6352C20.3359 27.9503 21.2266 28.0927 22.1188 28.054C23.0109 28.0152 23.886 27.7961 24.691 27.4097L26.0188 28.1763L27.6271 27.2494L26.3144 26.4878C27.6472 25.4507 27.8175 24.3284 26.2392 23.4115C25.6016 23.065 24.9004 22.8512 24.1779 22.7832C23.4554 22.7152 22.7266 22.7942 22.0356 23.0157V23.0157Z" fill="#BA68C8"/>
<g opacity="0.3">
<path opacity="0.3" d="M22.0356 23.0157C21.4844 23.156 20.9583 23.3363 20.4823 23.5167C19.9359 23.7146 19.3789 23.8819 18.8139 24.0177V24.0177C18.5545 24.0777 18.2883 24.103 18.0223 24.0929C17.7535 24.0788 17.4922 23.9997 17.2607 23.8624C16.7596 23.5668 16.6645 23.1309 17.416 22.6349L17.5813 22.5347C17.7237 22.4522 17.8709 22.3786 18.0223 22.3142C18.3884 22.1505 18.7836 22.0618 19.1846 22.0532C19.5856 22.0446 19.9842 22.1163 20.3571 22.2641L21.7049 20.9063C20.5172 20.501 19.2365 20.454 18.0223 20.771C17.6212 20.8748 17.2292 21.0105 16.8498 21.1769L15.5071 20.4003L13.8987 21.3272L15.2315 22.0938C13.8837 23.1209 13.8536 24.1831 15.3718 25.0649C16.0472 25.4583 16.8101 25.677 17.5914 25.7012H18.0373C18.8517 25.6458 19.6544 25.4772 20.4222 25.2002C21.9604 24.6992 23.213 24.0779 24.2501 24.6741C24.9466 25.0799 24.7512 25.581 23.9896 26.0219C23.8685 26.0933 23.743 26.1569 23.6138 26.2123C23.1903 26.3903 22.7355 26.482 22.2761 26.482C21.8166 26.482 21.3618 26.3903 20.9383 26.2123L19.5003 27.6352C20.3359 27.9503 21.2266 28.0927 22.1188 28.054C23.0109 28.0152 23.886 27.7961 24.691 27.4097L26.0188 28.1763L27.6271 27.2494L26.3144 26.4878C27.6472 25.4507 27.8175 24.3284 26.2392 23.4115C25.6016 23.065 24.9004 22.8512 24.1779 22.7832C23.4554 22.7152 22.7266 22.7942 22.0356 23.0157V23.0157Z" fill="white"/>
</g>
<path opacity="0.45" d="M13.8837 21.3272L15.5071 20.5907L16.8348 21.1769L15.492 20.4003L13.8837 21.3272Z" fill="#F5F5F5"/>
<path opacity="0.45" d="M17.8218 20.8211C18.966 20.5927 20.1476 20.6321 21.274 20.9364L20.3421 22.2641L21.6898 20.9063C20.4401 20.4798 19.0891 20.45 17.8218 20.8211V20.8211Z" fill="#F5F5F5"/>
<path opacity="0.45" d="M26.1992 23.3965C27.7624 24.3134 27.6071 25.4357 26.2743 26.4728C27.4568 25.1801 27.2413 24.2833 25.9537 23.5417C24.7377 22.9224 23.3483 22.7317 22.0105 23.0006C22.6994 22.7813 23.4255 22.7033 24.1452 22.7713C24.8649 22.8394 25.5636 23.052 26.1992 23.3965V23.3965Z" fill="#F5F5F5"/>
<path opacity="0.45" d="M26.2994 26.4878L27.3165 27.2695L26.0188 28.1813L27.6271 27.2544L26.2994 26.4878Z" fill="#F5F5F5"/>
<path opacity="0.45" d="M23.5838 26.2073C22.7902 26.6065 21.8736 26.6854 21.0235 26.4277L19.5204 27.6402L20.9283 26.2223C21.35 26.3952 21.8017 26.4829 22.2575 26.4803C22.7133 26.4778 23.164 26.3849 23.5838 26.2073V26.2073Z" fill="#F5F5F5"/>
<path opacity="0.45" d="M18.7989 24.0177C18.4869 24.1437 18.1491 24.1925 17.8142 24.1603C17.4793 24.128 17.1571 24.0155 16.8749 23.8324C16.4139 23.4365 16.7096 23.0056 17.3759 22.6349C16.6244 23.1359 16.6995 23.5668 17.2206 23.8624C17.4521 23.9997 17.7134 24.0788 17.9822 24.0929C18.2566 24.1053 18.5314 24.08 18.7989 24.0177V24.0177Z" fill="#F5F5F5"/>
<path opacity="0.45" d="M15.2014 22.1238C15.0912 22.224 14.1242 23.1259 14.5501 24.0278C14.976 24.9296 16.4189 25.606 17.5563 25.7313C16.775 25.7071 16.0121 25.4883 15.3367 25.095C13.8236 24.1931 13.8536 23.1259 15.2014 22.1238Z" fill="#F5F5F5"/>
<path d="M9.9155 20.776C10.8564 19.3014 12.1608 18.0936 13.7033 17.2688C19.8961 13.6914 29.9419 13.6914 36.1347 17.2688C37.6773 18.0936 38.9817 19.3014 39.9225 20.776H40.7793V24.0177C40.6641 26.2674 39.1209 28.5271 36.1447 30.2206C29.9519 33.798 19.9062 33.798 13.7133 30.2206C10.7372 28.502 9.20403 26.2674 9.06875 24.0177V20.776H9.9155Z" fill="#BA68C8"/>
<path opacity="0.25" d="M9.9155 20.776C10.8564 19.3014 12.1608 18.0936 13.7033 17.2688C19.8961 13.6914 29.9419 13.6914 36.1347 17.2688C37.6773 18.0936 38.9817 19.3014 39.9225 20.776H40.7793V24.0177C40.6641 26.2674 39.1209 28.5271 36.1447 30.2206C29.9519 33.798 19.9062 33.798 13.7133 30.2206C10.7372 28.502 9.20403 26.2674 9.06875 24.0177V20.776H9.9155Z" fill="black"/>
<path opacity="0.1" d="M24.9165 14.6083C28.9799 14.6083 33.0383 15.5051 36.1347 17.2938C37.6773 18.1186 38.9817 19.3264 39.9225 20.8011H40.7793V24.0428C40.6641 26.2924 39.1209 28.5521 36.1447 30.2456C33.0483 32.0343 28.9899 32.9312 24.9265 32.9312L24.9165 14.6083Z" fill="black"/>
<path opacity="0.1" d="M33.5794 16.0763C34.4632 16.4033 35.3179 16.8039 36.1347 17.2738C37.6773 18.0986 38.9817 19.3064 39.9225 20.7811H40.7793V24.0228C40.6641 26.2724 39.1209 28.5321 36.1447 30.2256C35.328 30.6955 34.4732 31.096 33.5894 31.423L33.5794 16.0763Z" fill="black"/>
<path opacity="0.5" d="M16.2586 16.0763C15.3749 16.4033 14.5201 16.8039 13.7033 17.2738C12.1608 18.0986 10.8564 19.3064 9.9155 20.7811H9.05873V24.0228C9.17397 26.2724 10.7272 28.5321 13.7033 30.2256C14.5201 30.6955 15.3749 31.096 16.2586 31.423V16.0763Z" fill="#BA68C8"/>
<path d="M36.1347 14.3027C42.3275 17.8801 42.3275 23.677 36.1347 27.2544C30.7135 30.3809 22.3512 30.7617 16.1935 28.4269L15.948 28.3317C15.1747 28.0273 14.4245 27.6673 13.7033 27.2544C8.53764 24.2482 7.69089 19.7389 11.133 16.2316C11.8984 15.4709 12.7629 14.817 13.7033 14.2876C19.8961 10.7253 29.9419 10.7253 36.1347 14.3027Z" fill="#BA68C8"/>
<path opacity="0.2" d="M36.1347 14.3027C42.3275 17.8801 42.3275 23.677 36.1347 27.2544C30.7135 30.3809 22.3512 30.7617 16.1935 28.4269L15.948 28.3317C15.1747 28.0273 14.4245 27.6673 13.7033 27.2544C8.53764 24.2482 7.69089 19.7389 11.133 16.2316C11.8984 15.4709 12.7629 14.817 13.7033 14.2876C19.8961 10.7253 29.9419 10.7253 36.1347 14.3027Z" fill="black"/>
<path opacity="0.5" d="M11.133 16.2467C10.4575 17.0086 9.95826 17.9101 9.67075 18.8869C9.38324 19.8638 9.31455 20.8919 9.46958 21.8983C10.0207 25.0449 14.4248 27.6953 15.948 28.3317C15.1747 28.0273 14.4245 27.6673 13.7033 27.2544C8.53765 24.2682 7.68088 19.7439 11.133 16.2467Z" fill="#F5F5F5"/>
<path opacity="0.5" d="M38.705 25.3054C39.3804 24.5444 39.8796 23.6438 40.1672 22.6678C40.4547 21.6918 40.5234 20.6643 40.3685 19.6587C39.8173 16.5122 35.4082 13.8617 33.8901 13.2254C34.6642 13.5277 35.4146 13.8878 36.1347 14.3027C41.3004 17.2838 42.1572 21.8132 38.705 25.3054Z" fill="#F5F5F5"/>
<path d="M14.5 26.7835C8.74307 23.4616 8.74307 18.0704 14.5 14.7586C20.2569 11.4467 29.5912 11.4367 35.3531 14.7586C41.115 18.0805 41.11 23.4766 35.3531 26.7835C29.5962 30.0903 20.2569 30.1103 14.5 26.7835Z" fill="#BA68C8"/>
<path opacity="0.4" d="M14.5 26.7835C8.74307 23.4616 8.74307 18.0704 14.5 14.7586C20.2569 11.4467 29.5912 11.4367 35.3531 14.7586C41.115 18.0805 41.11 23.4766 35.3531 26.7835C29.5962 30.0903 20.2569 30.1103 14.5 26.7835Z" fill="white"/>
<path opacity="0.2" d="M10.8524 23.3063C9.66498 21.1167 10.0508 18.7017 12.0098 16.6525C12.3948 16.2546 12.8121 15.8892 13.2574 15.5603C13.6389 15.2746 14.0371 15.0119 14.4499 14.7736C14.6854 14.6333 14.9509 14.5031 15.1764 14.3778C14.5651 15.3799 14.7906 16.4671 18.2628 16.6726C25.0568 17.0684 16.444 23.5618 16.444 23.5618C16.444 23.5618 12.0649 21.4474 10.8524 23.3063Z" fill="white"/>
<path opacity="0.5" d="M11.5539 21.5126C10.5518 21.3973 10.0508 20.3502 10.4215 19.1677C10.7923 17.9853 11.9697 17.1235 12.9869 17.2387C14.004 17.354 14.49 18.4011 14.1142 19.5836C13.7384 20.766 12.571 21.6228 11.5539 21.5126Z" fill="white"/>
<path d="M22.3061 26.9237C22.6418 24.4186 33.6696 17.4041 33.6696 17.4041C33.6696 17.4041 36.1197 16.402 35.303 14.7135C35.712 14.9434 36.1069 15.1978 36.4854 15.4751C36.741 15.6605 36.9865 15.8458 37.2019 16.0412C40.4837 18.8871 40.4887 22.6199 37.2019 25.4657C36.9764 25.6611 36.741 25.8515 36.4854 26.0369C36.1447 26.2824 35.784 26.538 35.3932 26.7484C35.0024 26.9588 34.6266 27.1693 34.2207 27.3597C33.9001 27.51 33.5644 27.6553 33.2187 27.7855C32.873 27.9158 32.5373 28.0461 32.1865 28.1613C31.1115 28.5103 30.0109 28.7749 28.8947 28.9529C28.6492 28.993 28.3937 29.0281 28.1532 29.0582C27.0617 29.1997 25.962 29.2683 24.8614 29.2636C23.5185 29.2641 22.1778 29.1534 20.8531 28.9329C20.8531 28.9329 22.6168 28.5822 22.3061 26.9237Z" fill="#BA68C8"/>
<path opacity="0.3" d="M22.3061 26.9237C22.6418 24.4186 33.6696 17.4041 33.6696 17.4041C33.6696 17.4041 36.1197 16.402 35.303 14.7135C35.712 14.9434 36.1069 15.1978 36.4854 15.4751C36.741 15.6605 36.9865 15.8458 37.2019 16.0412C40.4837 18.8871 40.4887 22.6199 37.2019 25.4657C36.9764 25.6611 36.741 25.8515 36.4854 26.0369C36.1447 26.2824 35.784 26.538 35.3932 26.7484C35.0024 26.9588 34.6266 27.1693 34.2207 27.3597C33.9001 27.51 33.5644 27.6553 33.2187 27.7855C32.873 27.9158 32.5373 28.0461 32.1865 28.1613C31.1115 28.5103 30.0109 28.7749 28.8947 28.9529C28.6492 28.993 28.3937 29.0281 28.1532 29.0582C27.0617 29.1997 25.962 29.2683 24.8614 29.2636C23.5185 29.2641 22.1778 29.1534 20.8531 28.9329C20.8531 28.9329 22.6168 28.5822 22.3061 26.9237Z" fill="white"/>
<path d="M32.6976 16.2817C36.8111 18.6566 36.9764 22.4445 33.1986 24.9396C33.0383 25.0449 32.873 25.1501 32.6976 25.2503C28.4037 27.7254 21.4544 27.7254 17.1655 25.2503C12.8766 22.7752 12.8716 18.7368 17.1655 16.2817C17.3409 16.1815 17.5212 16.0813 17.7066 15.9911C22.0155 13.8066 28.5841 13.9068 32.6976 16.2817Z" fill="#BA68C8"/>
<path opacity="0.2" d="M32.6976 16.2817C36.8111 18.6566 36.9764 22.4445 33.1986 24.9396C33.0383 25.0449 32.873 25.1501 32.6976 25.2503C28.4037 27.7254 21.4544 27.7254 17.1655 25.2503C12.8766 22.7752 12.8716 18.7368 17.1655 16.2817C17.3409 16.1815 17.5212 16.0813 17.7066 15.9911C22.0155 13.8066 28.5841 13.9068 32.6976 16.2817Z" fill="black"/>
<path d="M24.9265 26.8286C30.7265 26.8286 35.4282 24.1143 35.4282 20.766C35.4282 17.4178 30.7265 14.7035 24.9265 14.7035C19.1266 14.7035 14.4248 17.4178 14.4248 20.766C14.4248 24.1143 19.1266 26.8286 24.9265 26.8286Z" fill="#BA68C8"/>
<path opacity="0.5" d="M24.9265 26.8286C30.7265 26.8286 35.4282 24.1143 35.4282 20.766C35.4282 17.4178 30.7265 14.7035 24.9265 14.7035C19.1266 14.7035 14.4248 17.4178 14.4248 20.766C14.4248 24.1143 19.1266 26.8286 24.9265 26.8286Z" fill="black"/>
<path d="M32.3268 18.1706C28.2284 15.8007 21.5796 15.8007 17.4811 18.1706C15.8027 19.1376 14.8156 20.3502 14.51 21.6078C14.8156 22.8704 15.8027 24.0829 17.4811 25.0499C21.5796 27.4198 28.2284 27.4198 32.3268 25.0499C34.0053 24.0829 34.9974 22.8704 35.303 21.6078C35.0174 20.3502 34.0253 19.1176 32.3268 18.1706Z" fill="#BA68C8"/>
<path opacity="0.35" d="M32.3268 18.1706C28.2284 15.8007 21.5796 15.8007 17.4811 18.1706C15.8027 19.1376 14.8156 20.3502 14.51 21.6078C14.8156 22.8704 15.8027 24.0829 17.4811 25.0499C21.5796 27.4198 28.2284 27.4198 32.3268 25.0499C34.0053 24.0829 34.9974 22.8704 35.303 21.6078C35.0174 20.3502 34.0253 19.1176 32.3268 18.1706Z" fill="black"/>
<path d="M31.5352 22.5898C31.5352 22.3844 31.5352 21.5526 31.5352 21.3372C31.5352 20.8362 31.1795 20.3351 30.4179 19.8792H30.3878C29.754 19.5419 29.0593 19.3345 28.3444 19.2691C27.6295 19.2038 26.9087 19.2817 26.2242 19.4984V19.4984C25.6731 19.6337 25.147 19.8141 24.671 19.9994C24.125 20.1984 23.5679 20.3657 23.0026 20.5005V20.5005C22.7419 20.5631 22.4737 20.5884 22.2059 20.5756C21.9771 20.5647 21.7533 20.5049 21.5496 20.4003L21.6047 20.3652L21.77 20.265C21.9101 20.1816 22.0557 20.108 22.2059 20.0445C22.5721 19.8808 22.9673 19.7921 23.3683 19.7835C23.7692 19.7749 24.1679 19.8466 24.5407 19.9944L25.8785 18.6166V17.369C24.6903 16.9663 23.4104 16.9193 22.1959 17.2337C21.7963 17.3367 21.4058 17.4724 21.0285 17.6395L19.6807 16.8629L18.0724 17.7899V19.0374L18.6235 19.3531C18.4776 19.568 18.3959 19.82 18.388 20.0796C18.388 20.29 18.388 21.1167 18.388 21.3272C18.388 21.8282 18.7588 22.3292 19.5354 22.7852C20.209 23.1786 20.9703 23.3973 21.75 23.4215V23.4215C21.8953 23.4215 22.0456 23.4215 22.1909 23.4215C23.0053 23.3666 23.8081 23.1979 24.5758 22.9205L25.0368 22.7601L23.689 24.128V25.3755C24.5259 25.6875 25.4173 25.8266 26.3095 25.7844C27.2016 25.7422 28.076 25.5196 28.8797 25.13L30.2125 25.8966L31.8158 24.9697V23.7221L31.2646 23.4065C31.4352 23.1678 31.5295 22.8831 31.5352 22.5898ZM28.1482 22.4846C28.0229 22.5547 27.9027 22.6148 27.7774 22.6699C26.9399 23.0284 25.995 23.0428 25.147 22.71C26.4046 22.2641 27.4568 21.8783 28.3536 22.3543L28.1482 22.4846Z" fill="#BA68C8"/>
<path d="M26.2242 19.4784C25.6731 19.6136 25.147 19.794 24.671 19.9794C24.125 20.1783 23.5679 20.3456 23.0026 20.4804V20.4804C22.7419 20.5431 22.4737 20.5684 22.2059 20.5556C21.9375 20.5432 21.6762 20.4659 21.4443 20.3301C20.9433 20.0295 20.8531 19.5936 21.6047 19.1026L21.77 18.9974C21.9101 18.9156 22.0558 18.8436 22.2059 18.7819C22.5724 18.6199 22.9672 18.5316 23.3678 18.5221C23.7684 18.5127 24.167 18.5822 24.5407 18.7268L25.8885 17.369C24.7003 16.9663 23.4204 16.9193 22.2059 17.2337C21.8063 17.3367 21.4158 17.4724 21.0385 17.6395L19.6907 16.8629L18.0824 17.7899L19.4151 18.5615C18.0623 19.5635 18.0373 20.6508 19.5554 21.5276C20.229 21.921 20.9903 22.1397 21.77 22.1639H22.2159C23.0304 22.109 23.8332 21.9403 24.6009 21.6629C26.1441 21.1618 27.3916 20.5405 28.4288 21.1618C29.1252 21.5627 28.9298 22.0687 28.1682 22.5096C28.043 22.5798 27.9227 22.6399 27.7975 22.695C27.3736 22.8717 26.9189 22.9626 26.4597 22.9626C26.0005 22.9626 25.5458 22.8717 25.1219 22.695L23.689 24.128C24.5242 24.4445 25.4152 24.5877 26.3075 24.5489C27.1999 24.5102 28.075 24.2902 28.8797 23.9025L30.2074 24.629L31.8258 23.7171L30.4981 22.9505C31.8358 21.9184 32.0012 20.7911 30.4279 19.8792H30.3978C29.7641 19.5373 29.0683 19.3257 28.3516 19.2568C27.6348 19.188 26.9114 19.2633 26.2242 19.4784V19.4784Z" fill="#BA68C8"/>
<g opacity="0.3">
<path opacity="0.3" d="M26.2242 19.4784C25.6731 19.6136 25.147 19.794 24.671 19.9794C24.125 20.1783 23.5679 20.3456 23.0026 20.4804V20.4804C22.7419 20.5431 22.4737 20.5684 22.2059 20.5556C21.9375 20.5432 21.6762 20.4659 21.4443 20.3301C20.9433 20.0295 20.8531 19.5936 21.6047 19.1026L21.77 18.9974C21.9101 18.9156 22.0558 18.8436 22.2059 18.7819C22.5724 18.6199 22.9672 18.5316 23.3678 18.5221C23.7684 18.5127 24.167 18.5822 24.5407 18.7268L25.8885 17.369C24.7003 16.9663 23.4204 16.9193 22.2059 17.2337C21.8063 17.3367 21.4158 17.4724 21.0385 17.6395L19.6907 16.8629L18.0824 17.7899L19.4151 18.5615C18.0623 19.5635 18.0373 20.6508 19.5554 21.5276C20.229 21.921 20.9903 22.1397 21.77 22.1639H22.2159C23.0304 22.109 23.8332 21.9403 24.6009 21.6629C26.1441 21.1618 27.3916 20.5405 28.4288 21.1618C29.1252 21.5627 28.9298 22.0687 28.1682 22.5096C28.043 22.5798 27.9227 22.6399 27.7975 22.695C27.3736 22.8717 26.9189 22.9626 26.4597 22.9626C26.0005 22.9626 25.5458 22.8717 25.1219 22.695L23.689 24.128C24.5242 24.4445 25.4152 24.5877 26.3075 24.5489C27.1999 24.5102 28.075 24.2902 28.8797 23.9025L30.2074 24.629L31.8258 23.7171L30.4981 22.9505C31.8358 21.9184 32.0012 20.7911 30.4279 19.8792H30.3978C29.7641 19.5373 29.0683 19.3257 28.3516 19.2568C27.6348 19.188 26.9114 19.2633 26.2242 19.4784V19.4784Z" fill="white"/>
</g>
<path opacity="0.45" d="M18.0774 17.7899L19.6957 17.0533L21.0285 17.6395L19.6807 16.8629L18.0774 17.7899Z" fill="#F5F5F5"/>
<path opacity="0.45" d="M22.0105 17.2888C23.1543 17.0553 24.337 17.0948 25.4626 17.4041L24.5307 18.7268L25.8785 17.369C24.6283 16.9438 23.2772 16.9158 22.0105 17.2888V17.2888Z" fill="#F5F5F5"/>
<path opacity="0.45" d="M30.3878 19.8591H30.4179C31.9761 20.771 31.8258 21.8984 30.488 22.9305C31.6705 21.6428 31.46 20.741 30.1724 19.9994C28.954 19.3823 27.5637 19.1918 26.2242 19.4583C26.91 19.2447 27.6315 19.1701 28.3464 19.2389C29.0614 19.3077 29.7554 19.5186 30.3878 19.8591V19.8591Z" fill="#F5F5F5"/>
<path opacity="0.45" d="M30.488 22.9505L31.5051 23.7321L30.2125 24.649L31.8158 23.7171L30.488 22.9505Z" fill="#F5F5F5"/>
<path opacity="0.45" d="M27.7774 22.6699C26.9841 23.0693 26.068 23.15 25.2171 22.8954L23.714 24.1029L25.127 22.69C25.9784 23.0335 26.9312 23.0263 27.7774 22.6699V22.6699Z" fill="#F5F5F5"/>
<path opacity="0.45" d="M22.9925 20.4804C22.6812 20.6083 22.3434 20.6587 22.0083 20.6273C21.6732 20.5959 21.3507 20.4836 21.0686 20.3C20.6026 19.8992 20.8982 19.4733 21.5696 19.1026C20.818 19.6036 20.8932 20.0295 21.4093 20.3301C21.6411 20.4659 21.9025 20.5432 22.1708 20.5556C22.4469 20.5708 22.7238 20.5455 22.9925 20.4804V20.4804Z" fill="#F5F5F5"/>
<path opacity="0.45" d="M19.3951 18.5715C19.2799 18.6717 18.3129 19.5736 18.7387 20.4704C19.1646 21.3673 20.6126 22.0487 21.745 22.1739C20.9653 22.1497 20.204 21.931 19.5304 21.5376C18.0172 20.6608 18.0423 19.6186 19.3951 18.5715Z" fill="#F5F5F5"/>
<path d="M4.26883 17.1135C5.21315 15.6399 6.51885 14.4325 8.06167 13.6062C14.2545 10.0288 24.2952 10.0288 30.488 13.6062C32.0309 14.4325 33.3366 15.6399 34.2809 17.1135H35.1376V20.3552C35.0274 22.6048 33.4842 24.8394 30.5031 26.558C24.3103 30.1354 14.2695 30.1354 8.0767 26.558C5.09553 24.8394 3.56738 22.6048 3.42709 20.3552V17.1135H4.26883Z" fill="#BA68C8"/>
<path opacity="0.25" d="M4.26883 17.1135C5.21315 15.6399 6.51885 14.4325 8.06167 13.6062C14.2545 10.0288 24.2952 10.0288 30.488 13.6062C32.0309 14.4325 33.3366 15.6399 34.2809 17.1135H35.1376V20.3552C35.0274 22.6048 33.4842 24.8394 30.5031 26.558C24.3103 30.1354 14.2695 30.1354 8.0767 26.558C5.09553 24.8394 3.56738 22.6048 3.42709 20.3552V17.1135H4.26883Z" fill="black"/>
<path opacity="0.1" d="M19.2648 10.9006C23.3232 10.9006 27.3816 11.7975 30.478 13.5862C32.0208 14.4125 33.3265 15.6199 34.2709 17.0934H35.1276V20.3351C35.0174 22.5848 33.4742 24.8194 30.493 26.5379C27.3966 28.3266 23.3383 29.2235 19.2799 29.2235L19.2648 10.9006Z" fill="black"/>
<path opacity="0.1" d="M27.9277 12.3887C28.8101 12.7232 29.6631 13.1304 30.478 13.6062C32.0208 14.4325 33.3265 15.6399 34.2708 17.1135H35.1276V20.3552C35.0174 22.6048 33.4742 24.8394 30.493 26.558C29.6775 27.0269 28.8245 27.4274 27.9428 27.7555L27.9277 12.3887Z" fill="black"/>
<path opacity="0.5" d="M10.6019 12.3887C9.71957 12.7232 8.86655 13.1304 8.05164 13.6062C6.51249 14.4339 5.21036 15.6412 4.26882 17.1135H3.40203V20.3552C3.51727 22.6048 5.07048 24.8394 8.05164 26.558C8.86721 27.0269 9.72022 27.4274 10.6019 27.7555V12.3887Z" fill="#BA68C8"/>
<path d="M30.483 10.6C36.6758 14.1774 36.6758 19.9744 30.483 23.5518C25.0618 26.6782 16.6945 27.059 10.5368 24.7242L10.2813 24.629C9.51004 24.3236 8.7616 23.9637 8.04162 23.5518C2.87594 20.5456 2.02919 16.0362 5.4663 12.529C6.23653 11.7716 7.1063 11.1227 8.05164 10.6C14.2444 7.03764 24.3103 7.03764 30.483 10.6Z" fill="#BA68C8"/>
<path opacity="0.2" d="M30.483 10.6C36.6758 14.1774 36.6758 19.9744 30.483 23.5518C25.0618 26.6782 16.6945 27.059 10.5368 24.7242L10.2813 24.629C9.51004 24.3236 8.7616 23.9637 8.04162 23.5518C2.87594 20.5456 2.02919 16.0362 5.4663 12.529C6.23653 11.7716 7.1063 11.1227 8.05164 10.6C14.2444 7.03764 24.3103 7.03764 30.483 10.6Z" fill="black"/>
<path opacity="0.5" d="M5.47632 12.5591C4.80201 13.3216 4.30385 14.2233 4.01723 15.2001C3.73061 16.1768 3.66255 17.2047 3.81789 18.2107C4.36402 21.3572 8.77815 24.0077 10.2813 24.629C9.51005 24.3236 8.7616 23.9637 8.04163 23.5518C2.88597 20.5806 2.02418 16.0563 5.47632 12.5591Z" fill="#F5F5F5"/>
<path opacity="0.5" d="M33.0533 21.6228C33.7272 20.861 34.2252 19.9602 34.5118 18.9843C34.7984 18.0084 34.8667 16.9814 34.7118 15.9761C34.1656 12.8296 29.7565 10.1791 28.2384 9.54282C29.0099 9.83964 29.7585 10.193 30.478 10.6C35.6437 13.6062 36.5055 18.1155 33.0533 21.6228Z" fill="#F5F5F5"/>
<path d="M8.84328 23.0958C3.08638 19.774 3.08638 14.3828 8.84328 11.071C14.6002 7.75913 23.9345 7.7491 29.6914 11.071C35.4483 14.3928 35.4483 19.789 29.6914 23.0958C23.9345 26.4027 14.6052 26.4227 8.84328 23.0958Z" fill="#BA68C8"/>
<path opacity="0.4" d="M8.84328 23.0958C3.08638 19.774 3.08638 14.3828 8.84328 11.071C14.6002 7.75913 23.9345 7.7491 29.6914 11.071C35.4483 14.3928 35.4483 19.789 29.6914 23.0958C23.9345 26.4027 14.6052 26.4227 8.84328 23.0958Z" fill="white"/>
<path opacity="0.2" d="M5.19574 19.6186C4.0133 17.4291 4.3991 15.0141 6.35314 12.9649C6.73992 12.567 7.15887 12.2017 7.60573 11.8726C7.98036 11.5917 8.3719 11.334 8.77815 11.101C9.01364 10.9607 9.27919 10.8305 9.50465 10.7052C8.88838 11.7073 9.11384 12.7945 12.586 13C19.3851 13.3958 10.7723 19.8892 10.7723 19.8892C10.7723 19.8892 6.41326 17.7598 5.19574 19.6186Z" fill="white"/>
<path opacity="0.5" d="M5.8972 17.8249C4.89513 17.7097 4.39409 16.6625 4.76987 15.4801C5.14564 14.2976 6.31306 13.4359 7.33517 13.5511C8.35728 13.6663 8.83828 14.7135 8.4625 15.8959C8.08672 17.0784 6.91931 17.9352 5.8972 17.8249Z" fill="white"/>
<path d="M16.6444 23.2361C16.9801 20.7309 28.0129 13.7164 28.0129 13.7164C28.0129 13.7164 30.458 12.7144 29.6463 11.0259C30.054 11.2591 30.4472 11.5167 30.8237 11.7975C31.0792 11.9829 31.3248 12.1682 31.5402 12.3636C34.827 15.2095 34.832 18.9422 31.5402 21.7881C31.3197 21.9835 31.0792 22.1739 30.8237 22.3593C30.488 22.6048 30.1223 22.8603 29.7315 23.0708C29.3407 23.2812 28.9649 23.4916 28.564 23.682C28.2434 23.8323 27.9077 23.9776 27.562 24.1079C27.2163 24.2382 26.8756 24.3685 26.5248 24.4837C25.4499 24.8332 24.3493 25.0979 23.233 25.2753L22.4965 25.3806C21.405 25.5218 20.3053 25.5904 19.2047 25.586C17.8618 25.586 16.5212 25.4754 15.1964 25.2553C15.1964 25.2553 16.9601 24.8945 16.6444 23.2361Z" fill="#BA68C8"/>
<path opacity="0.3" d="M16.6444 23.2361C16.9801 20.7309 28.0129 13.7164 28.0129 13.7164C28.0129 13.7164 30.458 12.7144 29.6463 11.0259C30.054 11.2591 30.4472 11.5167 30.8237 11.7975C31.0792 11.9829 31.3248 12.1682 31.5402 12.3636C34.827 15.2095 34.832 18.9422 31.5402 21.7881C31.3197 21.9835 31.0792 22.1739 30.8237 22.3593C30.488 22.6048 30.1223 22.8603 29.7315 23.0708C29.3407 23.2812 28.9649 23.4916 28.564 23.682C28.2434 23.8323 27.9077 23.9776 27.562 24.1079C27.2163 24.2382 26.8756 24.3685 26.5248 24.4837C25.4499 24.8332 24.3493 25.0979 23.233 25.2753L22.4965 25.3806C21.405 25.5218 20.3053 25.5904 19.2047 25.586C17.8618 25.586 16.5212 25.4754 15.1964 25.2553C15.1964 25.2553 16.9601 24.8945 16.6444 23.2361Z" fill="white"/>
<path d="M27.0409 12.6041C31.1594 14.9791 31.3248 18.7669 27.5419 21.262C27.3816 21.3673 27.2113 21.4725 27.0409 21.5727C22.752 24.0478 15.7977 24.0478 11.5088 21.5727C7.21994 19.0976 7.21994 15.0592 11.5088 12.6041C11.6842 12.5039 11.8645 12.4037 12.0449 12.3135C16.3638 10.099 22.9274 10.2192 27.0409 12.6041Z" fill="#BA68C8"/>
<path opacity="0.2" d="M27.0409 12.6041C31.1594 14.9791 31.3248 18.7669 27.5419 21.262C27.3816 21.3673 27.2113 21.4725 27.0409 21.5727C22.752 24.0478 15.7977 24.0478 11.5088 21.5727C7.21994 19.0976 7.21994 15.0592 11.5088 12.6041C11.6842 12.5039 11.8645 12.4037 12.0449 12.3135C16.3638 10.099 22.9274 10.2192 27.0409 12.6041Z" fill="black"/>
<path d="M26.6952 12.7895C30.7937 15.1594 30.7937 18.9974 26.6952 21.3622C22.5967 23.7271 15.948 23.7321 11.8445 21.3622C7.741 18.9923 7.74601 15.1594 11.8445 12.7895C15.943 10.4196 22.5967 10.4246 26.6952 12.7895Z" fill="#BA68C8"/>
<path opacity="0.5" d="M26.6952 12.7895C30.7937 15.1594 30.7937 18.9974 26.6952 21.3622C22.5967 23.7271 15.948 23.7321 11.8445 21.3622C7.741 18.9923 7.74601 15.1594 11.8445 12.7895C15.943 10.4196 22.5967 10.4246 26.6952 12.7895Z" fill="black"/>
<path d="M26.6952 14.483C22.5967 12.1131 15.948 12.1131 11.8445 14.483C10.171 15.45 9.17898 16.6625 8.87334 17.9201C9.17898 19.1827 10.171 20.3953 11.8445 21.3623C15.948 23.7322 22.5967 23.7322 26.6952 21.3623C28.3737 20.3953 29.3607 19.1827 29.6663 17.9201C29.3607 16.6625 28.3737 15.45 26.6952 14.483Z" fill="#BA68C8"/>
<path opacity="0.35" d="M26.6952 14.483C22.5967 12.1131 15.948 12.1131 11.8445 14.483C10.171 15.45 9.17898 16.6625 8.87334 17.9201C9.17898 19.1827 10.171 20.3953 11.8445 21.3623C15.948 23.7322 22.5967 23.7322 26.6952 21.3623C28.3737 20.3953 29.3607 19.1827 29.6663 17.9201C29.3607 16.6625 28.3737 15.45 26.6952 14.483Z" fill="black"/>
<path d="M25.8835 18.9022V17.6496C25.8835 17.1485 25.5278 16.6475 24.7612 16.1916C24.753 16.1894 24.7444 16.1894 24.7361 16.1916C24.1024 15.8543 23.4077 15.6469 22.6927 15.5815C21.9778 15.5162 21.257 15.5941 20.5725 15.8108V15.8108C20.0214 15.946 19.4953 16.1264 19.0193 16.3118C18.473 16.5101 17.916 16.6773 17.3509 16.8128V16.8128C17.0915 16.8728 16.8253 16.8981 16.5592 16.888C16.3308 16.8748 16.1075 16.8151 15.9029 16.7126L15.953 16.6776L16.1183 16.5774C16.2601 16.4939 16.4074 16.4203 16.5592 16.3569C16.9254 16.1932 17.3206 16.1045 17.7216 16.0959C18.1226 16.0873 18.5212 16.159 18.8941 16.3068L20.2368 14.949V13.7014C19.0504 13.2986 17.7721 13.2516 16.5592 13.5661C16.1582 13.6699 15.7661 13.8056 15.3868 13.972L14.044 13.1954L12.4207 14.1073V15.3548L12.9718 15.6705C12.8236 15.8842 12.7417 16.1369 12.7363 16.397V17.6446C12.7363 18.1456 13.1071 18.6466 13.8787 19.1026C14.5541 19.496 15.317 19.7147 16.0983 19.7389H16.5442C17.357 19.684 18.1581 19.5153 18.9241 19.2379L19.3901 19.0775L18.0373 20.4353V21.6829C18.8729 21.998 19.7636 22.1404 20.6557 22.1017C21.5479 22.0629 22.4229 21.8438 23.228 21.4575L24.5558 22.224L26.1641 21.2971V20.0495L25.6129 19.7339C25.7836 19.4896 25.8778 19.2001 25.8835 18.9022V18.9022ZM22.4965 18.7969C22.3712 18.8671 22.246 18.9272 22.1207 18.9823C21.285 19.341 20.3416 19.3554 19.4953 19.0224C20.7529 18.5765 21.8051 18.1907 22.6969 18.6667C22.6368 18.7118 22.5667 18.7518 22.4965 18.7969Z" fill="#BA68C8"/>
<path d="M20.5725 15.7907C20.0214 15.926 19.4953 16.1064 19.0193 16.2918C18.473 16.49 17.916 16.6573 17.3509 16.7928C17.0915 16.8528 16.8253 16.8781 16.5592 16.868C16.2894 16.8548 16.0266 16.7775 15.7926 16.6425C15.2916 16.3419 15.2014 15.906 15.953 15.4099L16.1183 15.3097C16.2602 15.2279 16.4075 15.1559 16.5592 15.0943C16.9257 14.9322 17.3206 14.844 17.7212 14.8345C18.1218 14.825 18.5203 14.8946 18.8941 15.0392L20.2368 13.6814C19.0504 13.2786 17.7721 13.2315 16.5592 13.5461C16.1582 13.6498 15.7661 13.7855 15.3868 13.9519L14.044 13.1753L12.4207 14.1072L13.7534 14.8738C12.4056 15.8759 12.3756 16.9632 13.8937 17.84C14.5692 18.2334 15.332 18.4521 16.1133 18.4763H16.5592C17.3721 18.4214 18.1732 18.2527 18.9392 17.9752C20.4823 17.4742 21.7299 16.8529 22.7721 17.4742C23.4685 17.875 23.2731 18.3811 22.5115 18.822C22.3863 18.8921 22.261 18.9523 22.1358 19.0074C21.7119 19.1841 21.2572 19.275 20.798 19.275C20.3388 19.275 19.8841 19.1841 19.4602 19.0074L18.0523 20.4203C18.8876 20.7365 19.7785 20.8796 20.6708 20.8408C21.5632 20.8021 22.4383 20.5823 23.2431 20.1948L24.5708 20.9614L26.1791 20.0345L24.8113 19.2629C26.1491 18.2308 26.3144 17.1034 24.7411 16.1916C24.7329 16.1894 24.7243 16.1894 24.7161 16.1916C24.0864 15.8537 23.3958 15.6443 22.6845 15.5755C21.9732 15.5067 21.2553 15.5798 20.5725 15.7907V15.7907Z" fill="#BA68C8"/>
<g opacity="0.3">
<path opacity="0.3" d="M20.5725 15.7907C20.0214 15.926 19.4953 16.1064 19.0193 16.2918C18.473 16.49 17.916 16.6573 17.3509 16.7928C17.0915 16.8528 16.8253 16.8781 16.5592 16.868C16.2894 16.8548 16.0266 16.7775 15.7926 16.6425C15.2916 16.3419 15.2014 15.906 15.953 15.4099L16.1183 15.3097C16.2602 15.2279 16.4075 15.1559 16.5592 15.0943C16.9257 14.9322 17.3206 14.844 17.7212 14.8345C18.1218 14.825 18.5203 14.8946 18.8941 15.0392L20.2368 13.6814C19.0504 13.2786 17.7721 13.2315 16.5592 13.5461C16.1582 13.6498 15.7661 13.7855 15.3868 13.9519L14.044 13.1753L12.4207 14.1072L13.7534 14.8738C12.4056 15.8759 12.3756 16.9632 13.8937 17.84C14.5692 18.2334 15.332 18.4521 16.1133 18.4763H16.5592C17.3721 18.4214 18.1732 18.2527 18.9392 17.9752C20.4823 17.4742 21.7299 16.8529 22.7721 17.4742C23.4685 17.875 23.2731 18.3811 22.5115 18.822C22.3863 18.8921 22.261 18.9523 22.1358 19.0074C21.7119 19.1841 21.2572 19.275 20.798 19.275C20.3388 19.275 19.8841 19.1841 19.4602 19.0074L18.0523 20.4203C18.8876 20.7365 19.7785 20.8796 20.6708 20.8408C21.5632 20.8021 22.4383 20.5823 23.2431 20.1948L24.5708 20.9614L26.1791 20.0345L24.8113 19.2629C26.1491 18.2308 26.3144 17.1034 24.7411 16.1916C24.7329 16.1894 24.7243 16.1894 24.7161 16.1916C24.0864 15.8537 23.3958 15.6443 22.6845 15.5755C21.9732 15.5067 21.2553 15.5798 20.5725 15.7907V15.7907Z" fill="white"/>
</g>
<path opacity="0.45" d="M12.4207 14.1022L14.044 13.3657L15.3718 13.9519L14.029 13.1753L12.4207 14.1022Z" fill="#F5F5F5"/>
<path opacity="0.45" d="M16.3588 13.6062C17.5026 13.3727 18.6853 13.4122 19.8109 13.7215L18.879 15.0442L20.2268 13.6864C18.9766 13.2611 17.6255 13.2331 16.3588 13.6062Z" fill="#F5F5F5"/>
<path opacity="0.45" d="M24.7361 16.1715C24.7443 16.1694 24.753 16.1694 24.7612 16.1715C26.3244 17.0834 26.1691 18.2107 24.8313 19.2429C26.0188 17.9552 25.8033 17.0533 24.5157 16.3118C23.2991 15.6947 21.9104 15.5042 20.5725 15.7707C21.2583 15.557 21.9798 15.4824 22.6947 15.5513C23.4097 15.6201 24.1037 15.831 24.7361 16.1715V16.1715Z" fill="#F5F5F5"/>
<path opacity="0.45" d="M24.8313 19.2629L25.8534 20.0495L24.5558 20.9614L26.1641 20.0295L24.8313 19.2629Z" fill="#F5F5F5"/>
<path opacity="0.45" d="M22.1207 18.9823C21.3272 19.3816 20.4105 19.4605 19.5604 19.2028L18.0573 20.4153L19.4652 19.0024C20.3182 19.3473 21.2731 19.3401 22.1207 18.9823V18.9823Z" fill="#F5F5F5"/>
<path opacity="0.45" d="M17.3358 16.7928C17.0245 16.9207 16.6868 16.9711 16.3516 16.9397C16.0165 16.9083 15.694 16.796 15.4119 16.6124C14.9459 16.2116 15.2465 15.7857 15.938 15.4099C15.1864 15.911 15.2616 16.3419 15.7776 16.6425C16.0116 16.7775 16.2744 16.8548 16.5442 16.868C16.8103 16.8781 17.0765 16.8528 17.3358 16.7928V16.7928Z" fill="#F5F5F5"/>
<path opacity="0.45" d="M13.7384 14.8839C13.6232 14.9841 12.6562 15.8859 13.0871 16.7828C13.5179 17.6796 14.9559 18.361 16.0933 18.4863C15.312 18.4621 14.5491 18.2434 13.8737 17.85C12.3606 16.9732 12.3906 15.906 13.7384 14.8839Z" fill="#F5F5F5"/>
<path d="M5.25587 15.4751L5.6567 12.4438L6.05752 15.4751L11.3134 15.7056L6.05752 15.936L5.6567 18.9723L5.25587 15.936L0 15.7056L5.25587 15.4751Z" fill="white"/>
<path d="M28.9949 28.5521C30.2359 27.2552 31.7729 26.2787 33.4742 25.7062C39.9225 23.4415 48.0042 26.2073 51.5566 31.869C52.5084 33.3478 53.0687 35.0443 53.185 36.7992L53.8764 37.0347L52.5587 40.6271C51.5566 43.0972 49.4021 45.1364 46.3007 46.2387C39.8574 48.5034 31.7707 45.7376 28.2183 40.0759C26.5198 37.3503 26.1741 34.4443 27.0008 31.9141L28.3185 28.3166L28.9949 28.5521Z" fill="#BA68C8"/>
<path opacity="0.25" d="M28.9949 28.5521C30.2359 27.2552 31.7729 26.2787 33.4742 25.7062C39.9225 23.4415 48.0042 26.2073 51.5566 31.869C52.5084 33.3478 53.0687 35.0443 53.185 36.7992L53.8764 37.0347L52.5587 40.6271C51.5566 43.0972 49.4021 45.1364 46.3007 46.2387C39.8574 48.5034 31.7707 45.7376 28.2183 40.0759C26.5198 37.3503 26.1741 34.4443 27.0008 31.9141L28.3185 28.3166L28.9949 28.5521Z" fill="black"/>
<path opacity="0.1" d="M43.6052 25.8114C46.8676 26.8673 49.6724 29.004 51.5566 31.869C52.5084 33.3478 53.0687 35.0443 53.185 36.7992L53.8764 37.0347L52.5587 40.6271C51.5566 43.0972 49.4021 45.1364 46.3007 46.2387C43.0051 47.3273 39.441 47.2885 36.1698 46.1285L43.6052 25.8114Z" fill="black"/>
<path opacity="0.1" d="M49.9833 29.8448C50.573 30.4589 51.1 31.1303 51.5566 31.8489C52.5084 33.3278 53.0687 35.0243 53.185 36.7791L53.8764 37.0146L52.5587 40.607C51.5566 43.0772 49.4021 45.1164 46.3007 46.2186C45.4756 46.5072 44.6251 46.7169 43.7605 46.8449L49.9833 29.8448Z" fill="black"/>
<path opacity="0.5" d="M36.0195 25.0799C35.1532 25.208 34.301 25.4177 33.4742 25.7062C31.7729 26.2787 30.2359 27.2552 28.9949 28.5521L28.3185 28.3166L27.0058 31.9091C26.1791 34.4393 26.5048 37.3453 28.2233 40.0709C28.684 40.7867 29.2107 41.4577 29.7966 42.0751L36.0195 25.0799Z" fill="#BA68C8"/>
<path d="M52.7641 28.5772C56.3014 34.2439 53.9465 40.6772 47.4982 42.9419C41.8565 44.921 34.9723 43.0571 30.964 38.7582L30.8087 38.5879C30.2988 38.0247 29.8394 37.4177 29.4359 36.7741C26.4848 32.0493 27.6321 26.7885 31.8358 23.8624C32.7177 23.2481 33.6805 22.7591 34.6967 22.4094C41.13 20.1497 49.2218 22.9054 52.7641 28.5772Z" fill="#BA68C8"/>
<path opacity="0.2" d="M52.7641 28.5772C56.3014 34.2439 53.9465 40.6772 47.4982 42.9419C41.8565 44.921 34.9723 43.0571 30.964 38.7582L30.8087 38.5879C30.2988 38.0247 29.8394 37.4177 29.4359 36.7741C26.4848 32.0493 27.6321 26.7885 31.8358 23.8624C32.7177 23.2481 33.6805 22.7591 34.6967 22.4094C41.13 20.1497 49.2218 22.9054 52.7641 28.5772Z" fill="black"/>
<path opacity="0.5" d="M31.8258 23.8624C29.9925 25.3332 28.712 27.382 28.1933 29.6744C27.3566 33.312 29.8317 37.4605 30.7987 38.5879C30.2888 38.0247 29.8294 37.4177 29.4258 36.7741C26.4647 32.0493 27.6121 26.7885 31.8258 23.8624Z" fill="#F5F5F5"/>
<path opacity="0.5" d="M50.3641 41.4889C52.1974 40.0181 53.4779 37.9692 53.9966 35.6768C54.8334 32.0393 52.3582 27.8908 51.3912 26.7634C51.9011 27.3266 52.3605 27.9335 52.7641 28.5772C55.7152 33.3019 54.5678 38.5628 50.3641 41.4889Z" fill="#F5F5F5"/>
<path d="M53.1452 36.2235C54.7219 30.9041 50.6081 24.9937 43.9569 23.0223C37.3057 21.0509 30.6357 23.7649 29.059 29.0843C27.4823 34.4036 31.5961 40.314 38.2473 42.2855C44.8985 44.2569 51.5685 41.5429 53.1452 36.2235Z" fill="#BA68C8"/>
<path opacity="0.4" d="M53.1452 36.2235C54.7219 30.9041 50.6081 24.9937 43.9569 23.0223C37.3057 21.0509 30.6357 23.7649 29.059 29.0843C27.4823 34.4036 31.5961 40.314 38.2473 42.2855C44.8985 44.2569 51.5685 41.5429 53.1452 36.2235Z" fill="white"/>
<path opacity="0.2" d="M28.7194 31.6134C28.6953 30.2278 29.0149 28.8578 29.6496 27.6258C30.2844 26.3939 31.2145 25.3385 32.3569 24.5538C32.8172 24.225 33.3031 23.9335 33.8099 23.682C34.2265 23.4767 34.6548 23.296 35.0926 23.1409C35.3381 23.0507 35.5936 22.9706 35.8391 22.9004C34.9322 23.8524 34.6767 25.11 37.3923 26.2924C42.7083 28.5972 33.1285 33.4372 33.1285 33.4372C33.1285 33.4372 30.458 29.8849 28.7194 31.6134Z" fill="white"/>
<path opacity="0.5" d="M30.0171 29.8147C29.2404 29.4089 29.2605 28.1062 30.0571 26.9087C30.8538 25.7112 32.1364 25.0649 32.908 25.4707C33.6796 25.8766 33.6646 27.1793 32.8679 28.3818C32.0713 29.5842 30.7937 30.2206 30.0171 29.8147Z" fill="white"/>
<path d="M36.4804 38.7733C37.7781 36.0626 49.5073 31.3479 49.5073 31.3479C49.5073 31.3479 51.8823 30.932 51.9223 28.8127C52.1592 29.1904 52.3734 29.5819 52.5637 29.9851C52.6939 30.2556 52.8092 30.5312 52.9094 30.8068C54.4125 34.8652 52.8843 39.0087 49.0765 41.2634C48.8159 41.4187 48.5504 41.559 48.2698 41.6943C47.8884 41.8824 47.497 42.0497 47.0974 42.1953C46.707 42.3366 46.3089 42.4553 45.9049 42.5511C45.5842 42.6312 45.2586 42.7014 44.9329 42.7565C44.6072 42.8116 44.2765 42.8517 43.9308 42.8817C42.9406 42.9761 41.9432 42.9677 40.9547 42.8567C40.7442 42.8316 40.5288 42.8066 40.3184 42.7715C39.3868 42.6267 38.4697 42.4004 37.5777 42.0951C36.4895 41.724 35.4472 41.2298 34.4713 40.6221C34.4713 40.6221 36.0596 40.6972 36.4804 38.7733Z" fill="#BA68C8"/>
<path opacity="0.3" d="M36.4804 38.7733C37.7781 36.0626 49.5073 31.3479 49.5073 31.3479C49.5073 31.3479 51.8823 30.932 51.9223 28.8127C52.1592 29.1904 52.3734 29.5819 52.5637 29.9851C52.6939 30.2556 52.8092 30.5312 52.9094 30.8068C54.4125 34.8652 52.8843 39.0087 49.0765 41.2634C48.8159 41.4187 48.5504 41.559 48.2698 41.6943C47.8884 41.8824 47.497 42.0497 47.0974 42.1953C46.707 42.3366 46.3089 42.4553 45.9049 42.5511C45.5842 42.6312 45.2586 42.7014 44.9329 42.7565C44.6072 42.8116 44.2765 42.8517 43.9308 42.8817C42.9406 42.9761 41.9432 42.9677 40.9547 42.8567C40.7442 42.8316 40.5288 42.8066 40.3184 42.7715C39.3868 42.6267 38.4697 42.4004 37.5777 42.0951C36.4895 41.724 35.4472 41.2298 34.4713 40.6221C34.4713 40.6221 36.0596 40.6972 36.4804 38.7733Z" fill="white"/>
<path d="M49.1867 29.8247C51.5416 33.5925 50.1336 37.8413 46.0753 39.5649C45.8999 39.64 45.7245 39.7102 45.5442 39.7703C41.0749 41.3386 35.4733 39.4296 33.0183 35.5015C30.5632 31.5734 32.1966 27.1242 36.6608 25.5559C36.8412 25.4908 37.0265 25.4357 37.2119 25.3806C41.586 24.128 46.8569 26.062 49.1867 29.8247Z" fill="#BA68C8"/>
<path opacity="0.2" d="M49.1867 29.8247C51.5416 33.5925 50.1336 37.8413 46.0753 39.5649C45.8999 39.64 45.7245 39.7102 45.5442 39.7703C41.0749 41.3386 35.4733 39.4296 33.0183 35.5015C30.5632 31.5734 32.1966 27.1242 36.6608 25.5559C36.8412 25.4908 37.0265 25.4357 37.2119 25.3806C41.586 24.128 46.8569 26.062 49.1867 29.8247Z" fill="black"/>
<path d="M48.8259 29.95C51.1708 33.7028 49.6076 37.9666 45.3187 39.4697C41.0298 40.9728 35.6888 39.144 33.349 35.3913C31.0091 31.6385 32.5673 27.3747 36.8562 25.8716C41.1451 24.3685 46.4861 26.1972 48.8259 29.95Z" fill="#BA68C8"/>
<path opacity="0.5" d="M48.8259 29.95C51.1708 33.7028 49.6076 37.9666 45.3187 39.4697C41.0298 40.9728 35.6888 39.144 33.349 35.3913C31.0091 31.6385 32.5673 27.3747 36.8562 25.8716C41.1451 24.3685 46.4861 26.1972 48.8259 29.95Z" fill="black"/>
<path d="M48.1395 31.8239C45.7947 28.0711 40.4386 26.2423 36.1698 27.7454C34.584 28.2567 33.2368 29.3245 32.377 30.7517C32.1168 32.3676 32.4746 34.0222 33.379 35.3862C35.7189 39.139 41.0799 40.9678 45.3488 39.4647C46.9346 38.9535 48.2818 37.8856 49.1416 36.4585C49.4017 34.8426 49.044 33.188 48.1395 31.8239V31.8239Z" fill="#BA68C8"/>
<path opacity="0.35" d="M48.1395 31.8239C45.7947 28.0711 40.4386 26.2423 36.1698 27.7454C34.584 28.2567 33.2368 29.3245 32.377 30.7517C32.1168 32.3676 32.4746 34.0222 33.379 35.3862C35.7189 39.139 41.0799 40.9678 45.3488 39.4647C46.9346 38.9535 48.2818 37.8856 49.1416 36.4585C49.4017 34.8426 49.044 33.188 48.1395 31.8239V31.8239Z" fill="black"/>
<path d="M45.6894 36.5036C45.7696 36.2781 46.1103 35.3562 46.1905 35.1157C46.2935 34.7926 46.3195 34.4499 46.2664 34.1149C46.2134 33.78 46.0827 33.4621 45.8849 33.1867V33.1616C45.0782 31.874 43.8807 31.5884 42.6832 31.5934C42.199 31.6058 41.7157 31.6426 41.2352 31.7036C40.7192 31.7782 40.1984 31.815 39.677 31.8139V31.8139C39.4471 31.8076 39.22 31.7619 39.0056 31.6786C38.822 31.5976 38.6643 31.4676 38.5497 31.3028L38.6048 31.2777L38.7802 31.2126C38.924 31.1606 39.0714 31.1188 39.2211 31.0874C39.5618 31.0037 39.9188 31.014 40.2541 31.1173C40.5894 31.2205 40.8904 31.4128 41.125 31.6736L42.7634 30.5362L43.2644 29.1534C42.8818 28.7749 42.4268 28.4773 41.9267 28.2785C41.4265 28.0797 40.8915 27.9836 40.3534 27.996C39.981 27.9994 39.6099 28.0414 39.2461 28.1212L38.4745 26.8887L36.8011 27.4749L36.3 28.8577L36.6157 29.3588C36.3949 29.565 36.2236 29.8185 36.1147 30.1003L35.6136 31.4782C35.5133 31.8039 35.491 32.1486 35.5484 32.4846C35.6059 32.8205 35.7415 33.1383 35.9443 33.4122C36.2905 34.0017 36.8176 34.4638 37.4474 34.7299V34.7299L37.8082 34.8501C38.5071 35.0068 39.2288 35.034 39.9376 34.9303L40.3785 34.8802L38.7301 36.0176L38.229 37.4004C39.4616 38.7732 41.115 38.9035 42.5079 38.5778L43.2644 39.7954L44.9379 39.2041L45.4389 37.8213L45.1233 37.3202C45.3708 37.0938 45.5643 36.8148 45.6894 36.5036V36.5036ZM42.9989 35.4564C42.8764 35.5007 42.7508 35.5359 42.6231 35.5616C42.2389 35.6491 41.8383 35.6321 41.4629 35.5123C41.0875 35.3924 40.7511 35.1742 40.4887 34.8802C41.6862 34.7349 42.6882 34.5946 43.2193 35.3812L42.9989 35.4564Z" fill="#BA68C8"/>
<path d="M42.6732 31.5934C42.189 31.6058 41.7057 31.6426 41.2252 31.7036C40.7092 31.7782 40.1884 31.815 39.667 31.8139V31.8139C39.4371 31.8076 39.21 31.7619 38.9956 31.6786C38.7846 31.5786 38.6096 31.4159 38.4946 31.2126C38.199 30.7416 38.3142 30.2356 39.1209 29.8949L39.2962 29.8298C39.4395 29.777 39.587 29.7368 39.7372 29.7095C40.0774 29.6252 40.4341 29.6348 40.7694 29.7371C41.1047 29.8395 41.4059 30.0308 41.6411 30.2907L43.2494 29.1383C42.8668 28.7599 42.4118 28.4623 41.9117 28.2635C41.4115 28.0646 40.8765 27.9685 40.3384 27.9809C39.966 27.9844 39.5949 28.0263 39.2311 28.1062L38.4595 26.8736L36.7861 27.4599L37.5476 28.6774C36.0445 29.444 35.5886 30.6164 36.4554 32.0093C36.8077 32.6032 37.3443 33.0658 37.9835 33.327V33.327L38.3443 33.4472C39.0432 33.6031 39.7645 33.6319 40.4737 33.5324C41.9267 33.3821 43.1793 33.0314 43.7755 34.0034C44.1713 34.6397 43.8106 35.1457 43.0139 35.4263C42.8914 35.4706 42.7658 35.5058 42.6382 35.5315C42.2463 35.6213 41.8374 35.602 41.4558 35.4756C41.0742 35.3493 40.7346 35.1209 40.4737 34.8151L38.7601 35.9975C39.9927 37.3754 41.6461 37.5006 43.039 37.1749L43.7955 38.3925L45.469 37.8012L44.7124 36.5887C46.2156 35.8071 46.7917 34.5846 45.9049 33.1566V33.1316C45.0682 31.874 43.8507 31.5884 42.6732 31.5934Z" fill="#BA68C8"/>
<g opacity="0.3">
<path opacity="0.3" d="M42.6732 31.5934C42.189 31.6058 41.7057 31.6426 41.2252 31.7036C40.7092 31.7782 40.1884 31.815 39.667 31.8139V31.8139C39.4371 31.8076 39.21 31.7619 38.9956 31.6786C38.7846 31.5786 38.6096 31.4159 38.4946 31.2126C38.199 30.7416 38.3142 30.2356 39.1209 29.8949L39.2962 29.8298C39.4395 29.777 39.587 29.7368 39.7372 29.7095C40.0774 29.6252 40.4341 29.6348 40.7694 29.7371C41.1047 29.8395 41.4059 30.0308 41.6411 30.2907L43.2494 29.1383C42.8668 28.7599 42.4118 28.4623 41.9117 28.2635C41.4115 28.0646 40.8765 27.9685 40.3384 27.9809C39.966 27.9844 39.5949 28.0263 39.2311 28.1062L38.4595 26.8736L36.7861 27.4599L37.5476 28.6774C36.0445 29.444 35.5886 30.6164 36.4554 32.0093C36.8077 32.6032 37.3443 33.0658 37.9835 33.327V33.327L38.3443 33.4472C39.0432 33.6031 39.7645 33.6319 40.4737 33.5324C41.9267 33.3821 43.1793 33.0314 43.7755 34.0034C44.1713 34.6397 43.8106 35.1457 43.0139 35.4263C42.8914 35.4706 42.7658 35.5058 42.6382 35.5315C42.2463 35.6213 41.8374 35.602 41.4558 35.4756C41.0742 35.3493 40.7346 35.1209 40.4737 34.8151L38.7601 35.9975C39.9927 37.3754 41.6461 37.5006 43.039 37.1749L43.7955 38.3925L45.469 37.8012L44.7124 36.5887C46.2156 35.8071 46.7917 34.5846 45.9049 33.1566V33.1316C45.0682 31.874 43.8507 31.5884 42.6732 31.5934Z" fill="white"/>
</g>
<path opacity="0.45" d="M36.7861 27.4799L38.3944 27.1141L39.2311 28.1262L38.4595 26.8937L36.7861 27.4799Z" fill="#F5F5F5"/>
<path opacity="0.45" d="M40.163 28.006C41.1687 28.0608 42.1299 28.4386 42.9037 29.0832L41.611 30.2957L43.2494 29.1383C42.8443 28.7421 42.3597 28.4364 41.8277 28.2412C41.2957 28.046 40.7283 27.9658 40.163 28.006V28.006Z" fill="#F5F5F5"/>
<path opacity="0.45" d="M45.8548 33.1466V33.1717C46.7416 34.6146 46.1604 35.8221 44.6623 36.6038C46.1654 35.4965 46.3308 34.4393 45.5993 33.2619C45.2661 32.7747 44.8263 32.3698 44.3132 32.0781C43.8001 31.7864 43.2272 31.6155 42.6382 31.5784C43.8507 31.5884 45.0682 31.874 45.8548 33.1466Z" fill="#F5F5F5"/>
<path opacity="0.45" d="M44.6974 36.6188L45.1984 37.7662L43.7805 38.4225L45.454 37.8363L44.6974 36.6188Z" fill="#F5F5F5"/>
<path opacity="0.45" d="M42.6231 35.5616C42.2554 35.6796 41.8632 35.6996 41.4854 35.6197C41.1075 35.5397 40.7571 35.3625 40.4687 35.1057L38.7451 36.0276L40.4586 34.8451C40.7195 35.1509 41.0592 35.3794 41.4408 35.5057C41.8224 35.632 42.2313 35.6514 42.6231 35.5616V35.5616Z" fill="#F5F5F5"/>
<path opacity="0.45" d="M50.1337 31.8928C49.8412 31.9491 49.5384 31.9081 49.2714 31.776C49.0045 31.6439 48.7882 31.428 48.6556 31.1613C48.4452 30.5901 48.856 30.1943 49.5675 29.9738C48.7608 30.3145 48.6456 30.8206 48.9412 31.2915C49.0562 31.4948 49.2312 31.6576 49.4422 31.7575C49.6629 31.8431 49.897 31.8889 50.1337 31.8928Z" fill="#F5F5F5"/>
<path opacity="0.45" d="M37.5326 28.7074C37.4023 28.7876 36.255 29.5241 36.2349 30.6414C36.2606 31.2063 36.4343 31.7545 36.7385 32.2311C37.0428 32.7077 37.4669 33.096 37.9685 33.3571V33.3571C37.3292 33.0959 36.7927 32.6332 36.4403 32.0393C35.5735 30.6414 36.0295 29.474 37.5326 28.7074Z" fill="#F5F5F5"/>
<path d="M30.453 27.034L32.0112 23.7822L31.0993 27.2544L35.2429 28.9529L30.9089 27.7655L29.3557 31.0222L30.2676 27.545L26.124 25.8465L30.453 27.034Z" fill="white"/>
<path d="M71.1 38.7C68.692 38.7 66.8067 38 65.444 36.6C64.1 35.2 63.428 33.24 63.428 30.72C63.428 28.2747 63.96 26.0627 65.024 24.084C66.1067 22.0867 67.5627 20.5187 69.392 19.38C71.2213 18.2413 73.2373 17.672 75.44 17.672C76.784 17.672 77.8387 17.8867 78.604 18.316C79.3693 18.7453 79.752 19.3427 79.752 20.108C79.752 20.7427 79.5 21.284 78.996 21.732C78.492 22.1613 77.8667 22.376 77.12 22.376C76.3173 22.376 75.58 22.1987 74.908 21.844C74.2547 21.4893 73.7227 20.892 73.312 20.052C72.0987 20.5747 71.016 21.368 70.064 22.432C69.112 23.496 68.3653 24.7653 67.824 26.24C67.2827 27.696 67.012 29.264 67.012 30.944C67.012 32.7547 67.3667 34.1733 68.076 35.2C68.7853 36.2267 69.7653 36.74 71.016 36.74C71.968 36.74 72.8173 36.5067 73.564 36.04C74.3107 35.5547 74.8987 34.9013 75.328 34.08C75.776 33.24 76.0373 32.3067 76.112 31.28C76.84 31.28 77.4 31.4387 77.792 31.756C78.2027 32.0547 78.408 32.54 78.408 33.212C78.408 34.2013 78.072 35.116 77.4 35.956C76.7467 36.796 75.86 37.468 74.74 37.972C73.62 38.4573 72.4067 38.7 71.1 38.7ZM89.5643 38.7C87.9776 38.7 86.5869 38.3547 85.3923 37.664C84.2163 36.9547 83.3016 35.956 82.6483 34.668C81.9949 33.3613 81.6683 31.8493 81.6683 30.132C81.6683 27.6493 82.1536 25.4653 83.1243 23.58C84.0949 21.6947 85.3923 20.248 87.0163 19.24C88.6403 18.2133 90.4136 17.7 92.3363 17.7C93.2696 17.7 93.9603 17.84 94.4083 18.12C94.8563 18.3813 95.0803 18.8013 95.0803 19.38C95.0803 19.5853 95.0616 19.772 95.0243 19.94C94.9869 20.0893 94.9309 20.2573 94.8563 20.444C94.6136 20.388 94.3336 20.3413 94.0163 20.304C93.6989 20.248 93.4283 20.22 93.2043 20.22C91.7296 20.22 90.3856 20.6307 89.1723 21.452C87.9776 22.2733 87.0256 23.4307 86.3163 24.924C85.6256 26.3987 85.2803 28.0973 85.2803 30.02C85.2803 32.2227 85.7283 33.8933 86.6243 35.032C87.5389 36.1707 88.7709 36.74 90.3203 36.74C91.3469 36.74 92.3829 36.404 93.4283 35.732C94.4923 35.0413 95.3976 34.08 96.1443 32.848C96.9096 31.5973 97.3949 30.1787 97.6003 28.592C96.4803 28.088 95.6776 27.4533 95.1923 26.688C94.7256 25.904 94.4923 25.0267 94.4923 24.056C94.4923 23.1413 94.7536 22.3853 95.2763 21.788C95.7989 21.172 96.4523 20.864 97.2363 20.864C98.1883 20.864 98.9349 21.2933 99.4763 22.152C100.018 22.992 100.288 24.1587 100.288 25.652C100.288 28.0787 99.8216 30.2907 98.8883 32.288C97.9736 34.2667 96.6949 35.8347 95.0523 36.992C93.4283 38.1307 91.5989 38.7 89.5643 38.7ZM106.004 38.728C105.314 38.728 104.81 38.5507 104.492 38.196C104.175 37.8413 104.016 37.2627 104.016 36.46C104.016 35.396 104.166 33.772 104.464 31.588C104.763 29.404 105.332 25.7267 106.172 20.556L105.304 18.848C106.555 18.064 107.666 17.672 108.636 17.672C109.458 17.672 109.868 18.1667 109.868 19.156C109.868 19.324 109.784 19.9307 109.616 20.976C109.448 22.0027 109.262 23.1507 109.056 24.42C108.515 27.836 108.114 30.3747 107.852 32.036C107.61 33.6973 107.488 34.864 107.488 35.536C107.488 36.0773 107.544 36.5533 107.656 36.964C107.768 37.3747 107.936 37.72 108.16 38C107.414 38.4853 106.695 38.728 106.004 38.728ZM110.988 30.16C110.036 30.16 108.87 29.9733 107.488 29.6L107.88 27.668C108.87 27.8173 110.055 27.892 111.436 27.892L113.508 27.388C113.508 27.444 113.508 27.5093 113.508 27.584C113.508 27.64 113.518 27.696 113.536 27.752C113.536 27.808 113.536 27.864 113.536 27.92C113.536 27.976 113.536 28.0227 113.536 28.06C113.536 28.732 113.312 29.2547 112.864 29.628C112.435 29.9827 111.81 30.16 110.988 30.16ZM114.068 21.704C112.93 21.704 111.828 21.6293 110.764 21.48C109.719 21.312 108.692 21.0413 107.684 20.668L108.356 18.988C109.924 18.988 111.259 18.9133 112.36 18.764C113.462 18.6147 114.927 18.3533 116.756 17.98C116.868 17.9613 116.971 17.9427 117.064 17.924C117.176 17.8867 117.288 17.8587 117.4 17.84C117.494 18.1573 117.54 18.5493 117.54 19.016C117.54 19.9307 117.204 20.612 116.532 21.06C115.879 21.4893 115.058 21.704 114.068 21.704ZM126.482 31.084C125.418 31.084 124.494 30.9533 123.71 30.692C122.945 30.4307 122.161 29.964 121.358 29.292L122.03 27.976C122.46 28.2933 122.954 28.536 123.514 28.704C124.093 28.8533 124.69 28.928 125.306 28.928C126.52 28.928 127.574 28.7133 128.47 28.284C129.366 27.8547 130.048 27.2667 130.514 26.52C131 25.7733 131.242 24.924 131.242 23.972C131.242 22.796 130.906 21.8347 130.234 21.088C129.581 20.3413 128.526 19.968 127.07 19.968C126.361 19.968 125.633 20.136 124.886 20.472C124.158 20.7893 123.356 21.2747 122.478 21.928V20.752C123.188 20.0613 123.813 19.5107 124.354 19.1C124.896 18.6893 125.54 18.3627 126.286 18.12C127.033 17.8587 127.901 17.728 128.89 17.728C130.122 17.728 131.186 17.9987 132.082 18.54C132.978 19.0627 133.65 19.772 134.098 20.668C134.565 21.564 134.798 22.5347 134.798 23.58C134.798 24.8307 134.49 26.0347 133.874 27.192C133.258 28.3307 132.325 29.264 131.074 29.992C129.824 30.72 128.293 31.084 126.482 31.084ZM120.742 38.728C120.052 38.728 119.548 38.5507 119.23 38.196C118.913 37.8413 118.754 37.2627 118.754 36.46C118.754 35.3773 118.904 33.7347 119.202 31.532C119.501 29.3293 120.07 25.6707 120.91 20.556L120.042 18.848C121.293 18.064 122.404 17.672 123.374 17.672C124.196 17.672 124.606 18.1667 124.606 19.156C124.606 19.3987 124.373 20.8547 123.906 23.524C123.402 26.5107 122.992 29.0213 122.674 31.056C122.376 33.0907 122.226 34.584 122.226 35.536C122.226 36.0773 122.282 36.5533 122.394 36.964C122.506 37.3747 122.674 37.72 122.898 38C122.17 38.4853 121.452 38.728 120.742 38.728ZM132.67 38.7C132.092 38.7 131.606 38.5693 131.214 38.308C130.822 38.0653 130.421 37.6173 130.01 36.964C129.618 36.292 129.124 35.2747 128.526 33.912L126.79 30.076L129.786 28.844C130.682 30.9347 131.597 32.792 132.53 34.416C133.482 36.04 134.313 37.16 135.022 37.776C134.798 38.0187 134.444 38.2333 133.958 38.42C133.492 38.6067 133.062 38.7 132.67 38.7ZM141.032 38.728C140.341 38.728 139.837 38.5507 139.52 38.196C139.202 37.8413 139.044 37.2627 139.044 36.46C139.044 35.396 139.193 33.772 139.492 31.588C139.79 29.404 140.36 25.7267 141.2 20.556L140.332 18.848C141.582 18.064 142.693 17.672 143.664 17.672C144.485 17.672 144.896 18.1667 144.896 19.156C144.896 19.324 144.812 19.9307 144.644 20.976C144.476 22.0027 144.289 23.1507 144.084 24.42C143.542 27.836 143.141 30.3747 142.88 32.036C142.637 33.6973 142.516 34.864 142.516 35.536C142.516 36.0213 142.618 36.4413 142.824 36.796C143.048 37.132 143.393 37.4213 143.86 37.664C142.87 38.3733 141.928 38.728 141.032 38.728ZM147.192 38.7C146.034 38.7 144.896 38.5507 143.776 38.252C142.656 37.972 141.713 37.58 140.948 37.076L141.872 35.9H148.144C149.264 35.7693 150.281 35.5267 151.196 35.172C151.364 35.732 151.448 36.1427 151.448 36.404C151.448 37.188 151.102 37.7667 150.412 38.14C149.74 38.5133 148.666 38.7 147.192 38.7ZM146.016 30.16C145.064 30.16 143.897 29.9733 142.516 29.6L142.908 27.668C143.897 27.8173 145.082 27.892 146.464 27.892L148.536 27.388C148.536 27.444 148.536 27.5093 148.536 27.584C148.536 27.64 148.545 27.696 148.564 27.752C148.564 27.808 148.564 27.864 148.564 27.92C148.564 27.976 148.564 28.0227 148.564 28.06C148.564 28.732 148.34 29.2547 147.892 29.628C147.462 29.9827 146.837 30.16 146.016 30.16ZM149.376 21.704C148.237 21.704 147.136 21.6293 146.072 21.48C145.026 21.312 144 21.0413 142.992 20.668L143.664 18.988C145.232 18.988 146.566 18.9133 147.668 18.764C148.769 18.6147 150.234 18.3533 152.064 17.98C152.176 17.9613 152.278 17.9427 152.372 17.924C152.484 17.8867 152.596 17.8587 152.708 17.84C152.801 18.1573 152.848 18.5493 152.848 19.016C152.848 19.9307 152.512 20.612 151.84 21.06C151.186 21.4893 150.365 21.704 149.376 21.704Z" fill="black"/>
</svg>
