<svg width="224" height="70" viewBox="0 0 224 70" fill="none" xmlns="http://www.w3.org/2000/svg">
<path d="M8.7948 34.1629C10.2402 31.8987 12.2433 30.044 14.6118 28.7767C24.1222 23.2906 39.5419 23.2906 49.06 28.7767C51.4269 30.0462 53.4295 31.9004 54.877 34.1629H56.1928V39.1335C56.0158 42.596 53.6459 46.0585 49.0754 48.667C39.5573 54.1608 24.1376 54.1608 14.6272 48.667C10.049 46.0277 7.70218 42.596 7.49443 39.1335V34.1629H8.7948Z" fill="#BA68C8"/>
<path opacity="0.25" d="M8.7948 34.1629C10.2402 31.8987 12.2433 30.044 14.6118 28.7767C24.1222 23.2906 39.5419 23.2906 49.06 28.7767C51.4269 30.0462 53.4295 31.9004 54.877 34.1629H56.1928V39.1335C56.0158 42.596 53.6459 46.0585 49.0754 48.667C39.5573 54.1608 24.1376 54.1608 14.6272 48.667C10.049 46.0277 7.70218 42.596 7.49443 39.1335V34.1629H8.7948Z" fill="black"/>
<path opacity="0.1" d="M31.8321 24.6448C38.0646 24.6448 44.2971 26.0144 49.06 28.7613C51.4269 30.0308 53.4295 31.8851 54.877 34.1475H56.1928V39.1181C56.0158 42.5806 53.6459 46.0431 49.0754 48.6516C44.3125 51.3985 38.08 52.7681 31.8474 52.7681L31.8321 24.6448Z" fill="black"/>
<path opacity="0.1" d="M45.1358 26.9531C46.4902 27.459 47.8024 28.0713 49.06 28.7844C51.4269 30.0539 53.4295 31.9081 54.877 34.1706H56.1928V39.1412C56.0158 42.6037 53.6459 46.0662 49.0754 48.6747C47.8179 49.3903 46.5058 50.0052 45.1512 50.5136L45.1358 26.9531Z" fill="black"/>
<path opacity="0.5" d="M18.5283 26.9531C17.1758 27.4576 15.8661 28.07 14.6118 28.7844C12.2433 30.0517 10.2402 31.9064 8.79479 34.1706H7.47903V39.1412C7.64831 42.6037 10.0336 46.0662 14.6118 48.6747C15.8659 49.3917 17.1756 50.0067 18.5283 50.5136V26.9531Z" fill="#BA68C8"/>
<path d="M49.06 24.2216C58.5704 29.7078 58.5704 38.618 49.06 44.1041C40.7346 48.9132 27.8848 49.4903 18.4283 45.9123L18.0512 45.7661C16.8655 45.3004 15.7159 44.7474 14.6118 44.1118C6.67881 39.4951 5.37844 32.5701 10.6569 27.184C11.8332 26.0189 13.1608 25.0174 14.6041 24.2062C24.1222 18.7277 39.5419 18.7277 49.06 24.2216Z" fill="#BA68C8"/>
<path opacity="0.2" d="M49.06 24.2216C58.5704 29.7078 58.5704 38.618 49.06 44.1041C40.7346 48.9132 27.8848 49.4903 18.4283 45.9123L18.0512 45.7661C16.8655 45.3004 15.7159 44.7474 14.6118 44.1118C6.67881 39.4951 5.37844 32.5701 10.6569 27.184C11.8332 26.0189 13.1608 25.0174 14.6041 24.2062C24.1222 18.7277 39.5419 18.7277 49.06 24.2216Z" fill="black"/>
<path opacity="0.5" d="M10.6569 27.207C9.61921 28.3756 8.85169 29.7585 8.40885 31.2572C7.96601 32.756 7.85872 34.3338 8.09459 35.8787C8.94098 40.7186 15.7044 44.7812 18.0359 45.7584C16.8501 45.2927 15.7005 44.7397 14.5964 44.1041C6.67881 39.5259 5.36305 32.5778 10.6569 27.207Z" fill="#F5F5F5"/>
<path opacity="0.5" d="M53.0073 41.1187C54.0428 39.9476 54.8078 38.5628 55.248 37.0628C55.6882 35.5628 55.7927 33.9843 55.5541 32.4393C54.7154 27.6072 47.9443 23.5445 45.6129 22.5673C46.8004 23.0345 47.9525 23.5875 49.06 24.2216C56.9853 28.7998 58.3088 35.7479 53.0073 41.1187Z" fill="#F5F5F5"/>
<path d="M31.8398 47.2127C44.3462 47.2127 54.4846 41.3598 54.4846 34.1398C54.4846 26.9198 44.3462 21.0669 31.8398 21.0669C19.3333 21.0669 9.1949 26.9198 9.1949 34.1398C9.1949 41.3598 19.3333 47.2127 31.8398 47.2127Z" fill="#BA68C8"/>
<path opacity="0.4" d="M31.8398 47.2127C44.3462 47.2127 54.4846 41.3598 54.4846 34.1398C54.4846 26.9198 44.3462 21.0669 31.8398 21.0669C19.3333 21.0669 9.1949 26.9198 9.1949 34.1398C9.1949 41.3598 19.3333 47.2127 31.8398 47.2127Z" fill="white"/>
<path opacity="0.2" d="M10.226 38.0486C8.41007 34.6861 9.00254 30.9774 12.0034 27.8303C12.5951 27.2169 13.2387 26.6556 13.927 26.1529C14.5216 25.7113 15.1435 25.3079 15.7891 24.9449C16.1507 24.7294 16.52 24.5294 16.9048 24.337C15.966 25.8759 16.3046 27.5456 21.6369 27.8534C32.0783 28.4613 18.8515 38.441 18.8515 38.441C18.8515 38.441 12.0957 35.1939 10.226 38.0486Z" fill="white"/>
<path opacity="0.5" d="M11.3032 35.2863C9.76429 35.1093 8.99484 33.5012 9.57193 31.6929C10.149 29.8847 11.9418 28.5536 13.4807 28.7306C15.0196 28.9075 15.7891 30.5157 15.212 32.3239C14.6349 34.1321 12.8729 35.4632 11.3032 35.2863Z" fill="white"/>
<path d="M27.8155 43.5963C28.3234 39.7491 45.2666 28.9768 45.2666 28.9768C45.2666 28.9768 49.0215 27.4764 47.775 24.8449C48.4006 25.2051 49.0067 25.598 49.5909 26.0221C49.9756 26.2991 50.3604 26.5915 50.6912 26.8916C55.7311 31.2544 55.7388 36.9944 50.6912 41.3649C50.3418 41.6729 49.9772 41.963 49.5986 42.2344C49.0587 42.6311 48.4961 42.996 47.9135 43.327C47.3441 43.6655 46.744 43.981 46.1207 44.2734C45.6283 44.5043 45.1127 44.7274 44.5818 44.9274C44.0509 45.1275 43.5354 45.3275 42.9891 45.5045C41.3381 46.0387 39.6479 46.4426 37.9338 46.7126L36.8027 46.8818C35.1261 47.0949 33.4375 47.2003 31.7474 47.1973C29.6853 47.1935 27.6267 47.0236 25.5918 46.6895C25.5918 46.6895 28.3003 46.1893 27.8155 43.5963Z" fill="#BA68C8"/>
<path opacity="0.3" d="M27.8155 43.5963C28.3234 39.7491 45.2666 28.9768 45.2666 28.9768C45.2666 28.9768 49.0215 27.4764 47.775 24.8449C48.4006 25.2051 49.0067 25.598 49.5909 26.0221C49.9756 26.2991 50.3604 26.5915 50.6912 26.8916C55.7311 31.2544 55.7388 36.9944 50.6912 41.3649C50.3418 41.6729 49.9772 41.963 49.5986 42.2344C49.0587 42.6311 48.4961 42.996 47.9135 43.327C47.3441 43.6655 46.744 43.981 46.1207 44.2734C45.6283 44.5043 45.1127 44.7274 44.5818 44.9274C44.0509 45.1275 43.5354 45.3275 42.9891 45.5045C41.3381 46.0387 39.6479 46.4426 37.9338 46.7126L36.8027 46.8818C35.1261 47.0949 33.4375 47.2003 31.7474 47.1973C29.6853 47.1935 27.6267 47.0236 25.5918 46.6895C25.5918 46.6895 28.3003 46.1893 27.8155 43.5963Z" fill="white"/>
<path d="M43.7816 27.2532C50.0988 30.9081 50.3527 36.7251 44.551 40.5493C44.3048 40.7109 44.0432 40.8725 43.7816 41.0264C37.1951 44.8351 26.5152 44.8351 19.9287 41.0264C13.3422 37.2176 13.3422 31.0235 19.9287 27.2532C20.198 27.0993 20.475 26.9531 20.7597 26.8069C27.377 23.4598 37.4567 23.6061 43.7816 27.2532Z" fill="#BA68C8"/>
<path opacity="0.2" d="M43.7816 27.2532C50.0988 30.9081 50.3527 36.7251 44.551 40.5493C44.3048 40.7109 44.0432 40.8725 43.7816 41.0264C37.1951 44.8351 26.5152 44.8351 19.9287 41.0264C13.3422 37.2176 13.3422 31.0235 19.9287 27.2532C20.198 27.0993 20.475 26.9531 20.7597 26.8069C27.377 23.4598 37.4567 23.6061 43.7816 27.2532Z" fill="black"/>
<path d="M31.8398 43.4501C40.7468 43.4501 47.9674 39.2817 47.9674 34.1398C47.9674 28.9978 40.7468 24.8295 31.8398 24.8295C22.9327 24.8295 15.7121 28.9978 15.7121 34.1398C15.7121 39.2817 22.9327 43.4501 31.8398 43.4501Z" fill="#BA68C8"/>
<path opacity="0.5" d="M31.8398 43.4501C40.7468 43.4501 47.9674 39.2817 47.9674 34.1398C47.9674 28.9978 40.7468 24.8295 31.8398 24.8295C22.9327 24.8295 15.7121 28.9978 15.7121 34.1398C15.7121 39.2817 22.9327 43.4501 31.8398 43.4501Z" fill="black"/>
<path d="M43.243 30.154C36.9489 26.5222 26.7383 26.5222 20.4365 30.154C17.8666 31.6391 16.3431 33.5088 15.8737 35.4401C16.3431 37.3715 17.8666 39.2412 20.4365 40.7262C26.7383 44.358 36.9489 44.358 43.243 40.7262C45.7975 39.2643 47.3364 37.3715 47.8058 35.4171C47.3364 33.5088 45.7975 31.6391 43.243 30.154Z" fill="#BA68C8"/>
<path opacity="0.35" d="M43.243 30.154C36.9489 26.5222 26.7383 26.5222 20.4365 30.154C17.8666 31.6391 16.3431 33.5088 15.8737 35.4401C16.3431 37.3715 17.8666 39.2412 20.4365 40.7262C26.7383 44.358 36.9489 44.358 43.243 40.7262C45.7975 39.2643 47.3364 37.3715 47.8058 35.4171C47.3364 33.5088 45.7975 31.6391 43.243 30.154Z" fill="black"/>
<path d="M41.9965 36.956V35.0323C41.9965 34.2629 41.4502 33.4934 40.2729 32.7855C39.3003 32.2656 38.2333 31.9459 37.1351 31.8455C36.0368 31.745 34.9296 31.8658 33.8788 32.2008C33.0324 32.4162 32.2245 32.6932 31.4935 32.9702C30.6544 33.2742 29.799 33.531 28.9312 33.7397V33.7397C28.5329 33.8318 28.1241 33.8706 27.7155 33.8551C27.3647 33.8347 27.0217 33.7431 26.7075 33.5858L26.7845 33.5319L27.0384 33.378C27.2569 33.2514 27.4831 33.1383 27.7155 33.0395C28.2783 32.7906 28.8847 32.655 29.4999 32.6405C30.1151 32.626 30.7272 32.7328 31.3011 32.9548L33.371 30.8696V28.9614C31.547 28.339 29.5802 28.2668 27.7155 28.7536C27.0997 28.9129 26.4976 29.1214 25.915 29.3769L23.8529 28.1843L21.383 29.6077V31.5237L22.2293 32.0084C22.0041 32.3379 21.8786 32.7252 21.8677 33.1241V35.0323C21.8677 35.8018 22.4371 36.5712 23.6221 37.2714C24.6589 37.8777 25.8303 38.2161 27.0307 38.2563V38.2563C27.2588 38.2679 27.4874 38.2679 27.7155 38.2563C28.9657 38.1675 30.1979 37.9086 31.3781 37.4869L32.086 37.2407L29.9469 39.2643V41.1802C31.2301 41.6641 32.598 41.8828 33.9681 41.8233C35.3382 41.7638 36.682 41.4273 37.9184 40.834L39.9574 42.0112L42.4274 40.5878V38.6718L41.581 38.1794C41.8371 37.8215 41.9816 37.3958 41.9965 36.956V36.956ZM36.795 36.7867C36.609 36.8963 36.4163 36.994 36.2179 37.0791C34.9335 37.6274 33.4846 37.6467 32.186 37.1329C34.1173 36.4558 35.7332 35.8556 37.1028 36.5866C37.0053 36.6585 36.9024 36.7228 36.795 36.779V36.7867Z" fill="#BA68C8"/>
<path d="M33.8403 32.17C32.9939 32.3854 32.186 32.6624 31.455 32.9394C30.6159 33.2434 29.7605 33.5003 28.8928 33.7089V33.7089C28.4944 33.801 28.0856 33.8398 27.677 33.8243C27.2643 33.8027 26.863 33.6812 26.5075 33.4704C25.738 33.0164 25.5918 32.347 26.746 31.5852L26.9999 31.4313C27.2185 31.3047 27.4446 31.1916 27.677 31.0928C28.2394 30.8414 28.8463 30.7051 29.4621 30.6919C30.0779 30.6787 30.6901 30.7888 31.2627 31.0158L33.3325 28.9306C31.5085 28.3082 29.5418 28.236 27.677 28.7229C27.0612 28.8822 26.4591 29.0906 25.8765 29.3461L23.8144 28.1535L21.3445 29.577L23.3912 30.7542C21.3214 32.3316 21.2752 33.9628 23.6067 35.317C24.6439 35.9212 25.8155 36.257 27.0153 36.2942H27.7001C28.9508 36.2091 30.1835 35.9501 31.3627 35.5248C33.7249 34.7553 35.6485 33.8012 37.2413 34.7169C38.3108 35.3401 38.0107 36.1096 36.8412 36.7867C36.6552 36.8963 36.4625 36.994 36.2641 37.0791C35.6137 37.3525 34.9152 37.4933 34.2097 37.4933C33.5041 37.4933 32.8057 37.3525 32.1552 37.0791L29.9469 39.2643C31.2301 39.7482 32.598 39.9669 33.9681 39.9074C35.3382 39.8479 36.682 39.5113 37.9184 38.918L39.9574 40.0953L42.4274 38.6718L40.4114 37.5023C42.4581 35.9095 42.7198 34.186 40.296 32.7779C39.3168 32.2457 38.2399 31.9175 37.1304 31.813C36.0208 31.7085 34.9016 31.8299 33.8403 32.17V32.17Z" fill="#BA68C8"/>
<g opacity="0.3">
<path opacity="0.3" d="M33.8403 32.17C32.9939 32.3854 32.186 32.6624 31.455 32.9394C30.6159 33.2434 29.7605 33.5003 28.8928 33.7089V33.7089C28.4944 33.801 28.0856 33.8398 27.677 33.8243C27.2643 33.8027 26.863 33.6812 26.5075 33.4704C25.738 33.0164 25.5918 32.347 26.746 31.5852L26.9999 31.4313C27.2185 31.3047 27.4446 31.1916 27.677 31.0928C28.2394 30.8414 28.8463 30.7051 29.4621 30.6919C30.0779 30.6787 30.6901 30.7888 31.2627 31.0158L33.3325 28.9306C31.5085 28.3082 29.5418 28.236 27.677 28.7229C27.0612 28.8822 26.4591 29.0906 25.8765 29.3461L23.8144 28.1535L21.3445 29.577L23.3912 30.7542C21.3214 32.3316 21.2752 33.9628 23.6067 35.317C24.6439 35.9212 25.8155 36.257 27.0153 36.2942H27.7001C28.9508 36.2091 30.1835 35.9501 31.3627 35.5248C33.7249 34.7553 35.6485 33.8012 37.2413 34.7169C38.3108 35.3401 38.0107 36.1096 36.8412 36.7867C36.6552 36.8963 36.4625 36.994 36.2641 37.0791C35.6137 37.3525 34.9152 37.4933 34.2097 37.4933C33.5041 37.4933 32.8057 37.3525 32.1552 37.0791L29.9469 39.2643C31.2301 39.7482 32.598 39.9669 33.9681 39.9074C35.3382 39.8479 36.682 39.5113 37.9184 38.918L39.9574 40.0953L42.4274 38.6718L40.4114 37.5023C42.4581 35.9095 42.7198 34.186 40.296 32.7779C39.3168 32.2457 38.2399 31.9175 37.1304 31.813C36.0208 31.7085 34.9016 31.8299 33.8403 32.17V32.17Z" fill="white"/>
</g>
<path opacity="0.45" d="M21.3214 29.577L23.8144 28.4459L25.8535 29.3461L23.7913 28.1535L21.3214 29.577Z" fill="#F5F5F5"/>
<path opacity="0.45" d="M27.3693 28.7998C29.1264 28.4489 30.9409 28.5095 32.6708 28.9768L31.2396 31.0158L33.3094 28.9306C31.3902 28.2756 29.3154 28.2299 27.3693 28.7998V28.7998Z" fill="#F5F5F5"/>
<path opacity="0.45" d="M40.2344 32.7548C42.6351 34.1629 42.3966 35.8864 40.3498 37.4792C42.1657 35.494 41.8349 34.1167 39.8574 32.9779C37.9901 32.0267 35.8563 31.7339 33.8018 32.1469C34.8598 31.8101 35.9748 31.6903 37.0801 31.7948C38.1855 31.8992 39.2583 32.2258 40.2344 32.7548V32.7548Z" fill="#F5F5F5"/>
<path opacity="0.45" d="M40.3883 37.5023L41.9503 38.7026L39.9574 40.103L42.4274 38.6795L40.3883 37.5023Z" fill="#F5F5F5"/>
<path opacity="0.45" d="M36.2179 37.0714C34.9993 37.6845 33.5916 37.8057 32.286 37.4099L29.9777 39.272L32.1398 37.0945C32.7875 37.36 33.4812 37.4947 34.1812 37.4907C34.8811 37.4868 35.5733 37.3442 36.2179 37.0714V37.0714Z" fill="#F5F5F5"/>
<path opacity="0.45" d="M28.8697 33.7089C28.3905 33.9023 27.8719 33.9773 27.3575 33.9278C26.8432 33.8782 26.3484 33.7055 25.915 33.4242C25.2071 32.8163 25.6611 32.1546 26.6845 31.5852C25.5303 32.3547 25.6457 33.0164 26.4459 33.4704C26.8014 33.6812 27.2027 33.8027 27.6155 33.8243C28.0369 33.8433 28.4589 33.8045 28.8697 33.7089V33.7089Z" fill="#F5F5F5"/>
<path opacity="0.45" d="M23.345 30.8004C23.1758 30.9543 21.6907 32.3393 22.3448 33.7243C22.9988 35.1093 25.2148 36.148 26.9614 36.3404C25.7616 36.3032 24.5901 35.9673 23.5528 35.3632C21.2291 33.9782 21.2752 32.3393 23.345 30.8004Z" fill="#F5F5F5"/>
<path d="M15.2274 28.7306C16.6723 26.4659 18.6755 24.6111 21.0444 23.3444C30.5548 17.8506 45.9822 17.8506 55.4926 23.3444C57.8615 24.6111 59.8647 26.4659 61.3096 28.7306H62.6254V33.7089C62.4484 37.1637 60.0785 40.6339 55.508 43.2346C45.9976 48.7285 30.5702 48.7285 21.0598 43.2346C16.4893 40.5954 14.1348 37.1637 13.927 33.7089V28.7306H15.2274Z" fill="#BA68C8"/>
<path opacity="0.25" d="M15.2274 28.7306C16.6723 26.4659 18.6755 24.6111 21.0444 23.3444C30.5548 17.8506 45.9822 17.8506 55.4926 23.3444C57.8615 24.6111 59.8647 26.4659 61.3096 28.7306H62.6254V33.7089C62.4484 37.1637 60.0785 40.6339 55.508 43.2346C45.9976 48.7285 30.5702 48.7285 21.0598 43.2346C16.4893 40.5954 14.1348 37.1637 13.927 33.7089V28.7306H15.2274Z" fill="black"/>
<path opacity="0.1" d="M38.2646 19.2587C44.5049 19.2587 50.7374 20.636 55.4926 23.3829C57.8615 24.6496 59.8647 26.5044 61.3096 28.769H62.6254V33.7473C62.4484 37.2022 60.0785 40.6724 55.508 43.2731C50.7528 46.02 44.5203 47.3974 38.28 47.3974L38.2646 19.2587Z" fill="black"/>
<path opacity="0.1" d="M51.5684 21.5131C52.9256 22.0153 54.2382 22.6305 55.4926 23.3521C57.8615 24.6188 59.8647 26.4736 61.3096 28.7383H62.6254V33.7166C62.4484 37.1714 60.0785 40.6416 55.508 43.2424C54.2536 43.964 52.941 44.5791 51.5838 45.0813L51.5684 21.5131Z" fill="black"/>
<path opacity="0.5" d="M24.9686 21.5131C23.6114 22.0153 22.2987 22.6305 21.0444 23.3521C18.6755 24.6188 16.6723 26.4736 15.2274 28.7383H13.9116V33.7166C14.0886 37.1714 16.4739 40.6416 21.0444 43.2424C22.2987 43.964 23.6114 44.5791 24.9686 45.0813V21.5131Z" fill="#BA68C8"/>
<path d="M55.4926 18.7893C65.003 24.2832 65.003 33.1857 55.4926 38.6795C47.1672 43.4809 34.3251 44.0657 24.8686 40.48L24.4915 40.3339C23.304 39.8665 22.1519 39.3136 21.0444 38.6795C13.1114 34.0628 11.811 27.1378 17.0971 21.7517C18.2725 20.5833 19.6002 19.5791 21.0444 18.7662C30.5548 13.2954 45.9822 13.2955 55.4926 18.7893Z" fill="#BA68C8"/>
<path opacity="0.2" d="M55.4926 18.7893C65.003 24.2832 65.003 33.1857 55.4926 38.6795C47.1672 43.4809 34.3251 44.0657 24.8686 40.48L24.4915 40.3339C23.304 39.8665 22.1519 39.3136 21.0444 38.6795C13.1114 34.0628 11.811 27.1378 17.0971 21.7517C18.2725 20.5833 19.6002 19.5791 21.0444 18.7662C30.5548 13.2954 45.9822 13.2955 55.4926 18.7893Z" fill="black"/>
<path opacity="0.5" d="M17.0971 21.7747C16.0598 22.9449 15.293 24.3293 14.8515 25.8294C14.41 27.3296 14.3045 28.9086 14.5426 30.4541C15.389 35.2862 22.1524 39.3566 24.4915 40.3338C23.304 39.8665 22.1519 39.3135 21.0444 38.6795C13.1114 34.0936 11.7956 27.1455 17.0971 21.7747Z" fill="#F5F5F5"/>
<path opacity="0.5" d="M59.4399 35.6864C60.4771 34.5177 61.2437 33.1346 61.6853 31.6357C62.1268 30.1369 62.2324 28.559 61.9944 27.0147C61.148 22.1825 54.3769 18.1122 52.0455 17.135C53.2344 17.5992 54.3867 18.1522 55.4926 18.7893C63.4256 23.3675 64.7413 30.3233 59.4399 35.6864Z" fill="#F5F5F5"/>
<path d="M22.2678 37.9562C13.4269 32.8548 13.4269 24.5755 22.2678 19.4895C31.1088 14.4034 45.4436 14.388 54.2922 19.4895C63.1409 24.5909 63.1332 32.8779 54.2922 37.9562C45.4513 43.0346 31.1088 43.0654 22.2678 37.9562Z" fill="#BA68C8"/>
<path opacity="0.4" d="M22.2678 37.9562C13.4269 32.8548 13.4269 24.5755 22.2678 19.4895C31.1088 14.4034 45.4436 14.388 54.2922 19.4895C63.1409 24.5909 63.1332 32.8779 54.2922 37.9562C45.4513 43.0346 31.1088 43.0654 22.2678 37.9562Z" fill="white"/>
<path opacity="0.2" d="M16.6662 32.6163C14.8426 29.2538 15.4351 25.545 18.4437 22.398C19.0349 21.7869 19.6757 21.2258 20.3596 20.7206C20.9455 20.2819 21.557 19.8785 22.1909 19.5126C22.5525 19.2971 22.9603 19.0971 23.3066 18.9047C22.3678 20.4436 22.7141 22.1133 28.0464 22.4288C38.4801 23.0366 25.2533 33.0087 25.2533 33.0087C25.2533 33.0087 18.5283 29.7616 16.6662 32.6163Z" fill="white"/>
<path opacity="0.5" d="M17.7435 29.8616C16.2046 29.6847 15.4351 28.0765 16.0045 26.2606C16.5739 24.4447 18.3821 23.1213 19.9441 23.2983C21.5061 23.4752 22.2524 25.0834 21.6753 26.8993C21.0983 28.7152 19.3054 30.0309 17.7435 29.8616Z" fill="white"/>
<path d="M34.2558 38.1717C34.7713 34.3244 51.7069 23.5522 51.7069 23.5522C51.7069 23.5522 55.4695 22.0133 54.2153 19.4202C54.8435 19.7733 55.4499 20.1639 56.0312 20.5898C56.4236 20.8745 56.8006 21.1592 57.1315 21.4593C62.1714 25.8297 62.1791 31.5621 57.1315 35.9326C56.7853 36.2327 56.4236 36.5251 56.0312 36.8098C55.508 37.1868 54.954 37.5792 54.3538 37.9024C53.7536 38.2256 53.1765 38.5487 52.5533 38.8411C52.0608 39.072 51.5453 39.2951 51.0144 39.4951C50.4835 39.6952 49.9679 39.8952 49.4293 40.0722C47.7784 40.6081 46.0882 41.0146 44.3741 41.288C43.997 41.3495 43.6046 41.4034 43.2353 41.4495C41.5591 41.6669 39.8702 41.7723 38.18 41.765C36.1176 41.7657 34.0588 41.5959 32.0244 41.2572C32.0244 41.2572 34.7329 40.7185 34.2558 38.1717Z" fill="#BA68C8"/>
<path opacity="0.3" d="M34.2558 38.1717C34.7713 34.3244 51.7069 23.5522 51.7069 23.5522C51.7069 23.5522 55.4695 22.0133 54.2153 19.4202C54.8435 19.7733 55.4499 20.1639 56.0312 20.5898C56.4236 20.8745 56.8006 21.1592 57.1315 21.4593C62.1714 25.8297 62.1791 31.5621 57.1315 35.9326C56.7853 36.2327 56.4236 36.5251 56.0312 36.8098C55.508 37.1868 54.954 37.5792 54.3538 37.9024C53.7536 38.2256 53.1765 38.5487 52.5533 38.8411C52.0608 39.072 51.5453 39.2951 51.0144 39.4951C50.4835 39.6952 49.9679 39.8952 49.4293 40.0722C47.7784 40.6081 46.0882 41.0146 44.3741 41.288C43.997 41.3495 43.6046 41.4034 43.2353 41.4495C41.5591 41.6669 39.8702 41.7723 38.18 41.765C36.1176 41.7657 34.0588 41.5959 32.0244 41.2572C32.0244 41.2572 34.7329 40.7185 34.2558 38.1717Z" fill="white"/>
<path d="M50.2142 21.8286C56.5313 25.4758 56.7853 31.2928 50.9836 35.1247C50.7374 35.2862 50.4835 35.4478 50.2142 35.6017C43.62 39.4028 32.9478 39.4028 26.3613 35.6017C19.7748 31.8006 19.7671 25.5989 26.3613 21.8286C26.6306 21.6747 26.9076 21.5208 27.1923 21.3823C33.8095 18.0275 43.897 18.1814 50.2142 21.8286Z" fill="#BA68C8"/>
<path opacity="0.2" d="M50.2142 21.8286C56.5313 25.4758 56.7853 31.2928 50.9836 35.1247C50.7374 35.2862 50.4835 35.4478 50.2142 35.6017C43.62 39.4028 32.9478 39.4028 26.3613 35.6017C19.7748 31.8006 19.7671 25.5989 26.3613 21.8286C26.6306 21.6747 26.9076 21.5208 27.1923 21.3823C33.8095 18.0275 43.897 18.1814 50.2142 21.8286Z" fill="black"/>
<path d="M38.28 38.0255C47.1871 38.0255 54.4077 33.8571 54.4077 28.7152C54.4077 23.5732 47.1871 19.4049 38.28 19.4049C29.373 19.4049 22.1524 23.5732 22.1524 28.7152C22.1524 33.8571 29.373 38.0255 38.28 38.0255Z" fill="#BA68C8"/>
<path opacity="0.5" d="M38.28 38.0255C47.1871 38.0255 54.4077 33.8571 54.4077 28.7152C54.4077 23.5732 47.1871 19.4049 38.28 19.4049C29.373 19.4049 22.1524 23.5732 22.1524 28.7152C22.1524 33.8571 29.373 38.0255 38.28 38.0255Z" fill="black"/>
<path d="M49.6448 24.7294C43.3507 21.0899 33.1401 21.0899 26.846 24.7294C24.2684 26.2145 22.7526 28.0765 22.2832 30.0079C22.7526 31.9469 24.2684 33.8089 26.846 35.294C33.1401 38.9334 43.3507 38.9334 49.6448 35.294C52.2224 33.8089 53.7459 31.9469 54.2153 30.0079C53.7767 28.0765 52.2532 26.1837 49.6448 24.7294Z" fill="#BA68C8"/>
<path opacity="0.35" d="M49.6448 24.7294C43.3507 21.0899 33.1401 21.0899 26.846 24.7294C24.2684 26.2145 22.7526 28.0765 22.2832 30.0079C22.7526 31.9469 24.2684 33.8089 26.846 35.294C33.1401 38.9334 43.3507 38.9334 49.6448 35.294C52.2224 33.8089 53.7459 31.9469 54.2153 30.0079C53.7767 28.0765 52.2532 26.1837 49.6448 24.7294Z" fill="black"/>
<path d="M48.4291 31.516C48.4291 31.2005 48.4291 29.9232 48.4291 29.5923C48.4291 28.8229 47.8827 28.0534 46.7132 27.3532H46.667C45.6937 26.8353 44.6268 26.5168 43.5289 26.4164C42.431 26.316 41.324 26.4357 40.2729 26.7685V26.7685C39.4265 26.9762 38.6186 27.2532 37.8876 27.5379C37.049 27.8435 36.1935 28.1004 35.3254 28.3074V28.3074C34.9251 28.4036 34.5132 28.4424 34.1019 28.4228C33.7506 28.406 33.4069 28.3142 33.094 28.1535L33.1786 28.0996L33.4325 27.9457C33.6476 27.8177 33.8713 27.7046 34.1019 27.6072C34.6642 27.3558 35.2712 27.2195 35.887 27.2063C36.5028 27.1931 37.115 27.3032 37.6876 27.5302L39.742 25.4142V23.4983C37.9173 22.88 35.9517 22.8078 34.0865 23.2906C33.4728 23.4487 32.8732 23.6572 32.2937 23.9138L30.2239 22.7212L27.754 24.1447V26.0606L28.6004 26.5453C28.3764 26.8754 28.2509 27.2623 28.2387 27.661C28.2387 27.9842 28.2387 29.2538 28.2387 29.577C28.2387 30.3464 28.8081 31.1159 30.0008 31.8161C31.0353 32.4202 32.2044 32.7561 33.4017 32.7932V32.7932C33.6249 32.7932 33.8557 32.7932 34.0788 32.7932C35.3296 32.7089 36.5624 32.4499 37.7414 32.0238L38.4493 31.7776L36.3795 33.8782V35.7941C37.6647 36.2732 39.0338 36.4868 40.4039 36.422C41.7739 36.3572 43.1167 36.0153 44.351 35.4171L46.3977 36.5943L48.8599 35.1708V33.2549L48.0135 32.7702C48.2755 32.4036 48.4203 31.9664 48.4291 31.516ZM43.2276 31.3544C43.0352 31.4621 42.8506 31.5544 42.6582 31.6391C41.372 32.1895 39.9209 32.2116 38.6186 31.7006C40.5499 31.0158 42.1657 30.4233 43.5431 31.1543L43.2276 31.3544Z" fill="#BA68C8"/>
<path d="M40.2729 26.7377C39.4265 26.9454 38.6186 27.2224 37.8876 27.5071C37.049 27.8127 36.1935 28.0696 35.3253 28.2766V28.2766C34.9251 28.3728 34.5131 28.4116 34.1019 28.392C33.6898 28.373 33.2884 28.2542 32.9324 28.0458C32.1629 27.5841 32.0244 26.9147 33.1786 26.1606L33.4325 25.999C33.6477 25.8734 33.8714 25.7628 34.1019 25.6681C34.6648 25.4193 35.2711 25.2837 35.8863 25.2692C36.5015 25.2547 37.1136 25.3615 37.6876 25.5835L39.7574 23.4983C37.9326 22.88 35.9671 22.8078 34.1019 23.2906C33.4882 23.4487 32.8886 23.6572 32.3091 23.9138L30.2393 22.7212L27.7694 24.1447L29.8161 25.3296C27.7386 26.8685 27.7001 28.5382 30.0315 29.8847C31.066 30.4888 32.2351 30.8247 33.4325 30.8619H34.1173C35.3681 30.7776 36.6009 30.5186 37.7799 30.0925C40.1498 29.323 42.0657 28.3689 43.6585 29.323C44.728 29.9386 44.4279 30.7157 43.2584 31.3928C43.066 31.5006 42.8813 31.5929 42.689 31.6776C42.038 31.9489 41.3398 32.0886 40.6345 32.0886C39.9293 32.0886 39.2311 31.9489 38.5801 31.6776L36.3795 33.8782C37.6622 34.3642 39.0304 34.5842 40.4008 34.5247C41.7713 34.4651 43.1152 34.1274 44.351 33.5319L46.39 34.6476L48.8753 33.2472L46.8363 32.07C48.8907 30.4849 49.1446 28.7536 46.7286 27.3532H46.6824C45.7092 26.8282 44.6407 26.5032 43.5399 26.3975C42.4391 26.2918 41.3283 26.4074 40.2729 26.7377V26.7377Z" fill="#BA68C8"/>
<g opacity="0.3">
<path opacity="0.3" d="M40.2729 26.7377C39.4265 26.9454 38.6186 27.2224 37.8876 27.5071C37.049 27.8127 36.1935 28.0696 35.3253 28.2766V28.2766C34.9251 28.3728 34.5131 28.4116 34.1019 28.392C33.6898 28.373 33.2884 28.2542 32.9324 28.0458C32.1629 27.5841 32.0244 26.9147 33.1786 26.1606L33.4325 25.999C33.6477 25.8734 33.8714 25.7628 34.1019 25.6681C34.6648 25.4193 35.2711 25.2837 35.8863 25.2692C36.5015 25.2547 37.1136 25.3615 37.6876 25.5835L39.7574 23.4983C37.9326 22.88 35.9671 22.8078 34.1019 23.2906C33.4882 23.4487 32.8886 23.6572 32.3091 23.9138L30.2393 22.7212L27.7694 24.1447L29.8161 25.3296C27.7386 26.8685 27.7001 28.5382 30.0315 29.8847C31.066 30.4888 32.2351 30.8247 33.4325 30.8619H34.1173C35.3681 30.7776 36.6009 30.5186 37.7799 30.0925C40.1498 29.323 42.0657 28.3689 43.6585 29.323C44.728 29.9386 44.4279 30.7157 43.2584 31.3928C43.066 31.5006 42.8813 31.5929 42.689 31.6776C42.038 31.9489 41.3398 32.0886 40.6345 32.0886C39.9293 32.0886 39.2311 31.9489 38.5801 31.6776L36.3795 33.8782C37.6622 34.3642 39.0304 34.5842 40.4008 34.5247C41.7713 34.4651 43.1152 34.1274 44.351 33.5319L46.39 34.6476L48.8753 33.2472L46.8363 32.07C48.8907 30.4849 49.1446 28.7536 46.7286 27.3532H46.6824C45.7092 26.8282 44.6407 26.5032 43.5399 26.3975C42.4391 26.2918 41.3283 26.4074 40.2729 26.7377V26.7377Z" fill="white"/>
</g>
<path opacity="0.45" d="M27.7617 24.1447L30.247 23.0136L32.2937 23.9138L30.2239 22.7212L27.7617 24.1447Z" fill="#F5F5F5"/>
<path opacity="0.45" d="M33.8018 23.3752C35.5584 23.0166 37.3747 23.0773 39.1033 23.5522L37.6722 25.5835L39.742 23.4983C37.8221 22.8453 35.7472 22.8023 33.8018 23.3752V23.3752Z" fill="#F5F5F5"/>
<path opacity="0.45" d="M46.667 27.3225H46.7132C49.1062 28.7229 48.8753 30.4541 46.8209 32.0392C48.6368 30.0617 48.3136 28.6767 46.3362 27.5379C44.465 26.5902 42.33 26.2976 40.2729 26.7069C41.326 26.3788 42.4341 26.2642 43.532 26.3699C44.63 26.4756 45.6958 26.7995 46.667 27.3225V27.3225Z" fill="#F5F5F5"/>
<path opacity="0.45" d="M46.8209 32.07L48.3829 33.2703L46.3977 34.6784L48.8599 33.2472L46.8209 32.07Z" fill="#F5F5F5"/>
<path opacity="0.45" d="M42.6582 31.6391C41.4399 32.2524 40.0331 32.3763 38.7263 31.9853L36.418 33.8397L38.5878 31.6699C39.8955 32.1974 41.3587 32.1863 42.6582 31.6391V31.6391Z" fill="#F5F5F5"/>
<path opacity="0.45" d="M35.31 28.2766C34.8318 28.473 34.3132 28.5504 33.7985 28.5022C33.2838 28.4539 32.7886 28.2814 32.3553 27.9996C31.6397 27.384 32.0937 26.73 33.1247 26.1606C31.9706 26.9301 32.086 27.5841 32.8785 28.0458C33.2346 28.2542 33.6359 28.373 34.0481 28.392C34.4721 28.4154 34.8972 28.3765 35.31 28.2766V28.2766Z" fill="#F5F5F5"/>
<path opacity="0.45" d="M29.7853 25.345C29.6084 25.4989 28.1233 26.8839 28.7774 28.2612C29.4314 29.6385 31.6551 30.685 33.394 30.8773C32.1967 30.8401 31.0276 30.5042 29.9931 29.9001C27.6693 28.5536 27.7078 26.9531 29.7853 25.345Z" fill="#F5F5F5"/>
<path d="M6.5557 23.1059C8.00591 20.8429 10.0111 18.9887 12.3804 17.7198C21.8908 12.2259 37.3105 12.2259 46.8209 17.7198C49.1902 18.9887 51.1954 20.8429 52.6456 23.1059H53.9614V28.0842C53.7921 31.539 51.4222 34.9708 46.844 37.61C37.3336 43.1038 21.9139 43.1038 12.4035 37.61C7.82528 34.9708 5.47847 31.539 5.26302 28.0842V23.1059H6.5557Z" fill="#BA68C8"/>
<path opacity="0.25" d="M6.5557 23.1059C8.00591 20.8429 10.0111 18.9887 12.3804 17.7198C21.8908 12.2259 37.3105 12.2259 46.8209 17.7198C49.1902 18.9887 51.1954 20.8429 52.6456 23.1059H53.9614V28.0842C53.7921 31.539 51.4222 34.9708 46.844 37.61C37.3336 43.1038 21.9139 43.1038 12.4035 37.61C7.82528 34.9708 5.47847 31.539 5.26302 28.0842V23.1059H6.5557Z" fill="black"/>
<path opacity="0.1" d="M29.5853 13.5647C35.8178 13.5647 42.0503 14.942 46.8055 17.689C49.1748 18.958 51.18 20.8122 52.6302 23.0751H53.946V28.0534C53.7767 31.5083 51.4068 34.94 46.8286 37.5792C42.0734 40.3261 35.8409 41.7035 29.6083 41.7035L29.5853 13.5647Z" fill="black"/>
<path opacity="0.1" d="M42.889 15.85C44.2441 16.3637 45.5541 16.9891 46.8055 17.7198C49.1748 18.9887 51.18 20.8429 52.6302 23.1059H53.946V28.0842C53.7767 31.539 51.4068 34.9708 46.8286 37.61C45.5761 38.3301 44.2661 38.9452 42.9121 39.449L42.889 15.85Z" fill="black"/>
<path opacity="0.5" d="M16.2815 15.85C14.9265 16.3637 13.6165 16.9891 12.365 17.7198C10.0013 18.9909 8.00164 20.8449 6.5557 23.1059H5.22456V28.0842C5.40153 31.539 7.78682 34.9708 12.365 37.61C13.6175 38.3301 14.9275 38.9452 16.2815 39.449V15.85Z" fill="#BA68C8"/>
<path d="M46.8132 13.1031C56.3236 18.5969 56.3236 27.4995 46.8132 32.9933C38.4878 37.7947 25.638 38.3794 16.1815 34.7938L15.7891 34.6476C14.6047 34.1787 13.4553 33.6258 12.3496 32.9933C4.41663 28.3766 3.11626 21.4516 8.39467 16.0655C9.57753 14.9024 10.9132 13.9058 12.365 13.1031C21.8754 7.63231 37.3336 7.63231 46.8132 13.1031Z" fill="#BA68C8"/>
<path opacity="0.2" d="M46.8132 13.1031C56.3236 18.5969 56.3236 27.4995 46.8132 32.9933C38.4878 37.7947 25.638 38.3794 16.1815 34.7938L15.7891 34.6476C14.6047 34.1787 13.4553 33.6258 12.3496 32.9933C4.41663 28.3766 3.11626 21.4516 8.39467 16.0655C9.57753 14.9024 10.9132 13.9058 12.365 13.1031C21.8754 7.63231 37.3336 7.63231 46.8132 13.1031Z" fill="black"/>
<path opacity="0.5" d="M8.41007 16.1116C7.37451 17.2827 6.60949 18.6674 6.16932 20.1674C5.72916 21.6675 5.62464 23.246 5.86319 24.791C6.70189 29.6231 13.4807 33.6935 15.7891 34.6476C14.6047 34.1787 13.4553 33.6258 12.3496 32.9933C4.43202 28.4305 3.10857 21.4824 8.41007 16.1116Z" fill="#F5F5F5"/>
<path opacity="0.5" d="M50.7605 30.0309C51.7954 28.861 52.5601 27.4776 53.0003 25.9789C53.4404 24.4802 53.5453 22.903 53.3074 21.3593C52.4687 16.5271 45.6975 12.4567 43.3661 11.4795C44.5509 11.9354 45.7006 12.478 46.8055 13.1031C54.7385 17.7198 56.062 24.6448 50.7605 30.0309Z" fill="#F5F5F5"/>
<path d="M13.5808 32.2931C4.7398 27.1917 4.7398 18.9124 13.5808 13.8264C22.4217 8.74031 36.7565 8.72492 45.5975 13.8264C54.4384 18.9278 54.4384 27.2148 45.5975 32.2931C36.7565 37.3715 22.4294 37.4022 13.5808 32.2931Z" fill="#BA68C8"/>
<path opacity="0.4" d="M13.5808 32.2931C4.7398 27.1917 4.7398 18.9124 13.5808 13.8264C22.4217 8.74031 36.7565 8.72492 45.5975 13.8264C54.4384 18.9278 54.4384 27.2148 45.5975 32.2931C36.7565 37.3715 22.4294 37.4022 13.5808 32.2931Z" fill="white"/>
<path opacity="0.2" d="M7.97917 26.9531C6.16328 23.5906 6.75575 19.8819 9.7566 16.7349C10.3506 16.1238 10.994 15.5628 11.6802 15.0575C12.2555 14.626 12.8568 14.2302 13.4807 13.8725C13.8424 13.6571 14.2502 13.457 14.5964 13.2646C13.65 14.8035 13.9963 16.4733 19.3285 16.7887C29.7699 17.3966 16.5431 27.3686 16.5431 27.3686C16.5431 27.3686 9.84893 24.0985 7.97917 26.9531Z" fill="white"/>
<path opacity="0.5" d="M9.0564 24.1985C7.51751 24.0215 6.74806 22.4134 7.32515 20.5975C7.90223 18.7816 9.69505 17.4582 11.2647 17.6351C12.8344 17.8121 13.5731 19.4202 12.996 21.2361C12.4189 23.052 10.6261 24.3678 9.0564 24.1985Z" fill="white"/>
<path d="M25.5611 32.5085C26.0766 28.6613 43.0198 17.889 43.0198 17.889C43.0198 17.889 46.7747 16.3501 45.5282 13.7571C46.1544 14.1152 46.7582 14.5109 47.3364 14.9421C47.7289 15.2268 48.1059 15.5114 48.4367 15.8115C53.4843 20.182 53.492 25.9144 48.4367 30.2848C48.0982 30.5849 47.7289 30.8773 47.3364 31.162C46.8209 31.539 46.2592 31.9315 45.659 32.2546C45.0589 32.5778 44.4818 32.901 43.8662 33.1933C43.3738 33.4242 42.8582 33.6473 42.3273 33.8474C41.7964 34.0474 41.2732 34.2475 40.7346 34.4245C39.0839 34.9612 37.3936 35.3677 35.6793 35.6402L34.5482 35.8018C32.872 36.0187 31.1832 36.1241 29.4929 36.1173C27.4306 36.1172 25.3718 35.9474 23.3374 35.6094C23.3374 35.6094 26.0458 35.0554 25.5611 32.5085Z" fill="#BA68C8"/>
<path opacity="0.3" d="M25.5611 32.5085C26.0766 28.6613 43.0198 17.889 43.0198 17.889C43.0198 17.889 46.7747 16.3501 45.5282 13.7571C46.1544 14.1152 46.7582 14.5109 47.3364 14.9421C47.7289 15.2268 48.1059 15.5114 48.4367 15.8115C53.4843 20.182 53.492 25.9144 48.4367 30.2848C48.0982 30.5849 47.7289 30.8773 47.3364 31.162C46.8209 31.539 46.2592 31.9315 45.659 32.2546C45.0589 32.5778 44.4818 32.901 43.8662 33.1933C43.3738 33.4242 42.8582 33.6473 42.3273 33.8474C41.7964 34.0474 41.2732 34.2475 40.7346 34.4245C39.0839 34.9612 37.3936 35.3677 35.6793 35.6402L34.5482 35.8018C32.872 36.0187 31.1832 36.1241 29.4929 36.1173C27.4306 36.1172 25.3718 35.9474 23.3374 35.6094C23.3374 35.6094 26.0458 35.0554 25.5611 32.5085Z" fill="white"/>
<path d="M41.5271 16.1809C47.852 19.8281 48.1059 25.6451 42.2966 29.4769C42.0503 29.6385 41.7887 29.8001 41.5271 29.954C34.9406 33.7551 24.2607 33.7551 17.6742 29.954C11.0877 26.1529 11.0877 19.9512 17.6742 16.1809C17.9435 16.027 18.2205 15.8731 18.4975 15.7346C25.1302 12.3336 35.2099 12.5183 41.5271 16.1809Z" fill="#BA68C8"/>
<path opacity="0.2" d="M41.5271 16.1809C47.852 19.8281 48.1059 25.6451 42.2966 29.4769C42.0503 29.6385 41.7887 29.8001 41.5271 29.954C34.9406 33.7551 24.2607 33.7551 17.6742 29.954C11.0877 26.1529 11.0877 19.9512 17.6742 16.1809C17.9435 16.027 18.2205 15.8731 18.4975 15.7346C25.1302 12.3336 35.2099 12.5183 41.5271 16.1809Z" fill="black"/>
<path d="M40.9962 16.4655C47.2903 20.105 47.2903 25.999 40.9962 29.6308C34.7021 33.2626 24.4915 33.2703 18.1897 29.6308C11.888 25.9913 11.8957 20.105 18.1897 16.4655C24.4838 12.8261 34.7021 12.8338 40.9962 16.4655Z" fill="#BA68C8"/>
<path opacity="0.5" d="M40.9962 16.4655C47.2903 20.105 47.2903 25.999 40.9962 29.6308C34.7021 33.2626 24.4915 33.2703 18.1897 29.6308C11.888 25.9913 11.8957 20.105 18.1897 16.4655C24.4838 12.8261 34.7021 12.8338 40.9962 16.4655Z" fill="black"/>
<path d="M40.9962 19.0663C34.7021 15.4268 24.4915 15.4268 18.1897 19.0663C15.6198 20.5513 14.0963 22.4134 13.6269 24.3447C14.0963 26.2837 15.6198 28.1458 18.1897 29.6308C24.4915 33.2703 34.7021 33.2703 40.9962 29.6308C43.5738 28.1458 45.0896 26.2837 45.559 24.3447C45.0896 22.4134 43.5738 20.5513 40.9962 19.0663Z" fill="#BA68C8"/>
<path opacity="0.35" d="M40.9962 19.0663C34.7021 15.4268 24.4915 15.4268 18.1897 19.0663C15.6198 20.5513 14.0963 22.4134 13.6269 24.3447C14.0963 26.2837 15.6198 28.1458 18.1897 29.6308C24.4915 33.2703 34.7021 33.2703 40.9962 29.6308C43.5738 28.1458 45.0896 26.2837 45.559 24.3447C45.0896 22.4134 43.5738 20.5513 40.9962 19.0663Z" fill="black"/>
<path d="M39.7497 25.8528V23.9292C39.7497 23.1598 39.2034 22.3903 38.0261 21.6901C38.0135 21.6869 38.0003 21.6869 37.9876 21.6901C37.0143 21.1722 35.9475 20.8537 34.8495 20.7533C33.7516 20.6529 32.6446 20.7725 31.5935 21.1053V21.1053C30.7471 21.3131 29.9392 21.5901 29.2082 21.8748C28.3693 22.1793 27.5139 22.4361 26.646 22.6442V22.6442C26.2476 22.7364 25.8388 22.7752 25.4303 22.7596C25.0795 22.7393 24.7365 22.6477 24.4223 22.4903L24.4992 22.4365L24.7531 22.2826C24.9709 22.1545 25.1971 22.0413 25.4303 21.944C25.9926 21.6927 26.5995 21.5564 27.2153 21.5431C27.8311 21.5299 28.4433 21.6401 29.0159 21.8671L31.078 19.7819V17.866C29.256 17.2474 27.2928 17.1751 25.4303 17.6582C24.8144 17.8175 24.2123 18.0259 23.6297 18.2815L21.5676 17.0888L19.0746 18.4892V20.4051L19.921 20.8899C19.6934 21.2181 19.5676 21.6062 19.5594 22.0056V23.9215C19.5594 24.691 20.1288 25.4604 21.3137 26.1606C22.351 26.7647 23.5226 27.1006 24.7224 27.1378H25.4072C26.6554 27.0534 27.8857 26.7944 29.062 26.3683L29.7776 26.1221L27.7001 28.2073V30.1233C28.9833 30.6071 30.3512 30.8259 31.7213 30.7664C33.0914 30.7069 34.4352 30.3703 35.6716 29.777L37.7106 30.9543L40.1806 29.5308V27.6148L39.3342 27.1301C39.5962 26.755 39.7408 26.3104 39.7497 25.8528V25.8528ZM34.5482 25.6912C34.3558 25.799 34.1635 25.8913 33.9711 25.9759C32.6877 26.5267 31.2388 26.5488 29.9392 26.0375C31.8705 25.3527 33.4864 24.7602 34.856 25.4912C34.7637 25.5604 34.6559 25.622 34.5482 25.6912Z" fill="#BA68C8"/>
<path d="M31.5935 21.0745C30.7471 21.2823 29.9392 21.5593 29.2082 21.844C28.3693 22.1485 27.5139 22.4054 26.646 22.6134C26.2476 22.7056 25.8388 22.7444 25.4303 22.7289C25.0159 22.7087 24.6123 22.59 24.253 22.3826C23.4836 21.9209 23.3451 21.2515 24.4992 20.4898L24.7531 20.3359C24.971 20.2102 25.1972 20.0996 25.4303 20.005C25.9931 19.7562 26.5994 19.6206 27.2147 19.6061C27.8299 19.5915 28.4419 19.6983 29.0159 19.9204L31.078 17.8352C29.256 17.2166 27.2928 17.1444 25.4303 17.6274C24.8144 17.7867 24.2123 17.9952 23.6297 18.2507L21.5676 17.058L19.0746 18.4892L21.1213 19.6665C19.0515 21.2054 19.0054 22.8751 21.3368 24.2216C22.3741 24.8257 23.5456 25.1616 24.7454 25.1988H25.4303C26.6785 25.1144 27.9088 24.8554 29.0851 24.4293C31.455 23.6599 33.371 22.7058 34.9714 23.6599C36.0409 24.2755 35.7409 25.0526 34.5713 25.7297C34.3789 25.8374 34.1866 25.9298 33.9942 26.0144C33.3433 26.2857 32.645 26.4254 31.9398 26.4254C31.2346 26.4254 30.5363 26.2857 29.8854 26.0144L27.7232 28.1843C29.006 28.6699 30.3742 28.8896 31.7445 28.8301C33.1149 28.7705 34.4588 28.433 35.6947 27.838L37.7337 29.0152L40.2037 27.5918L38.1031 26.4068C40.1575 24.8218 40.4114 23.0905 37.9953 21.6901C37.9827 21.6869 37.9695 21.6869 37.9569 21.6901C36.9898 21.1713 35.9293 20.8497 34.8369 20.744C33.7446 20.6383 32.6421 20.7507 31.5935 21.0745V21.0745Z" fill="#BA68C8"/>
<g opacity="0.3">
<path opacity="0.3" d="M31.5935 21.0745C30.7471 21.2823 29.9392 21.5593 29.2082 21.844C28.3693 22.1485 27.5139 22.4054 26.646 22.6134C26.2476 22.7056 25.8388 22.7444 25.4303 22.7289C25.0159 22.7087 24.6123 22.59 24.253 22.3826C23.4836 21.9209 23.3451 21.2515 24.4992 20.4898L24.7531 20.3359C24.971 20.2102 25.1972 20.0996 25.4303 20.005C25.9931 19.7562 26.5994 19.6206 27.2147 19.6061C27.8299 19.5915 28.4419 19.6983 29.0159 19.9204L31.078 17.8352C29.256 17.2166 27.2928 17.1444 25.4303 17.6274C24.8144 17.7867 24.2123 17.9952 23.6297 18.2507L21.5676 17.058L19.0746 18.4892L21.1213 19.6665C19.0515 21.2054 19.0054 22.8751 21.3368 24.2216C22.3741 24.8257 23.5456 25.1616 24.7454 25.1988H25.4303C26.6785 25.1144 27.9088 24.8554 29.0851 24.4293C31.455 23.6599 33.371 22.7058 34.9714 23.6599C36.0409 24.2755 35.7409 25.0526 34.5713 25.7297C34.3789 25.8374 34.1866 25.9298 33.9942 26.0144C33.3433 26.2857 32.645 26.4254 31.9398 26.4254C31.2346 26.4254 30.5363 26.2857 29.8854 26.0144L27.7232 28.1843C29.006 28.6699 30.3742 28.8896 31.7445 28.8301C33.1149 28.7705 34.4588 28.433 35.6947 27.838L37.7337 29.0152L40.2037 27.5918L38.1031 26.4068C40.1575 24.8218 40.4114 23.0905 37.9953 21.6901C37.9827 21.6869 37.9695 21.6869 37.9569 21.6901C36.9898 21.1713 35.9293 20.8497 34.8369 20.744C33.7446 20.6383 32.6421 20.7507 31.5935 21.0745V21.0745Z" fill="white"/>
</g>
<path opacity="0.45" d="M19.0746 18.4815L21.5676 17.3504L23.6067 18.2507L21.5445 17.058L19.0746 18.4815Z" fill="#F5F5F5"/>
<path opacity="0.45" d="M25.1225 17.7198C26.879 17.3612 28.6953 17.4218 30.424 17.8967L28.9928 19.9281L31.0626 17.8429C29.1427 17.1898 27.0678 17.1468 25.1225 17.7198Z" fill="#F5F5F5"/>
<path opacity="0.45" d="M37.9876 21.6593C38.0003 21.6561 38.0135 21.6561 38.0261 21.6593C40.4268 23.0597 40.1883 24.791 38.1338 26.3761C39.9574 24.3986 39.6266 23.0136 37.6491 21.8748C35.7807 20.9271 33.6481 20.6345 31.5935 21.0438C32.6467 20.7157 33.7547 20.6011 34.8527 20.7068C35.9506 20.8125 37.0165 21.1363 37.9876 21.6593V21.6593Z" fill="#F5F5F5"/>
<path opacity="0.45" d="M38.1338 26.4068L39.7035 27.6148L37.7106 29.0152L40.1806 27.5841L38.1338 26.4068Z" fill="#F5F5F5"/>
<path opacity="0.45" d="M33.9711 25.9759C32.7525 26.589 31.3448 26.7102 30.0392 26.3145L27.7309 28.1766L29.893 26.0067C31.2029 26.5364 32.6694 26.5253 33.9711 25.9759V25.9759Z" fill="#F5F5F5"/>
<path opacity="0.45" d="M26.6229 22.6134C26.1448 22.8099 25.6261 22.8873 25.1114 22.839C24.5968 22.7908 24.1015 22.6183 23.6682 22.3364C22.9526 21.7209 23.4143 21.0669 24.4761 20.4898C23.322 21.2592 23.4374 21.9209 24.2299 22.3826C24.5892 22.59 24.9928 22.7087 25.4072 22.7289C25.8157 22.7444 26.2246 22.7056 26.6229 22.6134V22.6134Z" fill="#F5F5F5"/>
<path opacity="0.45" d="M21.0983 19.6818C20.9213 19.8357 19.4363 21.2207 20.098 22.5981C20.7597 23.9754 22.968 25.0218 24.7147 25.2142C23.5149 25.177 22.3433 24.8411 21.306 24.237C18.9823 22.8905 19.0284 21.2515 21.0983 19.6818Z" fill="#F5F5F5"/>
<path d="M8.07151 20.5898L8.68707 15.9346L9.30263 20.5898L17.3741 20.9437L9.30263 21.2977L8.68707 25.9605L8.07151 21.2977L0 20.9437L8.07151 20.5898Z" fill="white"/>
<path d="M44.5279 40.6724C46.4337 38.6807 48.7942 37.181 51.4068 36.3019C61.3096 32.824 73.7208 37.0714 79.1762 45.7661C80.6379 48.0372 81.4984 50.6426 81.6769 53.3375L82.7387 53.6992L80.7151 59.2161C79.1762 63.0095 75.8676 66.1411 71.1047 67.8339C61.2096 71.3118 48.7907 67.0644 43.3353 58.3697C40.7269 54.1839 40.196 49.7211 41.4655 45.8354L43.4892 40.3107L44.5279 40.6724Z" fill="#BA68C8"/>
<path opacity="0.25" d="M44.5279 40.6724C46.4337 38.6807 48.7942 37.181 51.4068 36.3019C61.3096 32.824 73.7208 37.0714 79.1762 45.7661C80.6379 48.0372 81.4984 50.6426 81.6769 53.3375L82.7387 53.6992L80.7151 59.2161C79.1762 63.0095 75.8676 66.1411 71.1047 67.8339C61.2096 71.3118 48.7907 67.0644 43.3353 58.3697C40.7269 54.1839 40.196 49.7211 41.4655 45.8354L43.4892 40.3107L44.5279 40.6724Z" fill="black"/>
<path opacity="0.1" d="M66.9651 36.4635C71.9752 38.0849 76.2826 41.3664 79.1762 45.7661C80.6379 48.0372 81.4984 50.6426 81.6769 53.3375L82.7387 53.6992L80.7151 59.2161C79.1762 63.0095 75.8676 66.1411 71.1047 67.8339C66.0435 69.5057 60.57 69.4461 55.5464 67.6646L66.9651 36.4635Z" fill="black"/>
<path opacity="0.1" d="M76.7601 42.6576C77.6657 43.6007 78.4751 44.6317 79.1762 45.7354C80.6379 48.0065 81.4984 50.6118 81.6769 53.3067L82.7387 53.6684L80.7151 59.1853C79.1762 62.9787 75.8676 66.1103 71.1047 67.8031C69.8376 68.2462 68.5314 68.5682 67.2036 68.7649L76.7601 42.6576Z" fill="black"/>
<path opacity="0.5" d="M55.3156 35.3401C53.9853 35.5368 52.6765 35.8588 51.4068 36.3019C48.7942 37.181 46.4337 38.6807 44.528 40.6724L43.4892 40.3107L41.4732 45.8277C40.2037 49.7134 40.7038 54.1762 43.343 58.362C44.0504 59.4612 44.8593 60.4917 45.7591 61.4398L55.3156 35.3401Z" fill="#BA68C8"/>
<path d="M81.0306 40.7109C86.4629 49.4133 82.8465 59.293 72.9437 62.7709C64.2797 65.8103 53.7075 62.9479 47.5519 56.3461L47.3133 56.0844C46.5303 55.2195 45.8249 54.2875 45.2051 53.299C40.673 46.0431 42.435 37.9639 48.8907 33.4704C50.245 32.5269 51.7236 31.776 53.2843 31.239C63.164 27.7688 75.5906 32.0007 81.0306 40.7109Z" fill="#BA68C8"/>
<path opacity="0.2" d="M81.0306 40.7109C86.4629 49.4133 82.8465 59.293 72.9437 62.7709C64.2797 65.8103 53.7075 62.9479 47.5519 56.3461L47.3133 56.0844C46.5303 55.2195 45.8249 54.2875 45.2051 53.299C40.673 46.0431 42.435 37.9639 48.8907 33.4704C50.245 32.5269 51.7236 31.776 53.2843 31.239C63.164 27.7688 75.5906 32.0007 81.0306 40.7109Z" fill="black"/>
<path opacity="0.5" d="M48.8753 33.4704C46.06 35.7291 44.0934 38.8755 43.2968 42.396C42.0119 47.9822 45.8129 54.3532 47.298 56.0844C46.515 55.2195 45.8095 54.2875 45.1897 53.299C40.6422 46.0431 42.4043 37.9639 48.8753 33.4704Z" fill="#F5F5F5"/>
<path opacity="0.5" d="M77.3449 60.5395C80.1603 58.2808 82.1268 55.1344 82.9234 51.6139C84.2084 46.0277 80.4073 39.6567 78.9223 37.9255C79.7053 38.7904 80.4108 39.7224 81.0306 40.7109C85.5626 47.9668 83.8006 56.046 77.3449 60.5395Z" fill="#F5F5F5"/>
<path d="M81.6158 52.4534C84.0371 44.2844 77.7196 35.2077 67.5053 32.1802C57.2909 29.1526 47.0477 33.3206 44.6263 41.4896C42.205 49.6587 48.5225 58.7353 58.7369 61.7629C68.9512 64.7905 79.1945 60.6225 81.6158 52.4534Z" fill="#BA68C8"/>
<path opacity="0.4" d="M81.6158 52.4534C84.0371 44.2844 77.7196 35.2077 67.5053 32.1802C57.2909 29.1526 47.0477 33.3206 44.6263 41.4896C42.205 49.6587 48.5225 58.7353 58.7369 61.7629C68.9512 64.7905 79.1945 60.6225 81.6158 52.4534Z" fill="white"/>
<path opacity="0.2" d="M44.1048 45.3737C44.0677 43.2458 44.5586 41.1418 45.5334 39.2499C46.5082 37.358 47.9366 35.7371 49.691 34.5322C50.3979 34.0272 51.1441 33.5795 51.9224 33.1933C52.5621 32.878 53.2198 32.6006 53.8921 32.3624C54.2692 32.2239 54.6616 32.1007 55.0386 31.993C53.6459 33.455 53.2535 35.3863 57.4239 37.2022C65.5877 40.7416 50.8759 48.1745 50.8759 48.1745C50.8759 48.1745 46.7747 42.7191 44.1048 45.3737Z" fill="white"/>
<path opacity="0.5" d="M46.0976 42.6114C44.905 41.9882 44.9358 39.9876 46.1592 38.1486C47.3826 36.3096 49.3524 35.317 50.5373 35.9403C51.7223 36.5635 51.6992 38.5641 50.4758 40.4108C49.2524 42.2575 47.2903 43.2347 46.0976 42.6114Z" fill="white"/>
<path d="M56.0235 56.3691C58.0164 52.2064 76.0291 44.9659 76.0291 44.9659C76.0291 44.9659 79.6763 44.3273 79.7379 41.0725C80.1017 41.6526 80.4306 42.2538 80.7228 42.873C80.9228 43.2885 81.0998 43.7117 81.2537 44.1349C83.562 50.3674 81.2152 56.7308 75.3674 60.1933C74.9673 60.4318 74.5595 60.6473 74.1286 60.855C73.5428 61.1439 72.9418 61.4008 72.3281 61.6245C71.7286 61.8414 71.1172 62.0238 70.4968 62.1708C70.0044 62.2939 69.5042 62.4016 69.0041 62.4862C68.504 62.5709 67.9961 62.6324 67.4652 62.6786C65.9444 62.8235 64.4128 62.8106 62.8947 62.6401C62.5715 62.6017 62.2406 62.5632 61.9175 62.5093C60.4868 62.2869 59.0784 61.9393 57.7086 61.4706C56.0374 60.9007 54.4368 60.1417 52.938 59.2084C52.938 59.2084 55.3772 59.3238 56.0235 56.3691Z" fill="#BA68C8"/>
<path opacity="0.3" d="M56.0235 56.3691C58.0164 52.2064 76.0291 44.9659 76.0291 44.9659C76.0291 44.9659 79.6763 44.3273 79.7379 41.0725C80.1017 41.6526 80.4306 42.2538 80.7228 42.873C80.9228 43.2885 81.0998 43.7117 81.2537 44.1349C83.562 50.3674 81.2152 56.7308 75.3674 60.1933C74.9673 60.4318 74.5595 60.6473 74.1286 60.855C73.5428 61.1439 72.9418 61.4008 72.3281 61.6245C71.7286 61.8414 71.1172 62.0238 70.4968 62.1708C70.0044 62.2939 69.5042 62.4016 69.0041 62.4862C68.504 62.5709 67.9961 62.6324 67.4652 62.6786C65.9444 62.8235 64.4128 62.8106 62.8947 62.6401C62.5715 62.6017 62.2406 62.5632 61.9175 62.5093C60.4868 62.2869 59.0784 61.9393 57.7086 61.4706C56.0374 60.9007 54.4368 60.1417 52.938 59.2084C52.938 59.2084 55.3772 59.3238 56.0235 56.3691Z" fill="white"/>
<path d="M75.5367 42.6268C79.1531 48.413 76.991 54.938 70.7584 57.5849C70.4891 57.7003 70.2198 57.808 69.9428 57.9003C63.0793 60.3087 54.4769 57.3771 50.7066 51.3447C46.9363 45.3122 49.4447 38.4795 56.3005 36.0711C56.5775 35.9711 56.8622 35.8864 57.1469 35.8018C63.8642 33.8782 71.9588 36.8482 75.5367 42.6268Z" fill="#BA68C8"/>
<path opacity="0.2" d="M75.5367 42.6268C79.1531 48.413 76.991 54.938 70.7584 57.5849C70.4891 57.7003 70.2198 57.808 69.9428 57.9003C63.0793 60.3087 54.4769 57.3771 50.7066 51.3447C46.9363 45.3122 49.4447 38.4795 56.3005 36.0711C56.5775 35.9711 56.8622 35.8864 57.1469 35.8018C63.8642 33.8782 71.9588 36.8482 75.5367 42.6268Z" fill="black"/>
<path d="M74.9827 42.8192C78.5837 48.5823 76.183 55.1303 69.5966 57.4387C63.0101 59.747 54.8078 56.9385 51.2145 51.1754C47.6211 45.4122 50.0141 38.8642 56.6006 36.5559C63.1871 34.2475 71.3894 37.056 74.9827 42.8192Z" fill="#BA68C8"/>
<path opacity="0.5" d="M74.9827 42.8192C78.5837 48.5823 76.183 55.1303 69.5966 57.4387C63.0101 59.747 54.8078 56.9385 51.2145 51.1754C47.6211 45.4122 50.0141 38.8642 56.6006 36.5559C63.1871 34.2475 71.3894 37.056 74.9827 42.8192Z" fill="black"/>
<path d="M73.9286 45.6969C70.3275 39.9337 62.1021 37.1252 55.5465 39.4336C53.1111 40.2187 51.0421 41.8585 49.7217 44.0503C49.3223 46.5318 49.8717 49.0728 51.2606 51.1677C54.8539 56.9308 63.087 59.7393 69.6427 57.431C72.0781 56.6459 74.147 55.006 75.4675 52.8143C75.8669 50.3327 75.3175 47.7917 73.9286 45.6969V45.6969Z" fill="#BA68C8"/>
<path opacity="0.35" d="M73.9286 45.6969C70.3275 39.9337 62.1021 37.1252 55.5465 39.4336C53.1111 40.2187 51.0421 41.8585 49.7217 44.0503C49.3223 46.5318 49.8717 49.0728 51.2606 51.1677C54.8539 56.9308 63.087 59.7393 69.6427 57.431C72.0781 56.6459 74.147 55.006 75.4675 52.8143C75.8669 50.3327 75.3175 47.7917 73.9286 45.6969V45.6969Z" fill="black"/>
<path d="M70.1659 52.8835C70.2891 52.5373 70.8123 51.1215 70.9354 50.7522C71.0936 50.256 71.1335 49.7297 71.052 49.2153C70.9705 48.7009 70.7698 48.2128 70.466 47.7898V47.7513C69.2272 45.7738 67.3882 45.3352 65.5493 45.3429C64.8057 45.362 64.0635 45.4185 63.3256 45.5122C62.5331 45.6267 61.7333 45.6833 60.9326 45.6815V45.6815C60.5795 45.6719 60.2307 45.6016 59.9015 45.4738C59.6195 45.3494 59.3773 45.1497 59.2013 44.8967L59.286 44.8582L59.5553 44.7582C59.7762 44.6783 60.0025 44.6141 60.2324 44.5658C60.7556 44.4373 61.3039 44.4532 61.8188 44.6117C62.3337 44.7703 62.7959 45.0655 63.1563 45.4661L65.6724 43.7194L66.4418 41.5957C65.8542 41.0145 65.1555 40.5576 64.3874 40.2522C63.6193 39.9468 62.7976 39.7993 61.9713 39.8183C61.3994 39.8236 60.8295 39.888 60.2708 40.0107L59.0859 38.1178L56.5159 39.0181L55.7465 41.1418L56.2312 41.9112C55.8922 42.2279 55.6292 42.6173 55.4618 43.05L54.6924 45.166C54.5383 45.6662 54.504 46.1956 54.5922 46.7115C54.6805 47.2275 54.8887 47.7154 55.2002 48.136C55.7318 49.0414 56.5414 49.7511 57.5085 50.1597V50.1597L58.0625 50.3443C59.1359 50.585 60.2443 50.6267 61.3327 50.4675L62.0098 50.3905L59.4783 52.1372L58.7089 54.2608C60.6017 56.3691 63.1409 56.5692 65.28 56.069L66.4418 57.9388L69.0118 57.0309L69.7812 54.9072L69.2965 54.1377C69.6766 53.79 69.9737 53.3614 70.1659 52.8835V52.8835ZM66.034 51.2754C65.8459 51.3434 65.653 51.3974 65.4569 51.437C64.8669 51.5714 64.2516 51.5452 63.6752 51.3612C63.0987 51.1772 62.5821 50.842 62.1791 50.3905C64.0181 50.1674 65.557 49.9519 66.3726 51.16L66.034 51.2754Z" fill="#BA68C8"/>
<path d="M65.5339 45.3429C64.7903 45.362 64.0481 45.4185 63.3102 45.5122C62.5177 45.6267 61.7179 45.6833 60.9172 45.6815V45.6815C60.5641 45.6719 60.2153 45.6016 59.8861 45.4738C59.562 45.3203 59.2932 45.0703 59.1167 44.7582C58.6627 44.0349 58.8397 43.2577 60.0785 42.7345L60.3478 42.6345C60.5678 42.5535 60.7943 42.4917 61.0249 42.4498C61.5474 42.3204 62.0953 42.3351 62.6101 42.4922C63.125 42.6494 63.5876 42.9432 63.9488 43.3424L66.4187 41.5726C65.8311 40.9914 65.1324 40.5345 64.3643 40.2291C63.5963 39.9237 62.7746 39.7762 61.9482 39.7952C61.3763 39.8005 60.8064 39.865 60.2478 39.9876L59.0628 38.0947L56.4929 38.995L57.6624 40.8647C55.3541 42.042 54.6539 43.8425 55.985 45.9816C56.5261 46.8936 57.3501 47.6041 58.3318 48.0052V48.0052L58.8858 48.1899C59.9592 48.4292 61.0669 48.4735 62.156 48.3207C64.3874 48.0899 66.311 47.5512 67.2267 49.044C67.8345 50.0212 67.2805 50.7983 66.0571 51.2292C65.869 51.2973 65.6761 51.3513 65.48 51.3908C64.8783 51.5286 64.2503 51.4989 63.6643 51.305C63.0783 51.111 62.5566 50.7601 62.156 50.2905L59.5245 52.1064C61.4173 54.2224 63.9565 54.4147 66.0956 53.9146L67.2574 55.7843L69.8274 54.8764L68.6655 53.0143C70.9739 51.814 71.8587 49.9365 70.4968 47.7436V47.7051C69.2118 45.7738 67.3421 45.3352 65.5339 45.3429Z" fill="#BA68C8"/>
<g opacity="0.3">
<path opacity="0.3" d="M65.5339 45.3429C64.7903 45.362 64.0481 45.4185 63.3102 45.5122C62.5177 45.6267 61.7179 45.6833 60.9172 45.6815V45.6815C60.5641 45.6719 60.2153 45.6016 59.8861 45.4738C59.562 45.3203 59.2932 45.0703 59.1167 44.7582C58.6627 44.0349 58.8397 43.2577 60.0785 42.7345L60.3478 42.6345C60.5678 42.5535 60.7943 42.4917 61.0249 42.4498C61.5474 42.3204 62.0953 42.3351 62.6101 42.4922C63.125 42.6494 63.5876 42.9432 63.9488 43.3424L66.4187 41.5726C65.8311 40.9914 65.1324 40.5345 64.3643 40.2291C63.5963 39.9237 62.7746 39.7762 61.9482 39.7952C61.3763 39.8005 60.8064 39.865 60.2478 39.9876L59.0628 38.0947L56.4929 38.995L57.6624 40.8647C55.3541 42.042 54.6539 43.8425 55.985 45.9816C56.5261 46.8936 57.3501 47.6041 58.3318 48.0052V48.0052L58.8858 48.1899C59.9592 48.4292 61.0669 48.4735 62.156 48.3207C64.3874 48.0899 66.311 47.5512 67.2267 49.044C67.8345 50.0212 67.2805 50.7983 66.0571 51.2292C65.869 51.2973 65.6761 51.3513 65.48 51.3908C64.8783 51.5286 64.2503 51.4989 63.6643 51.305C63.0783 51.111 62.5566 50.7601 62.156 50.2905L59.5245 52.1064C61.4173 54.2224 63.9565 54.4147 66.0956 53.9146L67.2574 55.7843L69.8274 54.8764L68.6655 53.0143C70.9739 51.814 71.8587 49.9365 70.4968 47.7436V47.7051C69.2118 45.7738 67.3421 45.3352 65.5339 45.3429Z" fill="white"/>
</g>
<path opacity="0.45" d="M56.4929 39.0258L58.9628 38.4641L60.2478 40.0184L59.0628 38.1255L56.4929 39.0258Z" fill="#F5F5F5"/>
<path opacity="0.45" d="M61.6789 39.8337C63.2234 39.9178 64.6994 40.498 65.8878 41.488L63.9027 43.3501L66.4187 41.5726C65.7965 40.9642 65.0523 40.4946 64.2353 40.1949C63.4183 39.8951 62.547 39.772 61.6789 39.8337V39.8337Z" fill="#F5F5F5"/>
<path opacity="0.45" d="M70.4199 47.7282V47.7667C71.7818 49.9827 70.8892 51.8371 68.5886 53.0374C70.8969 51.3369 71.1509 49.7134 70.0275 47.9052C69.5158 47.157 68.8403 46.5353 68.0524 46.0873C67.2644 45.6393 66.3847 45.3768 65.48 45.3199C67.3421 45.3352 69.2118 45.7738 70.4199 47.7282Z" fill="#F5F5F5"/>
<path opacity="0.45" d="M68.6425 53.0605L69.4119 54.8225L67.2344 55.8305L69.8043 54.9303L68.6425 53.0605Z" fill="#F5F5F5"/>
<path opacity="0.45" d="M65.4569 51.437C64.8922 51.6182 64.2899 51.6489 63.7097 51.5261C63.1294 51.4033 62.5912 51.1313 62.1483 50.7368L59.5014 52.1526L62.1329 50.3367C62.5336 50.8063 63.0552 51.1571 63.6412 51.3511C64.2273 51.5451 64.8552 51.5748 65.4569 51.437V51.437Z" fill="#F5F5F5"/>
<path opacity="0.45" d="M76.991 45.8027C76.5419 45.8892 76.0768 45.8262 75.6668 45.6233C75.2569 45.4204 74.9247 45.0889 74.7211 44.6793C74.3979 43.8021 75.0289 43.1943 76.1215 42.8557C74.8827 43.3789 74.7057 44.1561 75.1597 44.8794C75.3363 45.1915 75.605 45.4415 75.9291 45.5949C76.268 45.7264 76.6275 45.7967 76.991 45.8027Z" fill="#F5F5F5"/>
<path opacity="0.45" d="M57.6393 40.9109C57.4393 41.034 55.6773 42.1651 55.6465 43.881C55.6859 44.7485 55.9526 45.5903 56.4199 46.3222C56.8871 47.0542 57.5385 47.6505 58.3088 48.0514V48.0514C57.327 47.6503 56.503 46.9398 55.9619 46.0278C54.6308 43.881 55.331 42.0882 57.6393 40.9109Z" fill="#F5F5F5"/>
<path d="M46.767 38.341L49.16 33.3472L47.7596 38.6795L54.123 41.288L47.4672 39.4644L45.082 44.4658L46.4824 39.1258L40.119 36.5174L46.767 38.341Z" fill="white"/>
<path d="M106.375 47.875C103.365 47.875 101.008 47 99.305 45.25C97.625 43.5 96.785 41.05 96.785 37.9C96.785 34.8433 97.45 32.0783 98.78 29.605C100.133 27.1083 101.953 25.1483 104.24 23.725C106.527 22.3017 109.047 21.59 111.8 21.59C113.48 21.59 114.798 21.8583 115.755 22.395C116.712 22.9317 117.19 23.6783 117.19 24.635C117.19 25.4283 116.875 26.105 116.245 26.665C115.615 27.2017 114.833 27.47 113.9 27.47C112.897 27.47 111.975 27.2483 111.135 26.805C110.318 26.3617 109.653 25.615 109.14 24.565C107.623 25.2183 106.27 26.21 105.08 27.54C103.89 28.87 102.957 30.4567 102.28 32.3C101.603 34.12 101.265 36.08 101.265 38.18C101.265 40.4433 101.708 42.2167 102.595 43.5C103.482 44.7833 104.707 45.425 106.27 45.425C107.46 45.425 108.522 45.1333 109.455 44.55C110.388 43.9433 111.123 43.1267 111.66 42.1C112.22 41.05 112.547 39.8833 112.64 38.6C113.55 38.6 114.25 38.7983 114.74 39.195C115.253 39.5683 115.51 40.175 115.51 41.015C115.51 42.2517 115.09 43.395 114.25 44.445C113.433 45.495 112.325 46.335 110.925 46.965C109.525 47.5717 108.008 47.875 106.375 47.875ZM129.455 47.875C127.472 47.875 125.734 47.4433 124.24 46.58C122.77 45.6933 121.627 44.445 120.81 42.835C119.994 41.2017 119.585 39.3117 119.585 37.165C119.585 34.0617 120.192 31.3317 121.405 28.975C122.619 26.6183 124.24 24.81 126.27 23.55C128.3 22.2667 130.517 21.625 132.92 21.625C134.087 21.625 134.95 21.8 135.51 22.15C136.07 22.4767 136.35 23.0017 136.35 23.725C136.35 23.9817 136.327 24.215 136.28 24.425C136.234 24.6117 136.164 24.8217 136.07 25.055C135.767 24.985 135.417 24.9267 135.02 24.88C134.624 24.81 134.285 24.775 134.005 24.775C132.162 24.775 130.482 25.2883 128.965 26.315C127.472 27.3417 126.282 28.7883 125.395 30.655C124.532 32.4983 124.1 34.6217 124.1 37.025C124.1 39.7783 124.66 41.8667 125.78 43.29C126.924 44.7133 128.464 45.425 130.4 45.425C131.684 45.425 132.979 45.005 134.285 44.165C135.615 43.3017 136.747 42.1 137.68 40.56C138.637 38.9967 139.244 37.2233 139.5 35.24C138.1 34.61 137.097 33.8167 136.49 32.86C135.907 31.88 135.615 30.7833 135.615 29.57C135.615 28.4267 135.942 27.4817 136.595 26.735C137.249 25.965 138.065 25.58 139.045 25.58C140.235 25.58 141.169 26.1167 141.845 27.19C142.522 28.24 142.86 29.6983 142.86 31.565C142.86 34.5983 142.277 37.3633 141.11 39.86C139.967 42.3333 138.369 44.2933 136.315 45.74C134.285 47.1633 131.999 47.875 129.455 47.875ZM150.005 47.91C149.142 47.91 148.512 47.6883 148.115 47.245C147.719 46.8017 147.52 46.0783 147.52 45.075C147.52 43.745 147.707 41.715 148.08 38.985C148.454 36.255 149.165 31.6583 150.215 25.195L149.13 23.06C150.694 22.08 152.082 21.59 153.295 21.59C154.322 21.59 154.835 22.2083 154.835 23.445C154.835 23.655 154.73 24.4133 154.52 25.72C154.31 27.0033 154.077 28.4383 153.82 30.025C153.144 34.295 152.642 37.4683 152.315 39.545C152.012 41.6217 151.86 43.08 151.86 43.92C151.86 44.5967 151.93 45.1917 152.07 45.705C152.21 46.2183 152.42 46.65 152.7 47C151.767 47.6067 150.869 47.91 150.005 47.91ZM156.235 37.2C155.045 37.2 153.587 36.9667 151.86 36.5L152.35 34.085C153.587 34.2717 155.069 34.365 156.795 34.365L159.385 33.735C159.385 33.805 159.385 33.8867 159.385 33.98C159.385 34.05 159.397 34.12 159.42 34.19C159.42 34.26 159.42 34.33 159.42 34.4C159.42 34.47 159.42 34.5283 159.42 34.575C159.42 35.415 159.14 36.0683 158.58 36.535C158.044 36.9783 157.262 37.2 156.235 37.2ZM160.085 26.63C158.662 26.63 157.285 26.5367 155.955 26.35C154.649 26.14 153.365 25.8017 152.105 25.335L152.945 23.235C154.905 23.235 156.574 23.1417 157.95 22.955C159.327 22.7683 161.159 22.4417 163.445 21.975C163.585 21.9517 163.714 21.9283 163.83 21.905C163.97 21.8583 164.11 21.8233 164.25 21.8C164.367 22.1967 164.425 22.6867 164.425 23.27C164.425 24.4133 164.005 25.265 163.165 25.825C162.349 26.3617 161.322 26.63 160.085 26.63ZM175.603 38.355C174.273 38.355 173.118 38.1917 172.138 37.865C171.181 37.5383 170.201 36.955 169.198 36.115L170.038 34.47C170.575 34.8667 171.193 35.17 171.893 35.38C172.616 35.5667 173.363 35.66 174.133 35.66C175.65 35.66 176.968 35.3917 178.088 34.855C179.208 34.3183 180.06 33.5833 180.643 32.65C181.25 31.7167 181.553 30.655 181.553 29.465C181.553 27.995 181.133 26.7933 180.293 25.86C179.476 24.9267 178.158 24.46 176.338 24.46C175.451 24.46 174.541 24.67 173.608 25.09C172.698 25.4867 171.695 26.0933 170.598 26.91V25.44C171.485 24.5767 172.266 23.8883 172.943 23.375C173.62 22.8617 174.425 22.4533 175.358 22.15C176.291 21.8233 177.376 21.66 178.613 21.66C180.153 21.66 181.483 21.9983 182.603 22.675C183.723 23.3283 184.563 24.215 185.123 25.335C185.706 26.455 185.998 27.6683 185.998 28.975C185.998 30.5383 185.613 32.0433 184.843 33.49C184.073 34.9133 182.906 36.08 181.343 36.99C179.78 37.9 177.866 38.355 175.603 38.355ZM168.428 47.91C167.565 47.91 166.935 47.6883 166.538 47.245C166.141 46.8017 165.943 46.0783 165.943 45.075C165.943 43.7217 166.13 41.6683 166.503 38.915C166.876 36.1617 167.588 31.5883 168.638 25.195L167.553 23.06C169.116 22.08 170.505 21.59 171.718 21.59C172.745 21.59 173.258 22.2083 173.258 23.445C173.258 23.7483 172.966 25.5683 172.383 28.905C171.753 32.6383 171.24 35.7767 170.843 38.32C170.47 40.8633 170.283 42.73 170.283 43.92C170.283 44.5967 170.353 45.1917 170.493 45.705C170.633 46.2183 170.843 46.65 171.123 47C170.213 47.6067 169.315 47.91 168.428 47.91ZM183.338 47.875C182.615 47.875 182.008 47.7117 181.518 47.385C181.028 47.0817 180.526 46.5217 180.013 45.705C179.523 44.865 178.905 43.5933 178.158 41.89L175.988 37.095L179.733 35.555C180.853 38.1683 181.996 40.49 183.163 42.52C184.353 44.55 185.391 45.95 186.278 46.72C185.998 47.0233 185.555 47.2917 184.948 47.525C184.365 47.7583 183.828 47.875 183.338 47.875ZM193.789 47.91C192.926 47.91 192.296 47.6883 191.899 47.245C191.503 46.8017 191.304 46.0783 191.304 45.075C191.304 43.745 191.491 41.715 191.864 38.985C192.238 36.255 192.949 31.6583 193.999 25.195L192.914 23.06C194.478 22.08 195.866 21.59 197.079 21.59C198.106 21.59 198.619 22.2083 198.619 23.445C198.619 23.655 198.514 24.4133 198.304 25.72C198.094 27.0033 197.861 28.4383 197.604 30.025C196.928 34.295 196.426 37.4683 196.099 39.545C195.796 41.6217 195.644 43.08 195.644 43.92C195.644 44.5267 195.773 45.0517 196.029 45.495C196.309 45.915 196.741 46.2767 197.324 46.58C196.088 47.4667 194.909 47.91 193.789 47.91ZM201.489 47.875C200.043 47.875 198.619 47.6883 197.219 47.315C195.819 46.965 194.641 46.475 193.684 45.845L194.839 44.375H202.679C204.079 44.2117 205.351 43.9083 206.494 43.465C206.704 44.165 206.809 44.6783 206.809 45.005C206.809 45.985 206.378 46.7083 205.514 47.175C204.674 47.6417 203.333 47.875 201.489 47.875ZM200.019 37.2C198.829 37.2 197.371 36.9667 195.644 36.5L196.134 34.085C197.371 34.2717 198.853 34.365 200.579 34.365L203.169 33.735C203.169 33.805 203.169 33.8867 203.169 33.98C203.169 34.05 203.181 34.12 203.204 34.19C203.204 34.26 203.204 34.33 203.204 34.4C203.204 34.47 203.204 34.5283 203.204 34.575C203.204 35.415 202.924 36.0683 202.364 36.535C201.828 36.9783 201.046 37.2 200.019 37.2ZM204.219 26.63C202.796 26.63 201.419 26.5367 200.089 26.35C198.783 26.14 197.499 25.8017 196.239 25.335L197.079 23.235C199.039 23.235 200.708 23.1417 202.084 22.955C203.461 22.7683 205.293 22.4417 207.579 21.975C207.719 21.9517 207.848 21.9283 207.964 21.905C208.104 21.8583 208.244 21.8233 208.384 21.8C208.501 22.1967 208.559 22.6867 208.559 23.27C208.559 24.4133 208.139 25.265 207.299 25.825C206.483 26.3617 205.456 26.63 204.219 26.63Z" fill="black"/>
</svg>
