<svg width="209" height="59" viewBox="0 0 209 59" fill="none" xmlns="http://www.w3.org/2000/svg">
<path d="M7.56762 28.6518C8.81135 26.7035 10.5349 25.1076 12.573 24.0172C20.7563 19.2965 34.0245 19.2965 42.2144 24.0172C44.2511 25.1095 45.9742 26.705 47.2198 28.6518H48.3519V32.9288C48.1997 35.9082 46.1604 38.8876 42.2277 41.132C34.0377 45.8593 20.7696 45.8593 12.5862 41.132C8.64682 38.8611 6.62746 35.9082 6.4487 32.9288V28.6518H7.56762Z" fill="#BA68C8"/>
<path opacity="0.25" d="M7.56762 28.6518C8.81135 26.7035 10.5349 25.1076 12.573 24.0172C20.7563 19.2965 34.0245 19.2965 42.2144 24.0172C44.2511 25.1095 45.9742 26.705 47.2198 28.6518H48.3519V32.9288C48.1997 35.9082 46.1604 38.8876 42.2277 41.132C34.0377 45.8593 20.7696 45.8593 12.5862 41.132C8.64682 38.8611 6.62746 35.9082 6.4487 32.9288V28.6518H7.56762Z" fill="black"/>
<path opacity="0.1" d="M27.3904 20.4618C32.7532 20.4618 38.1161 21.6403 42.2144 24.0039C44.2511 25.0963 45.9742 26.6918 47.2198 28.6385H48.3519V32.9156C48.1996 35.895 46.1604 38.8743 42.2277 41.1188C38.1294 43.4824 32.7665 44.6609 27.4036 44.6609L27.3904 20.4618Z" fill="black"/>
<path opacity="0.1" d="M38.8378 22.448C40.0032 22.8833 41.1323 23.4102 42.2144 24.0238C44.2511 25.1162 45.9742 26.7117 47.2198 28.6584H48.3519V32.9354C48.1997 35.9148 46.1604 38.8942 42.2277 41.1387C41.1457 41.7544 40.0166 42.2835 38.851 42.721L38.8378 22.448Z" fill="black"/>
<path opacity="0.5" d="M15.943 22.448C14.7792 22.8821 13.6522 23.4091 12.573 24.0238C10.5349 25.1142 8.81134 26.7101 7.56761 28.6584H6.43545V32.9354C6.58111 35.9148 8.63356 38.8942 12.573 41.1387C13.652 41.7556 14.779 42.2848 15.943 42.721V22.448Z" fill="#BA68C8"/>
<path d="M42.2144 20.0977C50.3978 24.8183 50.3978 32.4852 42.2144 37.2059C35.0507 41.3439 23.9939 41.8405 15.8569 38.7618L15.5325 38.636C14.5122 38.2352 13.523 37.7594 12.573 37.2125C5.74688 33.24 4.62796 27.2812 9.16985 22.6467C10.182 21.6442 11.3244 20.7824 12.5663 20.0844C20.7563 15.3704 34.0244 15.3704 42.2144 20.0977Z" fill="#BA68C8"/>
<path opacity="0.2" d="M42.2144 20.0977C50.3978 24.8183 50.3978 32.4852 42.2144 37.2059C35.0507 41.3439 23.9939 41.8405 15.8569 38.7618L15.5325 38.636C14.5122 38.2352 13.523 37.7594 12.573 37.2125C5.74688 33.24 4.62796 27.2812 9.16985 22.6467C10.182 21.6442 11.3244 20.7824 12.5663 20.0844C20.7563 15.3704 34.0244 15.3704 42.2144 20.0977Z" fill="black"/>
<path opacity="0.5" d="M9.16985 22.6665C8.277 23.6721 7.61658 24.8619 7.23553 26.1516C6.85448 27.4412 6.76215 28.7989 6.96511 30.1282C7.69341 34.2927 13.5131 37.7885 15.5192 38.6294C14.4989 38.2286 13.5097 37.7528 12.5597 37.2059C5.74688 33.2665 4.61472 27.2879 9.16985 22.6665Z" fill="#F5F5F5"/>
<path opacity="0.5" d="M45.6109 34.637C46.502 33.6293 47.1602 32.4378 47.539 31.1471C47.9177 29.8564 48.0077 28.4981 47.8024 27.1687C47.0807 23.0108 41.2544 19.515 39.2483 18.6742C40.2701 19.0762 41.2615 19.552 42.2144 20.0977C49.0339 24.0371 50.1727 30.0157 45.6109 34.637Z" fill="#F5F5F5"/>
<path d="M27.397 39.8807C38.1583 39.8807 46.8821 34.8444 46.8821 28.6319C46.8821 22.4194 38.1583 17.3831 27.397 17.3831C16.6357 17.3831 7.91189 22.4194 7.91189 28.6319C7.91189 34.8444 16.6357 39.8807 27.397 39.8807Z" fill="#BA68C8"/>
<path opacity="0.4" d="M27.397 39.8807C38.1583 39.8807 46.8821 34.8444 46.8821 28.6319C46.8821 22.4194 38.1583 17.3831 27.397 17.3831C16.6357 17.3831 7.91189 22.4194 7.91189 28.6319C7.91189 34.8444 16.6357 39.8807 27.397 39.8807Z" fill="white"/>
<path opacity="0.2" d="M8.79908 31.9953C7.23657 29.102 7.74637 25.9108 10.3285 23.2028C10.8377 22.675 11.3915 22.1921 11.9837 21.7595C12.4953 21.3795 13.0305 21.0324 13.5859 20.72C13.8971 20.5346 14.2149 20.3625 14.546 20.197C13.7382 21.5211 14.0295 22.9579 18.6178 23.2227C27.6022 23.7457 16.221 32.3329 16.221 32.3329C16.221 32.3329 10.4079 29.539 8.79908 31.9953Z" fill="white"/>
<path opacity="0.5" d="M9.726 29.6184C8.40183 29.4661 7.73975 28.0824 8.23631 26.5265C8.73287 24.9706 10.2755 23.8252 11.5997 23.9775C12.9239 24.1297 13.5859 25.5135 13.0894 27.0694C12.5928 28.6253 11.0766 29.7707 9.726 29.6184Z" fill="white"/>
<path d="M23.9343 36.7689C24.3713 33.4585 38.9503 24.1893 38.9503 24.1893C38.9503 24.1893 42.1813 22.8983 41.1087 20.6339C41.647 20.9439 42.1686 21.282 42.6713 21.6469C43.0023 21.8853 43.3333 22.1369 43.618 22.3951C47.9547 26.1491 47.9613 31.0882 43.618 34.8489C43.3174 35.1139 43.0036 35.3635 42.6779 35.597C42.2133 35.9384 41.7292 36.2523 41.2279 36.5372C40.738 36.8285 40.2215 37.1 39.6853 37.3515C39.2615 37.5502 38.8179 37.7422 38.3611 37.9143C37.9043 38.0864 37.4607 38.2586 36.9906 38.4109C35.57 38.8705 34.1156 39.2181 32.6407 39.4503L31.6674 39.596C30.2248 39.7793 28.7718 39.87 27.3175 39.8675C25.5431 39.8642 23.7719 39.718 22.0209 39.4305C22.0209 39.4305 24.3514 39.0001 23.9343 36.7689Z" fill="#BA68C8"/>
<path opacity="0.3" d="M23.9343 36.7689C24.3713 33.4585 38.9503 24.1893 38.9503 24.1893C38.9503 24.1893 42.1813 22.8983 41.1087 20.6339C41.647 20.9439 42.1686 21.282 42.6713 21.6469C43.0023 21.8853 43.3333 22.1369 43.618 22.3951C47.9547 26.1491 47.9613 31.0882 43.618 34.8489C43.3174 35.1139 43.0036 35.3635 42.6779 35.597C42.2133 35.9384 41.7292 36.2523 41.2279 36.5372C40.738 36.8285 40.2215 37.1 39.6853 37.3515C39.2615 37.5502 38.8179 37.7422 38.3611 37.9143C37.9043 38.0864 37.4607 38.2586 36.9906 38.4109C35.57 38.8705 34.1156 39.2181 32.6407 39.4503L31.6674 39.596C30.2248 39.7793 28.7718 39.87 27.3175 39.8675C25.5431 39.8642 23.7719 39.718 22.0209 39.4305C22.0209 39.4305 24.3514 39.0001 23.9343 36.7689Z" fill="white"/>
<path d="M37.6725 22.7063C43.1082 25.8512 43.3267 30.8565 38.3346 34.1471C38.1227 34.2861 37.8976 34.4251 37.6725 34.5576C32.0051 37.8349 22.8154 37.8349 17.148 34.5576C11.4805 31.2802 11.4805 25.9505 17.148 22.7063C17.3797 22.5739 17.618 22.4481 17.863 22.3223C23.5569 19.4422 32.2302 19.568 37.6725 22.7063Z" fill="#BA68C8"/>
<path opacity="0.2" d="M37.6725 22.7063C43.1082 25.8512 43.3267 30.8565 38.3346 34.1471C38.1227 34.2861 37.8976 34.4251 37.6725 34.5576C32.0051 37.8349 22.8154 37.8349 17.148 34.5576C11.4805 31.2802 11.4805 25.9505 17.148 22.7063C17.3797 22.5739 17.618 22.4481 17.863 22.3223C23.5569 19.4422 32.2302 19.568 37.6725 22.7063Z" fill="black"/>
<path d="M27.397 36.6431C35.0612 36.6431 41.2743 33.0564 41.2743 28.6319C41.2743 24.2074 35.0612 20.6207 27.397 20.6207C19.7328 20.6207 13.5197 24.2074 13.5197 28.6319C13.5197 33.0564 19.7328 36.6431 27.397 36.6431Z" fill="#BA68C8"/>
<path opacity="0.5" d="M27.397 36.6431C35.0612 36.6431 41.2743 33.0564 41.2743 28.6319C41.2743 24.2074 35.0612 20.6207 27.397 20.6207C19.7328 20.6207 13.5197 24.2074 13.5197 28.6319C13.5197 33.0564 19.7328 36.6431 27.397 36.6431Z" fill="black"/>
<path d="M37.2091 25.2023C31.7932 22.0773 23.0074 22.0773 17.5849 25.2023C15.3736 26.4801 14.0627 28.089 13.6588 29.7508C14.0627 31.4126 15.3736 33.0215 17.5849 34.2993C23.0074 37.4244 31.7932 37.4244 37.2091 34.2993C39.4072 33.0414 40.7314 31.4126 41.1352 29.731C40.7314 28.089 39.4072 26.4801 37.2091 25.2023Z" fill="#BA68C8"/>
<path opacity="0.35" d="M37.2091 25.2023C31.7932 22.0773 23.0074 22.0773 17.5849 25.2023C15.3736 26.4801 14.0627 28.089 13.6588 29.7508C14.0627 31.4126 15.3736 33.0215 17.5849 34.2993C23.0074 37.4244 31.7932 37.4244 37.2091 34.2993C39.4072 33.0414 40.7314 31.4126 41.1352 29.731C40.7314 28.089 39.4072 26.4801 37.2091 25.2023Z" fill="black"/>
<path d="M36.1365 31.0551V29.3999C36.1365 28.7378 35.6664 28.0757 34.6534 27.4666C33.8166 27.0192 32.8985 26.7441 31.9534 26.6577C31.0084 26.5713 30.0557 26.6753 29.1515 26.9635C28.4232 27.1488 27.728 27.3872 27.0991 27.6255C26.377 27.8871 25.641 28.1081 24.8943 28.2876V28.2876C24.5516 28.3669 24.1998 28.4003 23.8482 28.3869C23.5464 28.3694 23.2513 28.2906 22.9809 28.1552L23.0471 28.1089L23.2656 27.9764C23.4537 27.8675 23.6482 27.7702 23.8482 27.6851C24.3325 27.471 24.8543 27.3543 25.3836 27.3418C25.913 27.3293 26.4397 27.4212 26.9335 27.6123L28.7145 25.818V24.1761C27.1451 23.6405 25.4528 23.5784 23.8482 23.9973C23.3183 24.1344 22.8002 24.3137 22.299 24.5336L20.5246 23.5074L18.3993 24.7322V26.3808L19.1276 26.7979C18.9338 27.0814 18.8258 27.4147 18.8164 27.7579V29.3999C18.8164 30.062 19.3063 30.7241 20.326 31.3266C21.2181 31.8482 22.2261 32.1395 23.259 32.1741V32.1741C23.4553 32.184 23.6519 32.184 23.8482 32.1741C24.9239 32.0976 25.9842 31.8749 26.9998 31.512L27.6089 31.3001L25.7683 33.0414V34.69C26.8724 35.1063 28.0495 35.2945 29.2284 35.2433C30.4073 35.1921 31.5636 34.9025 32.6275 34.392L34.382 35.405L36.5073 34.1802V32.5316L35.779 32.1078C35.9994 31.7999 36.1237 31.4336 36.1365 31.0551V31.0551ZM31.6608 30.9095C31.5008 31.0038 31.3349 31.0878 31.1643 31.1611C30.0591 31.6329 28.8123 31.6495 27.6949 31.2074C29.3568 30.6248 30.7471 30.1083 31.9256 30.7373C31.8417 30.7992 31.7532 30.8545 31.6608 30.9028V30.9095Z" fill="#BA68C8"/>
<path d="M29.1184 26.937C28.3901 27.1224 27.6949 27.3607 27.066 27.5991C26.3439 27.8606 25.6079 28.0816 24.8612 28.2611V28.2611C24.5185 28.3404 24.1667 28.3738 23.8151 28.3604C23.46 28.3418 23.1146 28.2373 22.8088 28.0559C22.1467 27.6653 22.0209 27.0892 23.014 26.4338L23.2325 26.3014C23.4205 26.1924 23.6151 26.0951 23.8151 26.0101C24.299 25.7938 24.8212 25.6765 25.3511 25.6651C25.881 25.6537 26.4078 25.7485 26.9004 25.9438L28.6814 24.1496C27.112 23.6141 25.4197 23.5519 23.8151 23.9708C23.2852 24.1079 22.7671 24.2872 22.2659 24.5071L20.4915 23.4809L18.3662 24.7058L20.1273 25.7187C18.3463 27.076 18.3066 28.4796 20.3127 29.6449C21.2053 30.1647 22.2133 30.4537 23.2457 30.4857H23.835C24.9112 30.4125 25.9718 30.1896 26.9865 29.8237C29.0191 29.1616 30.6743 28.3406 32.0448 29.1285C32.9651 29.6648 32.7069 30.3268 31.7005 30.9095C31.5405 31.0038 31.3747 31.0878 31.204 31.1611C30.6443 31.3963 30.0433 31.5175 29.4362 31.5175C28.8291 31.5175 28.2281 31.3963 27.6685 31.1611L25.7683 33.0414C26.8724 33.4577 28.0495 33.646 29.2284 33.5948C30.4073 33.5435 31.5636 33.2539 32.6275 32.7434L34.382 33.7564L36.5073 32.5316L34.7726 31.5252C36.5337 30.1547 36.7589 28.6716 34.6733 27.46C33.8307 27.0021 32.9041 26.7197 31.9494 26.6298C30.9947 26.5399 30.0316 26.6444 29.1184 26.937V26.937Z" fill="#BA68C8"/>
<g opacity="0.3">
<path opacity="0.3" d="M29.1184 26.937C28.3901 27.1224 27.6949 27.3607 27.066 27.5991C26.3439 27.8606 25.6079 28.0816 24.8612 28.2611V28.2611C24.5185 28.3404 24.1667 28.3738 23.8151 28.3604C23.46 28.3418 23.1146 28.2373 22.8088 28.0559C22.1467 27.6653 22.0209 27.0892 23.014 26.4338L23.2325 26.3014C23.4205 26.1924 23.6151 26.0951 23.8151 26.0101C24.299 25.7938 24.8212 25.6765 25.3511 25.6651C25.881 25.6537 26.4078 25.7485 26.9004 25.9438L28.6814 24.1496C27.112 23.6141 25.4197 23.5519 23.8151 23.9708C23.2852 24.1079 22.7671 24.2872 22.2659 24.5071L20.4915 23.4809L18.3662 24.7058L20.1273 25.7187C18.3463 27.076 18.3066 28.4796 20.3127 29.6449C21.2053 30.1647 22.2133 30.4537 23.2457 30.4857H23.835C24.9112 30.4125 25.9718 30.1896 26.9865 29.8237C29.0191 29.1616 30.6743 28.3406 32.0448 29.1285C32.9651 29.6648 32.7069 30.3268 31.7005 30.9095C31.5405 31.0038 31.3747 31.0878 31.204 31.1611C30.6443 31.3963 30.0433 31.5175 29.4362 31.5175C28.8291 31.5175 28.2281 31.3963 27.6685 31.1611L25.7683 33.0414C26.8724 33.4577 28.0495 33.646 29.2284 33.5948C30.4073 33.5435 31.5636 33.2539 32.6275 32.7434L34.382 33.7564L36.5073 32.5316L34.7726 31.5252C36.5337 30.1547 36.7589 28.6716 34.6733 27.46C33.8307 27.0021 32.9041 26.7197 31.9494 26.6298C30.9947 26.5399 30.0316 26.6444 29.1184 26.937V26.937Z" fill="white"/>
</g>
<path opacity="0.45" d="M18.3463 24.7058L20.4915 23.7325L22.246 24.5071L20.4716 23.4809L18.3463 24.7058Z" fill="#F5F5F5"/>
<path opacity="0.45" d="M23.5503 24.037C25.0623 23.7351 26.6236 23.7873 28.1121 24.1893L26.8806 25.9438L28.6616 24.1496C27.0102 23.586 25.2249 23.5466 23.5503 24.037V24.037Z" fill="#F5F5F5"/>
<path opacity="0.45" d="M34.6203 27.4402C36.686 28.6518 36.4808 30.1348 34.7196 31.5053C36.2822 29.7972 35.9975 28.612 34.2959 27.6322C32.6892 26.8137 30.8531 26.5618 29.0853 26.9171C29.9956 26.6273 30.9551 26.5242 31.9062 26.6141C32.8573 26.704 33.7804 26.985 34.6203 27.4402V27.4402Z" fill="#F5F5F5"/>
<path opacity="0.45" d="M34.7527 31.5252L36.0968 32.558L34.382 33.763L36.5073 32.5382L34.7527 31.5252Z" fill="#F5F5F5"/>
<path opacity="0.45" d="M31.1642 31.1544C30.1156 31.682 28.9044 31.7863 27.781 31.4458L25.7948 33.048L27.6552 31.1743C28.2125 31.4028 28.8094 31.5187 29.4117 31.5153C30.014 31.5119 30.6096 31.3892 31.1642 31.1544V31.1544Z" fill="#F5F5F5"/>
<path opacity="0.45" d="M24.8414 28.2611C24.4291 28.4275 23.9828 28.4921 23.5402 28.4495C23.0977 28.4068 22.6719 28.2582 22.299 28.0162C21.6898 27.4931 22.0805 26.9237 22.961 26.4338C21.9679 27.0959 22.0672 27.6653 22.7558 28.0559C23.0617 28.2373 23.407 28.3418 23.7622 28.3604C24.1247 28.3768 24.4879 28.3434 24.8414 28.2611V28.2611Z" fill="#F5F5F5"/>
<path opacity="0.45" d="M20.0876 25.7585C19.9419 25.8909 18.6641 27.0826 19.2269 28.2744C19.7897 29.4661 21.6965 30.3599 23.1994 30.5255C22.167 30.4935 21.1589 30.2044 20.2664 29.6846C18.2669 28.4929 18.3066 27.0826 20.0876 25.7585Z" fill="#F5F5F5"/>
<path d="M13.1026 23.9774C14.3459 22.0288 16.0696 20.4328 18.108 19.3429C26.2913 14.6156 39.5661 14.6156 47.7494 19.3429C49.7878 20.4328 51.5115 22.0288 52.7548 23.9774H53.8869V28.2611C53.7347 31.2339 51.6954 34.2199 47.7627 36.4577C39.5793 41.185 26.3046 41.185 18.1212 36.4577C14.1884 34.1868 12.1625 31.2339 11.9837 28.2611V23.9774H13.1026Z" fill="#BA68C8"/>
<path opacity="0.25" d="M13.1026 23.9774C14.3459 22.0288 16.0696 20.4328 18.108 19.3429C26.2913 14.6156 39.5661 14.6156 47.7494 19.3429C49.7878 20.4328 51.5115 22.0288 52.7548 23.9774H53.8869V28.2611C53.7347 31.2339 51.6954 34.2199 47.7627 36.4577C39.5793 41.185 26.3046 41.185 18.1212 36.4577C14.1884 34.1868 12.1625 31.2339 11.9837 28.2611V23.9774H13.1026Z" fill="black"/>
<path opacity="0.1" d="M32.9254 15.8272C38.2949 15.8272 43.6578 17.0123 47.7494 19.376C49.7878 20.4659 51.5115 22.0619 52.7548 24.0106H53.8869V28.2942C53.7347 31.267 51.6954 34.253 47.7627 36.4908C43.671 38.8545 38.3081 40.0396 32.9386 40.0396L32.9254 15.8272Z" fill="black"/>
<path opacity="0.1" d="M44.3728 17.7671C45.5406 18.1992 46.6701 18.7286 47.7494 19.3495C49.7878 20.4394 51.5115 22.0354 52.7548 23.9841H53.887V28.2678C53.7347 31.2405 51.6955 34.2265 47.7627 36.4644C46.6834 37.0853 45.5539 37.6146 44.3861 38.0467L44.3728 17.7671Z" fill="black"/>
<path opacity="0.5" d="M21.4846 17.7671C20.3168 18.1992 19.1873 18.7286 18.108 19.3495C16.0696 20.4394 14.3459 22.0354 13.1026 23.9841H11.9705V28.2678C12.1227 31.2405 14.1752 34.2265 18.108 36.4644C19.1873 37.0853 20.3168 37.6146 21.4846 38.0467V17.7671Z" fill="#BA68C8"/>
<path d="M47.7494 15.4234C55.9328 20.1506 55.9328 27.8109 47.7494 32.5382C40.5857 36.6696 29.5355 37.1728 21.3985 34.0875L21.0741 33.9617C20.0523 33.5595 19.061 33.0838 18.108 32.5382C11.2819 28.5657 10.163 22.6069 14.7115 17.9724C15.7228 16.9671 16.8653 16.103 18.108 15.4035C26.2913 10.6961 39.5661 10.6961 47.7494 15.4234Z" fill="#BA68C8"/>
<path opacity="0.2" d="M47.7494 15.4234C55.9328 20.1506 55.9328 27.8109 47.7494 32.5382C40.5857 36.6696 29.5355 37.1728 21.3985 34.0875L21.0741 33.9617C20.0523 33.5595 19.061 33.0838 18.108 32.5382C11.2819 28.5657 10.163 22.6069 14.7115 17.9724C15.7228 16.9671 16.8653 16.103 18.108 15.4035C26.2913 10.6961 39.5661 10.6961 47.7494 15.4234Z" fill="black"/>
<path opacity="0.5" d="M14.7115 17.9922C13.8189 18.9991 13.1591 20.1903 12.7792 21.4811C12.3993 22.7719 12.3085 24.1306 12.5134 25.4605C13.2417 29.6184 19.0614 33.1208 21.0741 33.9617C20.0523 33.5595 19.061 33.0837 18.108 32.5382C11.2819 28.5922 10.1497 22.6136 14.7115 17.9922Z" fill="#F5F5F5"/>
<path opacity="0.5" d="M51.1459 29.9627C52.0384 28.9571 52.6981 27.767 53.078 26.4773C53.458 25.1875 53.5488 23.8299 53.344 22.501C52.6157 18.3431 46.7894 14.8407 44.7833 13.9999C45.8063 14.3993 46.7978 14.8751 47.7494 15.4234C54.5755 19.3627 55.7077 25.348 51.1459 29.9627Z" fill="#F5F5F5"/>
<path d="M19.1607 31.9158C11.5533 27.5262 11.5533 20.4022 19.1607 16.0258C26.768 11.6495 39.1026 11.6362 46.7166 16.0258C54.3305 20.4154 54.3239 27.5461 46.7166 31.9158C39.1092 36.2856 26.768 36.3121 19.1607 31.9158Z" fill="#BA68C8"/>
<path opacity="0.4" d="M19.1607 31.9158C11.5533 27.5262 11.5533 20.4022 19.1607 16.0258C26.768 11.6495 39.1026 11.6362 46.7166 16.0258C54.3305 20.4154 54.3239 27.5461 46.7166 31.9158C39.1092 36.2856 26.768 36.3121 19.1607 31.9158Z" fill="white"/>
<path opacity="0.2" d="M14.3407 27.321C12.7716 24.4277 13.2814 21.2364 15.8701 18.5285C16.3788 18.0027 16.9303 17.5199 17.5187 17.0852C18.0228 16.7077 18.549 16.3605 19.0945 16.0457C19.4057 15.8603 19.7566 15.6882 20.0545 15.5227C19.2468 16.8468 19.5447 18.2835 24.1329 18.555C33.1108 19.078 21.7296 27.6586 21.7296 27.6586C21.7296 27.6586 15.943 24.8646 14.3407 27.321Z" fill="white"/>
<path opacity="0.5" d="M15.2676 24.9507C13.9435 24.7984 13.2814 23.4147 13.7713 21.8522C14.2613 20.2897 15.8172 19.1509 17.1612 19.3031C18.5052 19.4554 19.1474 20.8392 18.6509 22.4017C18.1543 23.9642 16.6117 25.0964 15.2676 24.9507Z" fill="white"/>
<path d="M29.4759 32.1012C29.9195 28.7908 44.492 19.5216 44.492 19.5216C44.492 19.5216 47.7296 18.1975 46.6504 15.9662C47.1909 16.2701 47.7127 16.6062 48.2129 16.9726C48.5506 17.2176 48.875 17.4626 49.1597 17.7208C53.4963 21.4814 53.5029 26.4139 49.1597 30.1746C48.8617 30.4328 48.5506 30.6844 48.2129 30.9293C47.7627 31.2537 47.286 31.5914 46.7695 31.8695C46.2531 32.1476 45.7566 32.4256 45.2203 32.6772C44.7965 32.8759 44.3529 33.0678 43.8961 33.24C43.4393 33.4121 42.9957 33.5843 42.5322 33.7366C41.1116 34.1977 39.6573 34.5474 38.1823 34.7827C37.8579 34.8356 37.5202 34.882 37.2024 34.9217C35.7601 35.1087 34.3069 35.1994 32.8526 35.1931C31.078 35.1938 29.3064 35.0476 27.5559 34.7562C27.5559 34.7562 29.8864 34.2927 29.4759 32.1012Z" fill="#BA68C8"/>
<path opacity="0.3" d="M29.4759 32.1012C29.9195 28.7908 44.492 19.5216 44.492 19.5216C44.492 19.5216 47.7296 18.1975 46.6504 15.9662C47.1909 16.2701 47.7127 16.6062 48.2129 16.9726C48.5506 17.2176 48.875 17.4626 49.1597 17.7208C53.4963 21.4814 53.5029 26.4139 49.1597 30.1746C48.8617 30.4328 48.5506 30.6844 48.2129 30.9293C47.7627 31.2537 47.286 31.5914 46.7695 31.8695C46.2531 32.1476 45.7566 32.4256 45.2203 32.6772C44.7965 32.8759 44.3529 33.0678 43.8961 33.24C43.4393 33.4121 42.9957 33.5843 42.5322 33.7366C41.1116 34.1977 39.6573 34.5474 38.1823 34.7827C37.8579 34.8356 37.5202 34.882 37.2024 34.9217C35.7601 35.1087 34.3069 35.1994 32.8526 35.1931C31.078 35.1938 29.3064 35.0476 27.5559 34.7562C27.5559 34.7562 29.8864 34.2927 29.4759 32.1012Z" fill="white"/>
<path d="M43.2075 18.0386C48.6432 21.1768 48.8617 26.1822 43.8696 29.4794C43.6578 29.6184 43.4393 29.7574 43.2075 29.8898C37.5335 33.1605 28.3504 33.1605 22.683 29.8898C17.0155 26.6192 17.0089 21.2828 22.683 18.0386C22.9147 17.9061 23.153 17.7737 23.398 17.6546C29.0919 14.7679 37.7718 14.9003 43.2075 18.0386Z" fill="#BA68C8"/>
<path opacity="0.2" d="M43.2075 18.0386C48.6432 21.1768 48.8617 26.1822 43.8696 29.4794C43.6578 29.6184 43.4393 29.7574 43.2075 29.8898C37.5335 33.1605 28.3504 33.1605 22.683 29.8898C17.0155 26.6192 17.0089 21.2828 22.683 18.0386C22.9147 17.9061 23.153 17.7737 23.398 17.6546C29.0919 14.7679 37.7718 14.9003 43.2075 18.0386Z" fill="black"/>
<path d="M32.9386 31.9754C40.6028 31.9754 46.8159 28.3887 46.8159 23.9642C46.8159 19.5398 40.6028 15.953 32.9386 15.953C25.2744 15.953 19.0614 19.5398 19.0614 23.9642C19.0614 28.3887 25.2744 31.9754 32.9386 31.9754Z" fill="#BA68C8"/>
<path opacity="0.5" d="M32.9386 31.9754C40.6028 31.9754 46.8159 28.3887 46.8159 23.9642C46.8159 19.5398 40.6028 15.953 32.9386 15.953C25.2744 15.953 19.0614 19.5398 19.0614 23.9642C19.0614 28.3887 25.2744 31.9754 32.9386 31.9754Z" fill="black"/>
<path d="M42.7176 20.5346C37.3018 17.403 28.5159 17.403 23.1001 20.5346C20.8821 21.8124 19.5778 23.4147 19.1739 25.0765C19.5778 26.745 20.8821 28.3472 23.1001 29.625C28.5159 32.7567 37.3018 32.7567 42.7176 29.625C44.9356 28.3472 46.2465 26.745 46.6504 25.0765C46.273 23.4147 44.9621 21.786 42.7176 20.5346Z" fill="#BA68C8"/>
<path opacity="0.35" d="M42.7176 20.5346C37.3018 17.403 28.5159 17.403 23.1001 20.5346C20.8821 21.8124 19.5778 23.4147 19.1739 25.0765C19.5778 26.745 20.8821 28.3472 23.1001 29.625C28.5159 32.7567 37.3018 32.7567 42.7176 29.625C44.9356 28.3472 46.2465 26.745 46.6504 25.0765C46.273 23.4147 44.9621 21.786 42.7176 20.5346Z" fill="black"/>
<path d="M41.6715 26.3742C41.6715 26.1027 41.6715 25.0037 41.6715 24.719C41.6715 24.0569 41.2014 23.3948 40.1951 22.7923H40.1553C39.3178 22.3467 38.3998 22.0726 37.4551 21.9862C36.5104 21.8998 35.5579 22.0028 34.6534 22.2892V22.2892C33.9251 22.4679 33.23 22.7063 32.601 22.9512C31.8794 23.2141 31.1433 23.4352 30.3962 23.6133V23.6133C30.0518 23.6961 29.6974 23.7295 29.3435 23.7126C29.0412 23.6982 28.7454 23.6192 28.4762 23.4809L28.549 23.4345L28.7675 23.3021C28.9526 23.192 29.1451 23.0946 29.3435 23.0108C29.8274 22.7945 30.3496 22.6773 30.8795 22.6659C31.4094 22.6545 31.9361 22.7493 32.4288 22.9446L34.1966 21.1239V19.4753C32.6265 18.9432 30.9352 18.8811 29.3303 19.2965C28.8022 19.4326 28.2862 19.612 27.7876 19.8328L26.0066 18.8066L23.8813 20.0314V21.68L24.6096 22.0971C24.4169 22.3811 24.3089 22.7141 24.2985 23.0572C24.2985 23.3352 24.2985 24.4277 24.2985 24.7058C24.2985 25.3678 24.7884 26.0299 25.8146 26.6324C26.7048 27.1522 27.7107 27.4413 28.741 27.4733V27.4733C28.933 27.4733 29.1317 27.4733 29.3237 27.4733C30.3999 27.4007 31.4607 27.1778 32.4752 26.8112L33.0843 26.5993L31.3033 28.4068V30.0554C32.4092 30.4676 33.5872 30.6514 34.7661 30.5956C35.945 30.5399 37.1004 30.2457 38.1625 29.731L39.9236 30.7439L42.0423 29.5191V27.8705L41.314 27.4534C41.5394 27.138 41.664 26.7618 41.6715 26.3742ZM37.1958 26.2352C37.0303 26.3279 36.8714 26.4073 36.7059 26.4801C35.5992 26.9537 34.3506 26.9728 33.23 26.5331C34.8918 25.9439 36.2822 25.434 37.4673 26.063L37.1958 26.2352Z" fill="#BA68C8"/>
<path d="M34.6534 22.2627C33.9251 22.4414 33.23 22.6798 32.601 22.9247C31.8794 23.1877 31.1433 23.4087 30.3962 23.5868V23.5868C30.0518 23.6696 29.6974 23.703 29.3435 23.6861C28.9889 23.6698 28.6435 23.5676 28.3372 23.3882C27.6751 22.991 27.5559 22.4149 28.549 21.7661L28.7675 21.6271C28.9527 21.519 29.1452 21.4238 29.3435 21.3424C29.8278 21.1282 30.3496 21.0116 30.8789 20.9991C31.4083 20.9866 31.935 21.0785 32.4288 21.2695L34.2098 19.4753C32.6397 18.9432 30.9484 18.8811 29.3435 19.2965C28.8155 19.4326 28.2995 19.612 27.8009 19.8328L26.0199 18.8066L23.8946 20.0314L25.6557 21.0511C23.8681 22.3752 23.835 23.8119 25.8411 24.9706C26.7312 25.4904 27.7372 25.7794 28.7675 25.8114H29.3568C30.433 25.7388 31.4938 25.516 32.5083 25.1493C34.5475 24.4873 36.1961 23.6663 37.5666 24.4873C38.4869 25.0169 38.2287 25.6856 37.2223 26.2683C37.0568 26.361 36.8979 26.4404 36.7324 26.5132C36.1722 26.7467 35.5714 26.8669 34.9646 26.8669C34.3578 26.8669 33.757 26.7467 33.1968 26.5132L31.3033 28.4068C32.407 28.825 33.5843 29.0143 34.7635 28.9631C35.9427 28.9119 37.0992 28.6212 38.1625 28.1089L39.917 29.0689L42.0555 27.8639L40.301 26.8509C42.0688 25.487 42.2872 23.9973 40.2083 22.7923H40.1686C39.3311 22.3405 38.4117 22.0609 37.4646 21.9699C36.5174 21.879 35.5616 21.9785 34.6534 22.2627V22.2627Z" fill="#BA68C8"/>
<g opacity="0.3">
<path opacity="0.3" d="M34.6534 22.2627C33.9251 22.4414 33.23 22.6798 32.601 22.9247C31.8794 23.1877 31.1433 23.4087 30.3962 23.5868V23.5868C30.0518 23.6696 29.6974 23.703 29.3435 23.6861C28.9889 23.6698 28.6435 23.5676 28.3372 23.3882C27.6751 22.991 27.5559 22.4149 28.549 21.7661L28.7675 21.6271C28.9527 21.519 29.1452 21.4238 29.3435 21.3424C29.8278 21.1282 30.3496 21.0116 30.8789 20.9991C31.4083 20.9866 31.935 21.0785 32.4288 21.2695L34.2098 19.4753C32.6397 18.9432 30.9484 18.8811 29.3435 19.2965C28.8155 19.4326 28.2995 19.612 27.8009 19.8328L26.0199 18.8066L23.8946 20.0314L25.6557 21.0511C23.8681 22.3752 23.835 23.8119 25.8411 24.9706C26.7312 25.4904 27.7372 25.7794 28.7675 25.8114H29.3568C30.433 25.7388 31.4938 25.516 32.5083 25.1493C34.5475 24.4873 36.1961 23.6663 37.5666 24.4873C38.4869 25.0169 38.2287 25.6856 37.2223 26.2683C37.0568 26.361 36.8979 26.4404 36.7324 26.5132C36.1722 26.7467 35.5714 26.8669 34.9646 26.8669C34.3578 26.8669 33.757 26.7467 33.1968 26.5132L31.3033 28.4068C32.407 28.825 33.5843 29.0143 34.7635 28.9631C35.9427 28.9119 37.0992 28.6212 38.1625 28.1089L39.917 29.0689L42.0555 27.8639L40.301 26.8509C42.0688 25.487 42.2872 23.9973 40.2083 22.7923H40.1686C39.3311 22.3405 38.4117 22.0609 37.4646 21.9699C36.5174 21.879 35.5616 21.9785 34.6534 22.2627V22.2627Z" fill="white"/>
</g>
<path opacity="0.45" d="M23.888 20.0314L26.0265 19.0582L27.7876 19.8328L26.0066 18.8066L23.888 20.0314Z" fill="#F5F5F5"/>
<path opacity="0.45" d="M29.0853 19.3694C30.5967 19.0608 32.1596 19.113 33.6471 19.5216L32.4156 21.2695L34.1966 19.4753C32.5446 18.9134 30.7592 18.8764 29.0853 19.3694V19.3694Z" fill="#F5F5F5"/>
<path opacity="0.45" d="M40.1553 22.7659H40.1951C42.2541 23.9708 42.0555 25.4605 40.2878 26.8244C41.8503 25.1229 41.5722 23.9311 39.8706 22.9512C38.2606 22.1358 36.4235 21.884 34.6534 22.2362C35.5596 21.9539 36.513 21.8553 37.4578 21.9462C38.4026 22.0372 39.3197 22.3158 40.1553 22.7659V22.7659Z" fill="#F5F5F5"/>
<path opacity="0.45" d="M40.2878 26.8509L41.6318 27.8837L39.9236 29.0954L42.0423 27.8639L40.2878 26.8509Z" fill="#F5F5F5"/>
<path opacity="0.45" d="M36.7059 26.4801C35.6576 27.0079 34.4471 27.1145 33.3226 26.7781L31.3364 28.3737L33.2035 26.5066C34.3287 26.9606 35.5877 26.951 36.7059 26.4801V26.4801Z" fill="#F5F5F5"/>
<path opacity="0.45" d="M30.383 23.5868C29.9716 23.7558 29.5253 23.8225 29.0824 23.7809C28.6396 23.7394 28.2134 23.591 27.8406 23.3485C27.2249 22.8188 27.6155 22.256 28.5027 21.7661C27.5096 22.4282 27.6089 22.991 28.2908 23.3882C28.5972 23.5676 28.9425 23.6698 29.2972 23.6861C29.662 23.7062 30.0278 23.6728 30.383 23.5868V23.5868Z" fill="#F5F5F5"/>
<path opacity="0.45" d="M25.6292 21.0643C25.477 21.1967 24.1991 22.3885 24.7619 23.5736C25.3247 24.7587 27.2381 25.6592 28.7344 25.8247C27.7041 25.7927 26.6981 25.5036 25.808 24.9838C23.8085 23.8252 23.8416 22.4481 25.6292 21.0643Z" fill="#F5F5F5"/>
<path d="M5.64095 19.1376C6.88881 17.1904 8.61419 15.595 10.6529 14.503C18.8363 9.77577 32.1044 9.77577 40.2878 14.503C42.3265 15.595 44.0519 17.1904 45.2997 19.1376H46.4319V23.4213C46.2862 26.3941 44.247 29.3469 40.3076 31.6179C32.1243 36.3452 18.8561 36.3452 10.6728 31.6179C6.73338 29.3469 4.71403 26.3941 4.52865 23.4213V19.1376H5.64095Z" fill="#BA68C8"/>
<path opacity="0.25" d="M5.64095 19.1376C6.88881 17.1904 8.61419 15.595 10.6529 14.503C18.8363 9.77577 32.1044 9.77577 40.2878 14.503C42.3265 15.595 44.0519 17.1904 45.2997 19.1376H46.4319V23.4213C46.2862 26.3941 44.247 29.3469 40.3076 31.6179C32.1243 36.3452 18.8561 36.3452 10.6728 31.6179C6.73338 29.3469 4.71403 26.3941 4.52865 23.4213V19.1376H5.64095Z" fill="black"/>
<path opacity="0.1" d="M25.4571 10.9278C30.82 10.9278 36.1828 12.1129 40.2745 14.4766C42.3132 15.5685 44.0386 17.164 45.2865 19.1111H46.4186V23.3948C46.273 26.3676 44.2338 29.3205 40.2944 31.5914C36.2027 33.9551 30.8398 35.1402 25.477 35.1402L25.4571 10.9278Z" fill="black"/>
<path opacity="0.1" d="M36.9045 12.8942C38.0705 13.3362 39.1977 13.8744 40.2745 14.503C42.3132 15.595 44.0386 17.1904 45.2865 19.1376H46.4186V23.4213C46.273 26.3941 44.2338 29.347 40.2944 31.6179C39.2167 32.2375 38.0895 32.7668 36.9244 33.2003L36.9045 12.8942Z" fill="black"/>
<path opacity="0.5" d="M14.0097 12.8942C12.8437 13.3362 11.7165 13.8744 10.6397 14.503C8.60579 15.5968 6.88513 17.1921 5.64095 19.1376H4.49554V23.4213C4.64782 26.3941 6.70028 29.347 10.6397 31.6179C11.7174 32.2375 12.8446 32.7668 14.0097 33.2003V12.8942Z" fill="#BA68C8"/>
<path d="M40.2811 10.5306C48.4645 15.2578 48.4645 22.9181 40.2811 27.6454C33.1174 31.7768 22.0606 32.28 13.9236 29.1947L13.5859 29.0689C12.5668 28.6654 11.5778 28.1897 10.6264 27.6454C3.80035 23.6729 2.68143 17.7142 7.22332 13.0796C8.24113 12.0788 9.39047 11.2212 10.6397 10.5306C18.823 5.82315 32.1243 5.82315 40.2811 10.5306Z" fill="#BA68C8"/>
<path opacity="0.2" d="M40.2811 10.5306C48.4645 15.2578 48.4645 22.9181 40.2811 27.6454C33.1174 31.7768 22.0606 32.28 13.9236 29.1947L13.5859 29.0689C12.5668 28.6654 11.5778 28.1897 10.6264 27.6454C3.80035 23.6729 2.68143 17.7142 7.22332 13.0796C8.24113 12.0788 9.39047 11.2212 10.6397 10.5306C18.823 5.82315 32.1243 5.82315 40.2811 10.5306Z" fill="black"/>
<path opacity="0.5" d="M7.23657 13.1193C6.34551 14.127 5.68723 15.3185 5.30849 16.6092C4.92974 17.8999 4.8398 19.2582 5.04507 20.5876C5.76674 24.7455 11.5997 28.2479 13.5859 29.0689C12.5668 28.6654 11.5778 28.1897 10.6264 27.6454C3.8136 23.7193 2.67482 17.7406 7.23657 13.1193Z" fill="#F5F5F5"/>
<path opacity="0.5" d="M43.6776 25.0964C44.5681 24.0897 45.2261 22.8993 45.6049 21.6098C45.9836 20.3202 46.0738 18.9631 45.8691 17.6347C45.1474 13.4768 39.3211 9.97441 37.315 9.13357C38.3345 9.52578 39.3237 9.99271 40.2745 10.5306C47.1006 14.5031 48.2394 20.4618 43.6776 25.0964Z" fill="#F5F5F5"/>
<path d="M11.6858 27.0429C4.07844 22.6533 4.07844 15.5293 11.6858 11.1529C19.2931 6.77654 31.6277 6.7633 39.235 11.1529C46.8424 15.5425 46.8424 22.6732 39.235 27.0429C31.6277 31.4127 19.2997 31.4391 11.6858 27.0429Z" fill="#BA68C8"/>
<path opacity="0.4" d="M11.6858 27.0429C4.07844 22.6533 4.07844 15.5293 11.6858 11.1529C19.2931 6.77654 31.6277 6.7633 39.235 11.1529C46.8424 15.5425 46.8424 22.6732 39.235 27.0429C31.6277 31.4127 19.2997 31.4391 11.6858 27.0429Z" fill="white"/>
<path opacity="0.2" d="M6.8658 22.448C5.30329 19.5547 5.81309 16.3635 8.39522 13.6556C8.90633 13.1298 9.45994 12.647 10.0504 12.2122C10.5455 11.841 11.0629 11.5004 11.5997 11.1926C11.9109 11.0073 12.2618 10.8351 12.5597 10.6696C11.7454 11.9937 12.0433 13.4305 16.6315 13.7019C25.616 14.225 14.2348 22.8056 14.2348 22.8056C14.2348 22.8056 8.47467 19.9917 6.8658 22.448Z" fill="white"/>
<path opacity="0.5" d="M7.79272 20.0778C6.46856 19.9255 5.80647 18.5417 6.30303 16.9792C6.7996 15.4167 8.34225 14.2779 9.6929 14.4302C11.0435 14.5825 11.6791 15.9663 11.1826 17.5288C10.686 19.0913 9.14337 20.2235 7.79272 20.0778Z" fill="white"/>
<path d="M21.9944 27.2283C22.438 23.9179 37.0171 14.6487 37.0171 14.6487C37.0171 14.6487 40.248 13.3245 39.1755 11.0933C39.7142 11.4014 40.2338 11.7419 40.7313 12.1129C41.069 12.3579 41.3934 12.6029 41.6781 12.8611C46.0214 16.6217 46.028 21.5542 41.6781 25.3149C41.3868 25.5731 41.069 25.8247 40.7313 26.0696C40.2878 26.3941 39.8044 26.7317 39.288 27.0098C38.7716 27.2879 38.275 27.5659 37.7454 27.8175C37.3216 28.0162 36.878 28.2082 36.4212 28.3803C35.9643 28.5524 35.5141 28.7246 35.0507 28.8769C33.6303 29.3387 32.1759 29.6885 30.7008 29.923L29.7275 30.062C28.2852 30.2486 26.832 30.3393 25.3776 30.3335C23.6031 30.3334 21.8315 30.1873 20.081 29.8965C20.081 29.8965 22.4115 29.4198 21.9944 27.2283Z" fill="#BA68C8"/>
<path opacity="0.3" d="M21.9944 27.2283C22.438 23.9179 37.0171 14.6487 37.0171 14.6487C37.0171 14.6487 40.248 13.3245 39.1755 11.0933C39.7142 11.4014 40.2338 11.7419 40.7313 12.1129C41.069 12.3579 41.3934 12.6029 41.6781 12.8611C46.0214 16.6217 46.028 21.5542 41.6781 25.3149C41.3868 25.5731 41.069 25.8247 40.7313 26.0696C40.2878 26.3941 39.8044 26.7317 39.288 27.0098C38.7716 27.2879 38.275 27.5659 37.7454 27.8175C37.3216 28.0162 36.878 28.2082 36.4212 28.3803C35.9643 28.5524 35.5141 28.7246 35.0507 28.8769C33.6303 29.3387 32.1759 29.6885 30.7008 29.923L29.7275 30.062C28.2852 30.2486 26.832 30.3393 25.3776 30.3335C23.6031 30.3334 21.8315 30.1873 20.081 29.8965C20.081 29.8965 22.4115 29.4198 21.9944 27.2283Z" fill="white"/>
<path d="M35.7326 13.1789C41.175 16.3172 41.3934 21.3225 36.3947 24.6197C36.1828 24.7587 35.9577 24.8978 35.7326 25.0302C30.0652 28.3009 20.8755 28.3009 15.2081 25.0302C9.54062 21.7595 9.54062 16.4231 15.2081 13.1789C15.4398 13.0465 15.6781 12.9141 15.9165 12.7949C21.6236 9.86848 30.2969 10.0274 35.7326 13.1789Z" fill="#BA68C8"/>
<path opacity="0.2" d="M35.7326 13.1789C41.175 16.3172 41.3934 21.3225 36.3947 24.6197C36.1828 24.7587 35.9577 24.8978 35.7326 25.0302C30.0652 28.3009 20.8755 28.3009 15.2081 25.0302C9.54062 21.7595 9.54062 16.4231 15.2081 13.1789C15.4398 13.0465 15.6781 12.9141 15.9165 12.7949C21.6236 9.86848 30.2969 10.0274 35.7326 13.1789Z" fill="black"/>
<path d="M35.2758 13.4238C40.6916 16.5555 40.6916 21.6271 35.2758 24.7521C29.8599 27.8771 21.0741 27.8837 15.6516 24.7521C10.2292 21.6204 10.2358 16.5555 15.6516 13.4238C21.0675 10.2922 29.8599 10.2988 35.2758 13.4238Z" fill="#BA68C8"/>
<path opacity="0.5" d="M35.2758 13.4238C40.6916 16.5555 40.6916 21.6271 35.2758 24.7521C29.8599 27.8771 21.0741 27.8837 15.6516 24.7521C10.2292 21.6204 10.2358 16.5555 15.6516 13.4238C21.0675 10.2922 29.8599 10.2988 35.2758 13.4238Z" fill="black"/>
<path d="M35.2758 15.6617C29.8599 12.5301 21.0741 12.5301 15.6516 15.6617C13.4403 16.9395 12.1294 18.5418 11.7255 20.2036C12.1294 21.872 13.4403 23.4743 15.6516 24.7521C21.0741 27.8838 29.8599 27.8838 35.2758 24.7521C37.4938 23.4743 38.7981 21.872 39.2019 20.2036C38.7981 18.5418 37.4938 16.9395 35.2758 15.6617Z" fill="#BA68C8"/>
<path opacity="0.35" d="M35.2758 15.6617C29.8599 12.5301 21.0741 12.5301 15.6516 15.6617C13.4403 16.9395 12.1294 18.5418 11.7255 20.2036C12.1294 21.872 13.4403 23.4743 15.6516 24.7521C21.0741 27.8838 29.8599 27.8838 35.2758 24.7521C37.4938 23.4743 38.7981 21.872 39.2019 20.2036C38.7981 18.5418 37.4938 16.9395 35.2758 15.6617Z" fill="black"/>
<path d="M34.2032 21.5013V19.8461C34.2032 19.184 33.7331 18.5219 32.7201 17.9194C32.7093 17.9166 32.6979 17.9166 32.687 17.9194C31.8495 17.4737 30.9315 17.1997 29.9868 17.1133C29.0421 17.0269 28.0896 17.1299 27.1851 17.4162V17.4162C26.4568 17.595 25.7617 17.8333 25.1327 18.0783C24.4108 18.3403 23.6747 18.5613 22.9279 18.7404V18.7404C22.5852 18.8197 22.2334 18.853 21.8818 18.8397C21.58 18.8222 21.2849 18.7434 21.0145 18.608L21.0807 18.5616L21.2992 18.4292C21.4866 18.319 21.6812 18.2216 21.8818 18.1379C22.3657 17.9216 22.8879 17.8043 23.4178 17.7929C23.9477 17.7816 24.4745 17.8764 24.9672 18.0717L26.7415 16.2774V14.6288C25.1737 14.0966 23.4845 14.0344 21.8818 14.4501C21.3519 14.5872 20.8338 14.7665 20.3326 14.9864L18.5582 13.9601L16.413 15.1651V16.8137L17.1413 17.2308C16.9455 17.5133 16.8372 17.8472 16.8302 18.1909V19.8394C16.8302 20.5015 17.3201 21.1636 18.3397 21.7661C19.2322 22.2859 20.2403 22.5749 21.2727 22.6069H21.862C22.9361 22.5344 23.9947 22.3115 25.0069 21.9449L25.6226 21.733L23.835 23.5272V25.1758C24.9391 25.5922 26.1162 25.7804 27.2951 25.7292C28.474 25.678 29.6303 25.3884 30.6942 24.8779L32.4487 25.8909L34.574 24.666V23.0174L33.8457 22.6003C34.0712 22.2775 34.1956 21.895 34.2032 21.5013V21.5013ZM29.7275 21.3622C29.562 21.4549 29.3965 21.5344 29.231 21.6072C28.1266 22.0811 26.8799 22.1002 25.7617 21.6602C27.4235 21.0709 28.8139 20.5611 29.9924 21.1901C29.9129 21.2497 29.8202 21.3026 29.7275 21.3622Z" fill="#BA68C8"/>
<path d="M27.1851 17.3897C26.4568 17.5685 25.7617 17.8068 25.1327 18.0518C24.4108 18.3138 23.6747 18.5348 22.9279 18.7139C22.5852 18.7932 22.2334 18.8266 21.8818 18.8132C21.5253 18.7959 21.178 18.6937 20.8689 18.5153C20.2068 18.118 20.0876 17.542 21.0807 16.8866L21.2992 16.7541C21.4867 16.646 21.6813 16.5508 21.8818 16.4694C22.3661 16.2553 22.8879 16.1386 23.4173 16.1261C23.9466 16.1137 24.4733 16.2055 24.9672 16.3966L26.7415 14.6024C25.1737 14.0701 23.4845 14.0079 21.8818 14.4236C21.3519 14.5607 20.8338 14.74 20.3326 14.9599L18.5582 13.9337L16.413 15.1651L18.1742 16.1781C16.3932 17.5023 16.3535 18.939 18.3596 20.0977C19.2521 20.6175 20.2602 20.9065 21.2926 20.9385H21.8818C22.9559 20.8659 24.0146 20.643 25.0267 20.2764C27.066 19.6143 28.7145 18.7933 30.0917 19.6143C31.012 20.144 30.7538 20.8127 29.7474 21.3953C29.5819 21.488 29.4164 21.5675 29.2508 21.6403C28.6907 21.8738 28.0899 21.994 27.4831 21.994C26.8762 21.994 26.2754 21.8738 25.7153 21.6403L23.8549 23.5074C24.9587 23.9252 26.1359 24.1143 27.3151 24.0631C28.4942 24.0119 29.6506 23.7214 30.714 23.2094L32.4686 24.2224L34.5938 22.9976L32.7864 21.978C34.5541 20.6141 34.7726 19.1244 32.6937 17.9194C32.6828 17.9166 32.6714 17.9166 32.6606 17.9194C31.8284 17.4729 30.9159 17.1962 29.976 17.1053C29.036 17.0144 28.0874 17.111 27.1851 17.3897V17.3897Z" fill="#BA68C8"/>
<g opacity="0.3">
<path opacity="0.3" d="M27.1851 17.3897C26.4568 17.5685 25.7617 17.8068 25.1327 18.0518C24.4108 18.3138 23.6747 18.5348 22.9279 18.7139C22.5852 18.7932 22.2334 18.8266 21.8818 18.8132C21.5253 18.7959 21.178 18.6937 20.8689 18.5153C20.2068 18.118 20.0876 17.542 21.0807 16.8866L21.2992 16.7541C21.4867 16.646 21.6813 16.5508 21.8818 16.4694C22.3661 16.2553 22.8879 16.1386 23.4173 16.1261C23.9466 16.1137 24.4733 16.2055 24.9672 16.3966L26.7415 14.6024C25.1737 14.0701 23.4845 14.0079 21.8818 14.4236C21.3519 14.5607 20.8338 14.74 20.3326 14.9599L18.5582 13.9337L16.413 15.1651L18.1742 16.1781C16.3932 17.5023 16.3535 18.939 18.3596 20.0977C19.2521 20.6175 20.2602 20.9065 21.2926 20.9385H21.8818C22.9559 20.8659 24.0146 20.643 25.0267 20.2764C27.066 19.6143 28.7145 18.7933 30.0917 19.6143C31.012 20.144 30.7538 20.8127 29.7474 21.3953C29.5819 21.488 29.4164 21.5675 29.2508 21.6403C28.6907 21.8738 28.0899 21.994 27.4831 21.994C26.8762 21.994 26.2754 21.8738 25.7153 21.6403L23.8549 23.5074C24.9587 23.9252 26.1359 24.1143 27.3151 24.0631C28.4942 24.0119 29.6506 23.7214 30.714 23.2094L32.4686 24.2224L34.5938 22.9976L32.7864 21.978C34.5541 20.6141 34.7726 19.1244 32.6937 17.9194C32.6828 17.9166 32.6714 17.9166 32.6606 17.9194C31.8284 17.4729 30.9159 17.1962 29.976 17.1053C29.036 17.0144 28.0874 17.111 27.1851 17.3897V17.3897Z" fill="white"/>
</g>
<path opacity="0.45" d="M16.413 15.1585L18.5582 14.1852L20.3127 14.9599L18.5383 13.9337L16.413 15.1585Z" fill="#F5F5F5"/>
<path opacity="0.45" d="M21.617 14.503C23.1284 14.1945 24.6913 14.2467 26.1788 14.6553L24.9473 16.4032L26.7283 14.609C25.0763 14.0471 23.2909 14.0101 21.617 14.503Z" fill="#F5F5F5"/>
<path opacity="0.45" d="M32.687 17.8929C32.6979 17.8901 32.7093 17.8901 32.7201 17.8929C34.7858 19.0979 34.5806 20.5876 32.8128 21.9515C34.382 20.2499 34.0973 19.0582 32.3957 18.0783C30.788 17.2629 28.953 17.011 27.1851 17.3633C28.0913 17.0809 29.0447 16.9823 29.9895 17.0733C30.9343 17.1642 31.8514 17.4429 32.687 17.8929V17.8929Z" fill="#F5F5F5"/>
<path opacity="0.45" d="M32.8128 21.978L34.1635 23.0174L32.4487 24.2224L34.574 22.991L32.8128 21.978Z" fill="#F5F5F5"/>
<path opacity="0.45" d="M29.231 21.6072C28.1823 22.1347 26.9711 22.239 25.8477 21.8985L23.8615 23.5008L25.7219 21.6337C26.849 22.0894 28.1108 22.0799 29.231 21.6072V21.6072Z" fill="#F5F5F5"/>
<path opacity="0.45" d="M22.9081 18.7139C22.4967 18.8829 22.0503 18.9495 21.6075 18.908C21.1647 18.8665 20.7385 18.7181 20.3657 18.4755C19.7499 17.9459 20.1472 17.3831 21.0609 16.8866C20.0677 17.5486 20.1671 18.118 20.849 18.5153C21.1582 18.6937 21.5054 18.7959 21.862 18.8132C22.2135 18.8266 22.5653 18.7932 22.9081 18.7139V18.7139Z" fill="#F5F5F5"/>
<path opacity="0.45" d="M18.1543 16.1914C18.002 16.3238 16.7242 17.5155 17.2936 18.7007C17.863 19.8858 19.7632 20.7862 21.2661 20.9517C20.2337 20.9197 19.2256 20.6307 18.3331 20.1109C16.3336 18.9522 16.3733 17.542 18.1543 16.1914Z" fill="#F5F5F5"/>
<path d="M6.94525 16.9726L7.47492 12.967L8.00458 16.9726L14.9498 17.2772L8.00458 17.5817L7.47492 21.594L6.94525 17.5817L0 17.2772L6.94525 16.9726Z" fill="white"/>
<path d="M38.3147 34.253C39.9546 32.5392 41.9857 31.2488 44.2338 30.4924C52.7548 27.4997 63.4342 31.1544 68.1284 38.636C69.3861 40.5902 70.1266 42.832 70.2801 45.1509L71.1938 45.4621L69.4525 50.2092C68.1284 53.4733 65.2814 56.1679 61.1831 57.6245C52.6687 60.6171 41.9827 56.9624 37.2885 49.4809C35.0441 45.8792 34.5872 42.0391 35.6797 38.6956L37.4209 33.9418L38.3147 34.253Z" fill="#BA68C8"/>
<path opacity="0.25" d="M38.3147 34.253C39.9546 32.5392 41.9857 31.2488 44.2338 30.4924C52.7548 27.4997 63.4342 31.1544 68.1284 38.636C69.3861 40.5902 70.1266 42.832 70.2801 45.1509L71.1938 45.4621L69.4525 50.2092C68.1284 53.4733 65.2814 56.1679 61.1831 57.6245C52.6687 60.6171 41.9827 56.9624 37.2885 49.4809C35.0441 45.8792 34.5872 42.0391 35.6797 38.6956L37.4209 33.9418L38.3147 34.253Z" fill="black"/>
<path opacity="0.1" d="M57.6211 30.6314C61.9321 32.0266 65.6385 34.8502 68.1284 38.636C69.3861 40.5902 70.1266 42.832 70.2801 45.1509L71.1938 45.4621L69.4525 50.2092C68.1284 53.4733 65.2814 56.1679 61.1831 57.6245C56.8282 59.063 52.1184 59.0118 47.7958 57.4789L57.6211 30.6314Z" fill="black"/>
<path opacity="0.1" d="M66.0494 35.9612C66.8286 36.7727 67.5251 37.6599 68.1283 38.6095C69.3861 40.5637 70.1265 42.8055 70.2801 45.1244L71.1938 45.4356L69.4525 50.1827C68.1283 53.4468 65.2814 56.1415 61.1831 57.598C60.0928 57.9793 58.9689 58.2564 57.8263 58.4256L66.0494 35.9612Z" fill="black"/>
<path opacity="0.5" d="M47.5972 29.6647C46.4524 29.834 45.3263 30.1111 44.2338 30.4924C41.9857 31.2488 39.9546 32.5392 38.3147 34.253L37.4209 33.9418L35.6863 38.6889C34.5938 42.0325 35.0242 45.8726 37.2951 49.4743C37.9038 50.4201 38.5998 51.3068 39.3741 52.1226L47.5972 29.6647Z" fill="#BA68C8"/>
<path d="M69.724 34.2861C74.3983 41.7743 71.2865 50.2754 62.7655 53.268C55.3104 55.8832 46.2134 53.4203 40.9167 47.7396L40.7115 47.5145C40.0377 46.7703 39.4307 45.9683 38.8974 45.1178C34.9977 38.8743 36.5139 31.9225 42.0688 28.0559C43.2341 27.2441 44.5064 26.5979 45.8493 26.1359C54.3504 23.1499 65.043 26.7913 69.724 34.2861Z" fill="#BA68C8"/>
<path opacity="0.2" d="M69.724 34.2861C74.3983 41.7743 71.2865 50.2754 62.7655 53.268C55.3104 55.8832 46.2134 53.4203 40.9167 47.7396L40.7115 47.5145C40.0377 46.7703 39.4307 45.9683 38.8974 45.1178C34.9977 38.8743 36.5139 31.9225 42.0688 28.0559C43.2341 27.2441 44.5064 26.5979 45.8493 26.1359C54.3504 23.1499 65.043 26.7913 69.724 34.2861Z" fill="black"/>
<path opacity="0.5" d="M42.0555 28.0559C39.633 29.9994 37.9409 32.7068 37.2554 35.7361C36.1497 40.5428 39.4204 46.0248 40.6983 47.5145C40.0245 46.7703 39.4175 45.9683 38.8841 45.1178C34.9712 38.8743 36.4874 31.9225 42.0555 28.0559Z" fill="#F5F5F5"/>
<path opacity="0.5" d="M66.5526 51.348C68.9751 49.4044 70.6673 46.697 71.3527 43.6678C72.4584 38.8611 69.1877 33.379 67.9099 31.8894C68.5836 32.6336 69.1906 33.4356 69.724 34.2861C73.6236 40.5295 72.1075 47.4814 66.5526 51.348Z" fill="#F5F5F5"/>
<path d="M70.2275 44.3902C72.311 37.361 66.875 29.5508 58.0859 26.9457C49.2968 24.3406 40.4829 27.927 38.3994 34.9562C36.3159 41.9854 41.7519 49.7955 50.541 52.4006C59.3301 55.0057 68.1441 51.4193 70.2275 44.3902Z" fill="#BA68C8"/>
<path opacity="0.4" d="M70.2275 44.3902C72.311 37.361 66.875 29.5508 58.0859 26.9457C49.2968 24.3406 40.4829 27.927 38.3994 34.9562C36.3159 41.9854 41.7519 49.7955 50.541 52.4006C59.3301 55.0057 68.1441 51.4193 70.2275 44.3902Z" fill="white"/>
<path opacity="0.2" d="M37.9506 38.2983C37.9187 36.4673 38.3411 34.6569 39.1799 33.029C40.0187 31.4011 41.2478 30.0064 42.7573 28.9696C43.3656 28.535 44.0077 28.1498 44.6774 27.8175C45.2279 27.5462 45.7938 27.3075 46.3723 27.1025C46.6967 26.9833 47.0344 26.8774 47.3588 26.7847C46.1604 28.0426 45.8228 29.7045 49.4113 31.267C56.436 34.3126 43.7769 40.7083 43.7769 40.7083C43.7769 40.7083 40.248 36.0141 37.9506 38.2983Z" fill="white"/>
<path opacity="0.5" d="M39.6654 35.9214C38.6392 35.3852 38.6656 33.6637 39.7184 32.0813C40.7711 30.499 42.466 29.6449 43.4856 30.1812C44.5052 30.7175 44.4854 32.4389 43.4326 34.0279C42.3799 35.6169 40.6916 36.4577 39.6654 35.9214Z" fill="white"/>
<path d="M48.2063 47.7595C49.9211 44.1776 65.4204 37.9474 65.4204 37.9474C65.4204 37.9474 68.5587 37.3979 68.6117 34.5973C68.9247 35.0964 69.2077 35.6137 69.4591 36.1465C69.6313 36.5041 69.7836 36.8682 69.916 37.2324C71.9022 42.5952 69.8829 48.0707 64.851 51.05C64.5068 51.2553 64.1559 51.4407 63.7851 51.6194C63.281 51.868 62.7638 52.089 62.2358 52.2815C61.72 52.4682 61.1938 52.6251 60.6601 52.7516C60.2363 52.8575 59.806 52.9502 59.3756 53.023C58.9453 53.0959 58.5083 53.1488 58.0514 53.1886C56.7429 53.3133 55.4249 53.3022 54.1187 53.1555C53.8406 53.1224 53.5559 53.0892 53.2778 53.0429C52.0468 52.8516 50.8349 52.5525 49.6562 52.1491C48.2182 51.6587 46.841 51.0057 45.5513 50.2026C45.5513 50.2026 47.6501 50.3019 48.2063 47.7595Z" fill="#BA68C8"/>
<path opacity="0.3" d="M48.2063 47.7595C49.9211 44.1776 65.4204 37.9474 65.4204 37.9474C65.4204 37.9474 68.5587 37.3979 68.6117 34.5973C68.9247 35.0964 69.2077 35.6137 69.4591 36.1465C69.6313 36.5041 69.7836 36.8682 69.916 37.2324C71.9022 42.5952 69.8829 48.0707 64.851 51.05C64.5068 51.2553 64.1559 51.4407 63.7851 51.6194C63.281 51.868 62.7638 52.089 62.2358 52.2815C61.72 52.4682 61.1938 52.6251 60.6601 52.7516C60.2363 52.8575 59.806 52.9502 59.3756 53.023C58.9453 53.0959 58.5083 53.1488 58.0514 53.1886C56.7429 53.3133 55.4249 53.3022 54.1187 53.1555C53.8406 53.1224 53.5559 53.0892 53.2778 53.0429C52.0468 52.8516 50.8349 52.5525 49.6562 52.1491C48.2182 51.6587 46.841 51.0057 45.5513 50.2026C45.5513 50.2026 47.6501 50.3019 48.2063 47.7595Z" fill="white"/>
<path d="M64.9967 35.9347C68.1085 40.9135 66.248 46.528 60.8852 48.8056C60.6534 48.9049 60.4217 48.9976 60.1834 49.077C54.2776 51.1494 46.8755 48.6268 43.6313 43.4361C40.3871 38.2454 42.5455 32.3661 48.4446 30.2937C48.683 30.2077 48.9279 30.1348 49.1729 30.062C54.9529 28.4068 61.918 30.9624 64.9967 35.9347Z" fill="#BA68C8"/>
<path opacity="0.2" d="M64.9967 35.9347C68.1085 40.9135 66.248 46.528 60.8852 48.8056C60.6534 48.9049 60.4217 48.9976 60.1834 49.077C54.2776 51.1494 46.8755 48.6268 43.6313 43.4361C40.3871 38.2454 42.5455 32.3661 48.4446 30.2937C48.683 30.2077 48.9279 30.1348 49.1729 30.062C54.9529 28.4068 61.918 30.9624 64.9967 35.9347Z" fill="black"/>
<path d="M64.52 36.1002C67.6185 41.0592 65.5529 46.6935 59.8854 48.6798C54.218 50.666 47.1602 48.2494 44.0683 43.2904C40.9763 38.3314 43.0354 32.6971 48.7028 30.7109C54.3703 28.7246 61.4281 31.1412 64.52 36.1002Z" fill="#BA68C8"/>
<path opacity="0.5" d="M64.52 36.1002C67.6185 41.0592 65.5529 46.6935 59.8854 48.6798C54.218 50.666 47.1602 48.2494 44.0683 43.2904C40.9763 38.3314 43.0354 32.6971 48.7028 30.7109C54.3703 28.7246 61.4281 31.1412 64.52 36.1002Z" fill="black"/>
<path d="M63.613 38.5764C60.5144 33.6174 53.4367 31.2008 47.7958 33.187C45.7003 33.8626 43.92 35.2736 42.7838 37.1595C42.4401 39.2948 42.9128 41.4813 44.108 43.2838C47.1999 48.2428 54.2842 50.6594 59.9252 48.6731C62.0207 47.9976 63.801 46.5866 64.9371 44.7007C65.2809 42.5654 64.8081 40.3789 63.613 38.5764V38.5764Z" fill="#BA68C8"/>
<path opacity="0.35" d="M63.613 38.5764C60.5144 33.6174 53.4367 31.2008 47.7958 33.187C45.7003 33.8626 43.92 35.2736 42.7838 37.1595C42.4401 39.2948 42.9128 41.4813 44.108 43.2838C47.1999 48.2428 54.2842 50.6594 59.9252 48.6731C62.0207 47.9976 63.801 46.5866 64.9371 44.7007C65.2809 42.5654 64.8081 40.3789 63.613 38.5764V38.5764Z" fill="black"/>
<path d="M60.3754 44.7603C60.4813 44.4623 60.9315 43.2441 61.0374 42.9263C61.1735 42.4993 61.2079 42.0465 61.1378 41.6039C61.0677 41.1613 60.895 40.7412 60.6336 40.3772V40.3442C59.5676 38.6426 57.9852 38.2652 56.4029 38.2718C55.763 38.2882 55.1244 38.3368 54.4894 38.4175C53.8075 38.516 53.1193 38.5647 52.4304 38.5631V38.5631C52.1266 38.5549 51.8264 38.4944 51.5432 38.3844C51.3005 38.2774 51.0921 38.1056 50.9407 37.8878L51.0135 37.8547L51.2452 37.7687C51.4353 37.7 51.63 37.6447 51.8279 37.6031C52.2781 37.4926 52.7498 37.5062 53.1929 37.6426C53.636 37.7791 54.0337 38.0331 54.3438 38.3778L56.5088 36.8748L57.1709 35.0475C56.6652 34.5474 56.064 34.1542 55.4031 33.8914C54.7422 33.6287 54.0352 33.5017 53.3242 33.5181C52.832 33.5226 52.3417 33.5781 51.861 33.6836L50.8414 32.0549L48.63 32.8295L47.9679 34.6569L48.385 35.3189C48.0933 35.5915 47.867 35.9265 47.7229 36.2988L47.0609 38.1196C46.9283 38.55 46.8988 39.0055 46.9747 39.4495C47.0506 39.8934 47.2298 40.3133 47.4978 40.6752C47.9553 41.4542 48.6519 42.0649 49.4841 42.4165V42.4165L49.9608 42.5754C50.8844 42.7824 51.8381 42.8183 52.7746 42.6813L53.3573 42.6151L51.179 44.118L50.5169 45.9454C52.1457 47.7595 54.3305 47.9316 56.1711 47.5013L57.1709 49.1101L59.3822 48.3289L60.0443 46.5015L59.6272 45.8394C59.9543 45.5403 60.2099 45.1715 60.3754 44.7603V44.7603ZM56.82 43.3765C56.6581 43.435 56.4921 43.4815 56.3234 43.5155C55.8157 43.6312 55.2863 43.6087 54.7902 43.4503C54.2942 43.292 53.8497 43.0036 53.5029 42.6151C55.0853 42.4231 56.4095 42.2377 57.1113 43.2772L56.82 43.3765Z" fill="#BA68C8"/>
<path d="M56.3896 38.2718C55.7498 38.2882 55.1112 38.3368 54.4762 38.4175C53.7943 38.516 53.1061 38.5647 52.4171 38.5631V38.5631C52.1133 38.5549 51.8132 38.4944 51.5299 38.3844C51.251 38.2523 51.0198 38.0373 50.8678 37.7687C50.4772 37.1463 50.6295 36.4776 51.6954 36.0274L51.9272 35.9413C52.1164 35.8716 52.3114 35.8185 52.5098 35.7824C52.9594 35.6711 53.4308 35.6837 53.8738 35.8189C54.3169 35.9541 54.7149 36.2069 55.0257 36.5504L57.151 35.0276C56.6454 34.5275 56.0441 34.1343 55.3833 33.8716C54.7224 33.6088 54.0153 33.4818 53.3043 33.4982C52.8122 33.5027 52.3218 33.5582 51.8411 33.6637L50.8215 32.035L48.6101 32.8096L49.6165 34.4185C47.6303 35.4315 47.0278 36.9808 48.1732 38.8214C48.6388 39.6062 49.3478 40.2175 50.1925 40.5626V40.5626L50.6692 40.7215C51.5928 40.9275 52.546 40.9656 53.4831 40.8341C55.4031 40.6355 57.0583 40.172 57.8462 41.4564C58.3692 42.2973 57.8925 42.966 56.8398 43.3368C56.678 43.3953 56.512 43.4418 56.3433 43.4758C55.8255 43.5944 55.2852 43.5689 54.7809 43.4019C54.2767 43.235 53.8278 42.9331 53.4831 42.529L51.2187 44.0915C52.8475 45.9123 55.0323 46.0778 56.8729 45.6474L57.8727 47.2563L60.084 46.475L59.0843 44.8728C61.0705 43.8399 61.8319 42.2245 60.6601 40.3375V40.3044C59.5544 38.6426 57.9455 38.2652 56.3896 38.2718Z" fill="#BA68C8"/>
<g opacity="0.3">
<path opacity="0.3" d="M56.3896 38.2718C55.7498 38.2882 55.1112 38.3368 54.4762 38.4175C53.7943 38.516 53.1061 38.5647 52.4171 38.5631V38.5631C52.1133 38.5549 51.8132 38.4944 51.5299 38.3844C51.251 38.2523 51.0198 38.0373 50.8678 37.7687C50.4772 37.1463 50.6295 36.4776 51.6954 36.0274L51.9272 35.9413C52.1164 35.8716 52.3114 35.8185 52.5098 35.7824C52.9594 35.6711 53.4308 35.6837 53.8738 35.8189C54.3169 35.9541 54.7149 36.2069 55.0257 36.5504L57.151 35.0276C56.6454 34.5275 56.0441 34.1343 55.3833 33.8716C54.7224 33.6088 54.0153 33.4818 53.3043 33.4982C52.8122 33.5027 52.3218 33.5582 51.8411 33.6637L50.8215 32.035L48.6101 32.8096L49.6165 34.4185C47.6303 35.4315 47.0278 36.9808 48.1732 38.8214C48.6388 39.6062 49.3478 40.2175 50.1925 40.5626V40.5626L50.6692 40.7215C51.5928 40.9275 52.546 40.9656 53.4831 40.8341C55.4031 40.6355 57.0583 40.172 57.8462 41.4564C58.3692 42.2973 57.8925 42.966 56.8398 43.3368C56.678 43.3953 56.512 43.4418 56.3433 43.4758C55.8255 43.5944 55.2852 43.5689 54.7809 43.4019C54.2767 43.235 53.8278 42.9331 53.4831 42.529L51.2187 44.0915C52.8475 45.9123 55.0323 46.0778 56.8729 45.6474L57.8727 47.2563L60.084 46.475L59.0843 44.8728C61.0705 43.8399 61.8319 42.2245 60.6601 40.3375V40.3044C59.5544 38.6426 57.9455 38.2652 56.3896 38.2718Z" fill="white"/>
</g>
<path opacity="0.45" d="M48.6101 32.8361L50.7354 32.3528L51.8411 33.6902L50.8215 32.0615L48.6101 32.8361Z" fill="#F5F5F5"/>
<path opacity="0.45" d="M53.0726 33.5313C54.4015 33.6037 55.6716 34.103 56.6942 34.9548L54.986 36.557L57.151 35.0276C56.6156 34.5041 55.9753 34.1 55.2723 33.8421C54.5693 33.5842 53.8195 33.4782 53.0726 33.5313V33.5313Z" fill="#F5F5F5"/>
<path opacity="0.45" d="M60.5938 40.3243V40.3574C61.7657 42.2642 60.9977 43.8598 59.0181 44.8927C61.0043 43.4295 61.2228 42.0325 60.2562 40.4766C59.8159 39.8328 59.2347 39.2978 58.5567 38.9123C57.8787 38.5268 57.1217 38.301 56.3433 38.252C57.9455 38.2652 59.5544 38.6426 60.5938 40.3243Z" fill="#F5F5F5"/>
<path opacity="0.45" d="M59.0644 44.9125L59.7265 46.4287L57.8528 47.296L60.0642 46.5214L59.0644 44.9125Z" fill="#F5F5F5"/>
<path opacity="0.45" d="M56.3234 43.5155C55.8375 43.6715 55.3192 43.6979 54.8199 43.5923C54.3206 43.4866 53.8576 43.2525 53.4765 42.913L51.1989 44.1313L53.4632 42.5688C53.8079 42.9729 54.2568 43.2748 54.7611 43.4417C55.2653 43.6086 55.8057 43.6341 56.3234 43.5155V43.5155Z" fill="#F5F5F5"/>
<path opacity="0.45" d="M66.2481 38.6674C65.8616 38.7419 65.4614 38.6876 65.1087 38.5131C64.7559 38.3385 64.4701 38.0532 64.2949 37.7008C64.0168 36.946 64.5597 36.423 65.4999 36.1317C64.4339 36.5819 64.2817 37.2506 64.6723 37.8729C64.8242 38.1415 65.0555 38.3566 65.3344 38.4887C65.626 38.6017 65.9353 38.6623 66.2481 38.6674Z" fill="#F5F5F5"/>
<path opacity="0.45" d="M49.5966 34.4582C49.4245 34.5642 47.9083 35.5374 47.8818 37.0139C47.9158 37.7603 48.1453 38.4847 48.5473 39.1145C48.9494 39.7443 49.5099 40.2574 50.1727 40.6024V40.6024C49.3279 40.2573 48.6189 39.6459 48.1533 38.8611C47.0079 37.0139 47.6104 35.4712 49.5966 34.4582Z" fill="#F5F5F5"/>
<path d="M40.2414 32.2469L42.3005 27.95L41.0955 32.5382L46.5709 34.7827L40.8439 33.2135L38.7914 37.5171L39.9964 32.9222L34.521 30.6777L40.2414 32.2469Z" fill="white"/>
<path d="M89.75 40.75C87.17 40.75 85.15 40 83.69 38.5C82.25 37 81.53 34.9 81.53 32.2C81.53 29.58 82.1 27.21 83.24 25.09C84.4 22.95 85.96 21.27 87.92 20.05C89.88 18.83 92.04 18.22 94.4 18.22C95.84 18.22 96.97 18.45 97.79 18.91C98.61 19.37 99.02 20.01 99.02 20.83C99.02 21.51 98.75 22.09 98.21 22.57C97.67 23.03 97 23.26 96.2 23.26C95.34 23.26 94.55 23.07 93.83 22.69C93.13 22.31 92.56 21.67 92.12 20.77C90.82 21.33 89.66 22.18 88.64 23.32C87.62 24.46 86.82 25.82 86.24 27.4C85.66 28.96 85.37 30.64 85.37 32.44C85.37 34.38 85.75 35.9 86.51 37C87.27 38.1 88.32 38.65 89.66 38.65C90.68 38.65 91.59 38.4 92.39 37.9C93.19 37.38 93.82 36.68 94.28 35.8C94.76 34.9 95.04 33.9 95.12 32.8C95.9 32.8 96.5 32.97 96.92 33.31C97.36 33.63 97.58 34.15 97.58 34.87C97.58 35.93 97.22 36.91 96.5 37.81C95.8 38.71 94.85 39.43 93.65 39.97C92.45 40.49 91.15 40.75 89.75 40.75ZM109.533 40.75C107.833 40.75 106.343 40.38 105.063 39.64C103.803 38.88 102.823 37.81 102.123 36.43C101.423 35.03 101.073 33.41 101.073 31.57C101.073 28.91 101.593 26.57 102.633 24.55C103.673 22.53 105.063 20.98 106.803 19.9C108.543 18.8 110.443 18.25 112.503 18.25C113.503 18.25 114.243 18.4 114.723 18.7C115.203 18.98 115.443 19.43 115.443 20.05C115.443 20.27 115.423 20.47 115.383 20.65C115.343 20.81 115.283 20.99 115.203 21.19C114.943 21.13 114.643 21.08 114.303 21.04C113.963 20.98 113.673 20.95 113.433 20.95C111.853 20.95 110.413 21.39 109.113 22.27C107.833 23.15 106.813 24.39 106.053 25.99C105.313 27.57 104.943 29.39 104.943 31.45C104.943 33.81 105.423 35.6 106.383 36.82C107.363 38.04 108.683 38.65 110.343 38.65C111.443 38.65 112.553 38.29 113.673 37.57C114.813 36.83 115.783 35.8 116.583 34.48C117.403 33.14 117.923 31.62 118.143 29.92C116.943 29.38 116.083 28.7 115.563 27.88C115.063 27.04 114.813 26.1 114.813 25.06C114.813 24.08 115.093 23.27 115.653 22.63C116.213 21.97 116.913 21.64 117.753 21.64C118.773 21.64 119.573 22.1 120.153 23.02C120.733 23.92 121.023 25.17 121.023 26.77C121.023 29.37 120.523 31.74 119.523 33.88C118.543 36 117.173 37.68 115.413 38.92C113.673 40.14 111.713 40.75 109.533 40.75ZM127.147 40.78C126.407 40.78 125.867 40.59 125.527 40.21C125.187 39.83 125.017 39.21 125.017 38.35C125.017 37.21 125.177 35.47 125.497 33.13C125.817 30.79 126.427 26.85 127.327 21.31L126.397 19.48C127.737 18.64 128.927 18.22 129.967 18.22C130.847 18.22 131.287 18.75 131.287 19.81C131.287 19.99 131.197 20.64 131.017 21.76C130.837 22.86 130.637 24.09 130.417 25.45C129.837 29.11 129.407 31.83 129.127 33.61C128.867 35.39 128.737 36.64 128.737 37.36C128.737 37.94 128.797 38.45 128.917 38.89C129.037 39.33 129.217 39.7 129.457 40C128.657 40.52 127.887 40.78 127.147 40.78ZM132.487 31.6C131.467 31.6 130.217 31.4 128.737 31L129.157 28.93C130.217 29.09 131.487 29.17 132.967 29.17L135.187 28.63C135.187 28.69 135.187 28.76 135.187 28.84C135.187 28.9 135.197 28.96 135.217 29.02C135.217 29.08 135.217 29.14 135.217 29.2C135.217 29.26 135.217 29.31 135.217 29.35C135.217 30.07 134.977 30.63 134.497 31.03C134.037 31.41 133.367 31.6 132.487 31.6ZM135.787 22.54C134.567 22.54 133.387 22.46 132.247 22.3C131.127 22.12 130.027 21.83 128.947 21.43L129.667 19.63C131.347 19.63 132.777 19.55 133.957 19.39C135.137 19.23 136.707 18.95 138.667 18.55C138.787 18.53 138.897 18.51 138.997 18.49C139.117 18.45 139.237 18.42 139.357 18.4C139.457 18.74 139.507 19.16 139.507 19.66C139.507 20.64 139.147 21.37 138.427 21.85C137.727 22.31 136.847 22.54 135.787 22.54ZM149.088 32.59C147.948 32.59 146.958 32.45 146.118 32.17C145.298 31.89 144.458 31.39 143.598 30.67L144.318 29.26C144.778 29.6 145.308 29.86 145.908 30.04C146.528 30.2 147.168 30.28 147.828 30.28C149.128 30.28 150.258 30.05 151.218 29.59C152.178 29.13 152.908 28.5 153.408 27.7C153.928 26.9 154.188 25.99 154.188 24.97C154.188 23.71 153.828 22.68 153.108 21.88C152.408 21.08 151.278 20.68 149.718 20.68C148.958 20.68 148.178 20.86 147.378 21.22C146.598 21.56 145.738 22.08 144.798 22.78V21.52C145.558 20.78 146.228 20.19 146.808 19.75C147.388 19.31 148.078 18.96 148.878 18.7C149.678 18.42 150.608 18.28 151.668 18.28C152.988 18.28 154.128 18.57 155.088 19.15C156.048 19.71 156.768 20.47 157.248 21.43C157.748 22.39 157.998 23.43 157.998 24.55C157.998 25.89 157.668 27.18 157.008 28.42C156.348 29.64 155.348 30.64 154.008 31.42C152.668 32.2 151.028 32.59 149.088 32.59ZM142.938 40.78C142.198 40.78 141.658 40.59 141.318 40.21C140.978 39.83 140.808 39.21 140.808 38.35C140.808 37.19 140.968 35.43 141.288 33.07C141.608 30.71 142.218 26.79 143.118 21.31L142.188 19.48C143.528 18.64 144.718 18.22 145.758 18.22C146.638 18.22 147.078 18.75 147.078 19.81C147.078 20.07 146.828 21.63 146.328 24.49C145.788 27.69 145.348 30.38 145.008 32.56C144.688 34.74 144.528 36.34 144.528 37.36C144.528 37.94 144.588 38.45 144.708 38.89C144.828 39.33 145.008 39.7 145.248 40C144.468 40.52 143.698 40.78 142.938 40.78ZM155.718 40.75C155.098 40.75 154.578 40.61 154.158 40.33C153.738 40.07 153.308 39.59 152.868 38.89C152.448 38.17 151.918 37.08 151.278 35.62L149.418 31.51L152.628 30.19C153.588 32.43 154.568 34.42 155.568 36.16C156.588 37.9 157.478 39.1 158.238 39.76C157.998 40.02 157.618 40.25 157.098 40.45C156.598 40.65 156.138 40.75 155.718 40.75ZM164.677 40.78C163.937 40.78 163.397 40.59 163.057 40.21C162.717 39.83 162.547 39.21 162.547 38.35C162.547 37.21 162.707 35.47 163.027 33.13C163.347 30.79 163.957 26.85 164.857 21.31L163.927 19.48C165.267 18.64 166.457 18.22 167.497 18.22C168.377 18.22 168.817 18.75 168.817 19.81C168.817 19.99 168.727 20.64 168.547 21.76C168.367 22.86 168.167 24.09 167.947 25.45C167.367 29.11 166.937 31.83 166.657 33.61C166.397 35.39 166.267 36.64 166.267 37.36C166.267 37.88 166.377 38.33 166.597 38.71C166.837 39.07 167.207 39.38 167.707 39.64C166.647 40.4 165.637 40.78 164.677 40.78ZM171.277 40.75C170.037 40.75 168.817 40.59 167.617 40.27C166.417 39.97 165.407 39.55 164.587 39.01L165.577 37.75H172.297C173.497 37.61 174.587 37.35 175.567 36.97C175.747 37.57 175.837 38.01 175.837 38.29C175.837 39.13 175.467 39.75 174.727 40.15C174.007 40.55 172.857 40.75 171.277 40.75ZM170.017 31.6C168.997 31.6 167.747 31.4 166.267 31L166.687 28.93C167.747 29.09 169.017 29.17 170.497 29.17L172.717 28.63C172.717 28.69 172.717 28.76 172.717 28.84C172.717 28.9 172.727 28.96 172.747 29.02C172.747 29.08 172.747 29.14 172.747 29.2C172.747 29.26 172.747 29.31 172.747 29.35C172.747 30.07 172.507 30.63 172.027 31.03C171.567 31.41 170.897 31.6 170.017 31.6ZM173.617 22.54C172.397 22.54 171.217 22.46 170.077 22.3C168.957 22.12 167.857 21.83 166.777 21.43L167.497 19.63C169.177 19.63 170.607 19.55 171.787 19.39C172.967 19.23 174.537 18.95 176.497 18.55C176.617 18.53 176.727 18.51 176.827 18.49C176.947 18.45 177.067 18.42 177.187 18.4C177.287 18.74 177.337 19.16 177.337 19.66C177.337 20.64 176.977 21.37 176.257 21.85C175.557 22.31 174.677 22.54 173.617 22.54Z" fill="black"/>
</svg>
